<?xml version="1.0" encoding="utf-8" standalone="no"?>
<!DOCTYPE svg PUBLIC "-//W3C//DTD SVG 1.1//EN"
  "http://www.w3.org/Graphics/SVG/1.1/DTD/svg11.dtd">
<!-- Created with matplotlib (https://matplotlib.org/) -->
<svg height="432pt" version="1.1" viewBox="0 0 1080 432" width="1080pt" xmlns="http://www.w3.org/2000/svg" xmlns:xlink="http://www.w3.org/1999/xlink">
 <defs>
  <style type="text/css">
*{stroke-linecap:butt;stroke-linejoin:round;}
  </style>
 </defs>
 <g id="figure_1">
  <g id="patch_1">
   <path d="M 0 432 
L 1080 432 
L 1080 0 
L 0 0 
z
" style="fill:#ffffff;"/>
  </g>
  <g id="axes_1">
   <g id="patch_2">
    <path d="M 135 378 
L 972 378 
L 972 51.84 
L 135 51.84 
z
" style="fill:#ffffff;"/>
   </g>
   <g id="matplotlib.axis_1">
    <g id="xtick_1">
     <g id="line2d_1">
      <defs>
       <path d="M 0 0 
L 0 3.5 
" id="mf3f9a96409" style="stroke:#000000;stroke-width:0.8;"/>
      </defs>
      <g>
       <use style="stroke:#000000;stroke-width:0.8;" x="206.30924" xlink:href="#mf3f9a96409" y="378"/>
      </g>
     </g>
     <g id="text_1">
      <!-- 2019-07 -->
      <defs>
       <path d="M 19.1875 8.296875 
L 53.609375 8.296875 
L 53.609375 0 
L 7.328125 0 
L 7.328125 8.296875 
Q 12.9375 14.109375 22.625 23.890625 
Q 32.328125 33.6875 34.8125 36.53125 
Q 39.546875 41.84375 41.421875 45.53125 
Q 43.3125 49.21875 43.3125 52.78125 
Q 43.3125 58.59375 39.234375 62.25 
Q 35.15625 65.921875 28.609375 65.921875 
Q 23.96875 65.921875 18.8125 64.3125 
Q 13.671875 62.703125 7.8125 59.421875 
L 7.8125 69.390625 
Q 13.765625 71.78125 18.9375 73 
Q 24.125 74.21875 28.421875 74.21875 
Q 39.75 74.21875 46.484375 68.546875 
Q 53.21875 62.890625 53.21875 53.421875 
Q 53.21875 48.921875 51.53125 44.890625 
Q 49.859375 40.875 45.40625 35.40625 
Q 44.1875 33.984375 37.640625 27.21875 
Q 31.109375 20.453125 19.1875 8.296875 
z
" id="DejaVuSans-50"/>
       <path d="M 31.78125 66.40625 
Q 24.171875 66.40625 20.328125 58.90625 
Q 16.5 51.421875 16.5 36.375 
Q 16.5 21.390625 20.328125 13.890625 
Q 24.171875 6.390625 31.78125 6.390625 
Q 39.453125 6.390625 43.28125 13.890625 
Q 47.125 21.390625 47.125 36.375 
Q 47.125 51.421875 43.28125 58.90625 
Q 39.453125 66.40625 31.78125 66.40625 
z
M 31.78125 74.21875 
Q 44.046875 74.21875 50.515625 64.515625 
Q 56.984375 54.828125 56.984375 36.375 
Q 56.984375 17.96875 50.515625 8.265625 
Q 44.046875 -1.421875 31.78125 -1.421875 
Q 19.53125 -1.421875 13.0625 8.265625 
Q 6.59375 17.96875 6.59375 36.375 
Q 6.59375 54.828125 13.0625 64.515625 
Q 19.53125 74.21875 31.78125 74.21875 
z
" id="DejaVuSans-48"/>
       <path d="M 12.40625 8.296875 
L 28.515625 8.296875 
L 28.515625 63.921875 
L 10.984375 60.40625 
L 10.984375 69.390625 
L 28.421875 72.90625 
L 38.28125 72.90625 
L 38.28125 8.296875 
L 54.390625 8.296875 
L 54.390625 0 
L 12.40625 0 
z
" id="DejaVuSans-49"/>
       <path d="M 10.984375 1.515625 
L 10.984375 10.5 
Q 14.703125 8.734375 18.5 7.8125 
Q 22.3125 6.890625 25.984375 6.890625 
Q 35.75 6.890625 40.890625 13.453125 
Q 46.046875 20.015625 46.78125 33.40625 
Q 43.953125 29.203125 39.59375 26.953125 
Q 35.25 24.703125 29.984375 24.703125 
Q 19.046875 24.703125 12.671875 31.3125 
Q 6.296875 37.9375 6.296875 49.421875 
Q 6.296875 60.640625 12.9375 67.421875 
Q 19.578125 74.21875 30.609375 74.21875 
Q 43.265625 74.21875 49.921875 64.515625 
Q 56.59375 54.828125 56.59375 36.375 
Q 56.59375 19.140625 48.40625 8.859375 
Q 40.234375 -1.421875 26.421875 -1.421875 
Q 22.703125 -1.421875 18.890625 -0.6875 
Q 15.09375 0.046875 10.984375 1.515625 
z
M 30.609375 32.421875 
Q 37.25 32.421875 41.125 36.953125 
Q 45.015625 41.5 45.015625 49.421875 
Q 45.015625 57.28125 41.125 61.84375 
Q 37.25 66.40625 30.609375 66.40625 
Q 23.96875 66.40625 20.09375 61.84375 
Q 16.21875 57.28125 16.21875 49.421875 
Q 16.21875 41.5 20.09375 36.953125 
Q 23.96875 32.421875 30.609375 32.421875 
z
" id="DejaVuSans-57"/>
       <path d="M 4.890625 31.390625 
L 31.203125 31.390625 
L 31.203125 23.390625 
L 4.890625 23.390625 
z
" id="DejaVuSans-45"/>
       <path d="M 8.203125 72.90625 
L 55.078125 72.90625 
L 55.078125 68.703125 
L 28.609375 0 
L 18.3125 0 
L 43.21875 64.59375 
L 8.203125 64.59375 
z
" id="DejaVuSans-55"/>
      </defs>
      <g transform="translate(172.88299 397.1575)scale(0.16 -0.16)">
       <use xlink:href="#DejaVuSans-50"/>
       <use x="63.623047" xlink:href="#DejaVuSans-48"/>
       <use x="127.246094" xlink:href="#DejaVuSans-49"/>
       <use x="190.869141" xlink:href="#DejaVuSans-57"/>
       <use x="254.492188" xlink:href="#DejaVuSans-45"/>
       <use x="290.576172" xlink:href="#DejaVuSans-48"/>
       <use x="354.199219" xlink:href="#DejaVuSans-55"/>
      </g>
     </g>
    </g>
    <g id="xtick_2">
     <g id="line2d_2">
      <g>
       <use style="stroke:#000000;stroke-width:0.8;" x="301.942623" xlink:href="#mf3f9a96409" y="378"/>
      </g>
     </g>
     <g id="text_2">
      <!-- 2019-10 -->
      <g transform="translate(268.516373 397.1575)scale(0.16 -0.16)">
       <use xlink:href="#DejaVuSans-50"/>
       <use x="63.623047" xlink:href="#DejaVuSans-48"/>
       <use x="127.246094" xlink:href="#DejaVuSans-49"/>
       <use x="190.869141" xlink:href="#DejaVuSans-57"/>
       <use x="254.492188" xlink:href="#DejaVuSans-45"/>
       <use x="290.576172" xlink:href="#DejaVuSans-49"/>
       <use x="354.199219" xlink:href="#DejaVuSans-48"/>
      </g>
     </g>
    </g>
    <g id="xtick_3">
     <g id="line2d_3">
      <g>
       <use style="stroke:#000000;stroke-width:0.8;" x="397.576006" xlink:href="#mf3f9a96409" y="378"/>
      </g>
     </g>
     <g id="text_3">
      <!-- 2020-01 -->
      <g transform="translate(364.149756 397.1575)scale(0.16 -0.16)">
       <use xlink:href="#DejaVuSans-50"/>
       <use x="63.623047" xlink:href="#DejaVuSans-48"/>
       <use x="127.246094" xlink:href="#DejaVuSans-50"/>
       <use x="190.869141" xlink:href="#DejaVuSans-48"/>
       <use x="254.492188" xlink:href="#DejaVuSans-45"/>
       <use x="290.576172" xlink:href="#DejaVuSans-48"/>
       <use x="354.199219" xlink:href="#DejaVuSans-49"/>
      </g>
     </g>
    </g>
    <g id="xtick_4">
     <g id="line2d_4">
      <g>
       <use style="stroke:#000000;stroke-width:0.8;" x="492.169896" xlink:href="#mf3f9a96409" y="378"/>
      </g>
     </g>
     <g id="text_4">
      <!-- 2020-04 -->
      <defs>
       <path d="M 37.796875 64.3125 
L 12.890625 25.390625 
L 37.796875 25.390625 
z
M 35.203125 72.90625 
L 47.609375 72.90625 
L 47.609375 25.390625 
L 58.015625 25.390625 
L 58.015625 17.1875 
L 47.609375 17.1875 
L 47.609375 0 
L 37.796875 0 
L 37.796875 17.1875 
L 4.890625 17.1875 
L 4.890625 26.703125 
z
" id="DejaVuSans-52"/>
      </defs>
      <g transform="translate(458.743646 397.1575)scale(0.16 -0.16)">
       <use xlink:href="#DejaVuSans-50"/>
       <use x="63.623047" xlink:href="#DejaVuSans-48"/>
       <use x="127.246094" xlink:href="#DejaVuSans-50"/>
       <use x="190.869141" xlink:href="#DejaVuSans-48"/>
       <use x="254.492188" xlink:href="#DejaVuSans-45"/>
       <use x="290.576172" xlink:href="#DejaVuSans-48"/>
       <use x="354.199219" xlink:href="#DejaVuSans-52"/>
      </g>
     </g>
    </g>
    <g id="xtick_5">
     <g id="line2d_5">
      <g>
       <use style="stroke:#000000;stroke-width:0.8;" x="586.763785" xlink:href="#mf3f9a96409" y="378"/>
      </g>
     </g>
     <g id="text_5">
      <!-- 2020-07 -->
      <g transform="translate(553.337535 397.1575)scale(0.16 -0.16)">
       <use xlink:href="#DejaVuSans-50"/>
       <use x="63.623047" xlink:href="#DejaVuSans-48"/>
       <use x="127.246094" xlink:href="#DejaVuSans-50"/>
       <use x="190.869141" xlink:href="#DejaVuSans-48"/>
       <use x="254.492188" xlink:href="#DejaVuSans-45"/>
       <use x="290.576172" xlink:href="#DejaVuSans-48"/>
       <use x="354.199219" xlink:href="#DejaVuSans-55"/>
      </g>
     </g>
    </g>
    <g id="xtick_6">
     <g id="line2d_6">
      <g>
       <use style="stroke:#000000;stroke-width:0.8;" x="682.397168" xlink:href="#mf3f9a96409" y="378"/>
      </g>
     </g>
     <g id="text_6">
      <!-- 2020-10 -->
      <g transform="translate(648.970918 397.1575)scale(0.16 -0.16)">
       <use xlink:href="#DejaVuSans-50"/>
       <use x="63.623047" xlink:href="#DejaVuSans-48"/>
       <use x="127.246094" xlink:href="#DejaVuSans-50"/>
       <use x="190.869141" xlink:href="#DejaVuSans-48"/>
       <use x="254.492188" xlink:href="#DejaVuSans-45"/>
       <use x="290.576172" xlink:href="#DejaVuSans-49"/>
       <use x="354.199219" xlink:href="#DejaVuSans-48"/>
      </g>
     </g>
    </g>
    <g id="xtick_7">
     <g id="line2d_7">
      <g>
       <use style="stroke:#000000;stroke-width:0.8;" x="778.030551" xlink:href="#mf3f9a96409" y="378"/>
      </g>
     </g>
     <g id="text_7">
      <!-- 2021-01 -->
      <g transform="translate(744.604301 397.1575)scale(0.16 -0.16)">
       <use xlink:href="#DejaVuSans-50"/>
       <use x="63.623047" xlink:href="#DejaVuSans-48"/>
       <use x="127.246094" xlink:href="#DejaVuSans-50"/>
       <use x="190.869141" xlink:href="#DejaVuSans-49"/>
       <use x="254.492188" xlink:href="#DejaVuSans-45"/>
       <use x="290.576172" xlink:href="#DejaVuSans-48"/>
       <use x="354.199219" xlink:href="#DejaVuSans-49"/>
      </g>
     </g>
    </g>
    <g id="xtick_8">
     <g id="line2d_8">
      <g>
       <use style="stroke:#000000;stroke-width:0.8;" x="871.584948" xlink:href="#mf3f9a96409" y="378"/>
      </g>
     </g>
     <g id="text_8">
      <!-- 2021-04 -->
      <g transform="translate(838.158698 397.1575)scale(0.16 -0.16)">
       <use xlink:href="#DejaVuSans-50"/>
       <use x="63.623047" xlink:href="#DejaVuSans-48"/>
       <use x="127.246094" xlink:href="#DejaVuSans-50"/>
       <use x="190.869141" xlink:href="#DejaVuSans-49"/>
       <use x="254.492188" xlink:href="#DejaVuSans-45"/>
       <use x="290.576172" xlink:href="#DejaVuSans-48"/>
       <use x="354.199219" xlink:href="#DejaVuSans-52"/>
      </g>
     </g>
    </g>
    <g id="xtick_9">
     <g id="line2d_9">
      <g>
       <use style="stroke:#000000;stroke-width:0.8;" x="966.178838" xlink:href="#mf3f9a96409" y="378"/>
      </g>
     </g>
     <g id="text_9">
      <!-- 2021-07 -->
      <g transform="translate(932.752588 397.1575)scale(0.16 -0.16)">
       <use xlink:href="#DejaVuSans-50"/>
       <use x="63.623047" xlink:href="#DejaVuSans-48"/>
       <use x="127.246094" xlink:href="#DejaVuSans-50"/>
       <use x="190.869141" xlink:href="#DejaVuSans-49"/>
       <use x="254.492188" xlink:href="#DejaVuSans-45"/>
       <use x="290.576172" xlink:href="#DejaVuSans-48"/>
       <use x="354.199219" xlink:href="#DejaVuSans-55"/>
      </g>
     </g>
    </g>
    <g id="text_10">
     <!-- Date -->
     <defs>
      <path d="M 27.984375 58.6875 
L 27.984375 14.203125 
L 34.71875 14.203125 
Q 46.234375 14.203125 52.3125 19.921875 
Q 58.40625 25.640625 58.40625 36.53125 
Q 58.40625 47.359375 52.34375 53.015625 
Q 46.296875 58.6875 34.71875 58.6875 
z
M 9.1875 72.90625 
L 29 72.90625 
Q 45.609375 72.90625 53.734375 70.53125 
Q 61.859375 68.171875 67.671875 62.5 
Q 72.796875 57.5625 75.28125 51.109375 
Q 77.78125 44.671875 77.78125 36.53125 
Q 77.78125 28.265625 75.28125 21.796875 
Q 72.796875 15.328125 67.671875 10.40625 
Q 61.8125 4.734375 53.609375 2.359375 
Q 45.40625 0 29 0 
L 9.1875 0 
z
" id="DejaVuSans-Bold-68"/>
      <path d="M 32.90625 24.609375 
Q 27.4375 24.609375 24.671875 22.75 
Q 21.921875 20.90625 21.921875 17.28125 
Q 21.921875 13.96875 24.140625 12.078125 
Q 26.375 10.203125 30.328125 10.203125 
Q 35.25 10.203125 38.625 13.734375 
Q 42 17.28125 42 22.609375 
L 42 24.609375 
z
M 59.625 31.203125 
L 59.625 0 
L 42 0 
L 42 8.109375 
Q 38.484375 3.125 34.078125 0.84375 
Q 29.6875 -1.421875 23.390625 -1.421875 
Q 14.890625 -1.421875 9.59375 3.53125 
Q 4.296875 8.5 4.296875 16.40625 
Q 4.296875 26.03125 10.90625 30.515625 
Q 17.53125 35.015625 31.6875 35.015625 
L 42 35.015625 
L 42 36.375 
Q 42 40.53125 38.71875 42.453125 
Q 35.453125 44.390625 28.515625 44.390625 
Q 22.90625 44.390625 18.0625 43.265625 
Q 13.234375 42.140625 9.078125 39.890625 
L 9.078125 53.21875 
Q 14.703125 54.59375 20.359375 55.296875 
Q 26.03125 56 31.6875 56 
Q 46.484375 56 53.046875 50.171875 
Q 59.625 44.34375 59.625 31.203125 
z
" id="DejaVuSans-Bold-97"/>
      <path d="M 27.484375 70.21875 
L 27.484375 54.6875 
L 45.515625 54.6875 
L 45.515625 42.1875 
L 27.484375 42.1875 
L 27.484375 19 
Q 27.484375 15.1875 29 13.84375 
Q 30.515625 12.5 35.015625 12.5 
L 44 12.5 
L 44 0 
L 29 0 
Q 18.65625 0 14.328125 4.3125 
Q 10.015625 8.640625 10.015625 19 
L 10.015625 42.1875 
L 1.3125 42.1875 
L 1.3125 54.6875 
L 10.015625 54.6875 
L 10.015625 70.21875 
z
" id="DejaVuSans-Bold-116"/>
      <path d="M 62.984375 27.484375 
L 62.984375 22.515625 
L 22.125 22.515625 
Q 22.75 16.359375 26.5625 13.28125 
Q 30.375 10.203125 37.203125 10.203125 
Q 42.71875 10.203125 48.5 11.84375 
Q 54.296875 13.484375 60.40625 16.796875 
L 60.40625 3.328125 
Q 54.203125 0.984375 48 -0.21875 
Q 41.796875 -1.421875 35.59375 -1.421875 
Q 20.75 -1.421875 12.515625 6.125 
Q 4.296875 13.671875 4.296875 27.296875 
Q 4.296875 40.671875 12.375 48.328125 
Q 20.453125 56 34.625 56 
Q 47.515625 56 55.25 48.234375 
Q 62.984375 40.484375 62.984375 27.484375 
z
M 45.015625 33.296875 
Q 45.015625 38.28125 42.109375 41.328125 
Q 39.203125 44.390625 34.515625 44.390625 
Q 29.4375 44.390625 26.265625 41.53125 
Q 23.09375 38.671875 22.3125 33.296875 
z
" id="DejaVuSans-Bold-101"/>
     </defs>
     <g transform="translate(532.21 416.6425)scale(0.16 -0.16)">
      <use xlink:href="#DejaVuSans-Bold-68"/>
      <use x="83.007812" xlink:href="#DejaVuSans-Bold-97"/>
      <use x="150.488281" xlink:href="#DejaVuSans-Bold-116"/>
      <use x="198.291016" xlink:href="#DejaVuSans-Bold-101"/>
     </g>
    </g>
   </g>
   <g id="matplotlib.axis_2">
    <g id="ytick_1">
     <g id="line2d_10">
      <defs>
       <path d="M 0 0 
L -3.5 0 
" id="m8837b8a113" style="stroke:#000000;stroke-width:0.8;"/>
      </defs>
      <g>
       <use style="stroke:#000000;stroke-width:0.8;" x="135" xlink:href="#m8837b8a113" y="345.115301"/>
      </g>
     </g>
     <g id="text_11">
      <!-- 60000 -->
      <defs>
       <path d="M 33.015625 40.375 
Q 26.375 40.375 22.484375 35.828125 
Q 18.609375 31.296875 18.609375 23.390625 
Q 18.609375 15.53125 22.484375 10.953125 
Q 26.375 6.390625 33.015625 6.390625 
Q 39.65625 6.390625 43.53125 10.953125 
Q 47.40625 15.53125 47.40625 23.390625 
Q 47.40625 31.296875 43.53125 35.828125 
Q 39.65625 40.375 33.015625 40.375 
z
M 52.59375 71.296875 
L 52.59375 62.3125 
Q 48.875 64.0625 45.09375 64.984375 
Q 41.3125 65.921875 37.59375 65.921875 
Q 27.828125 65.921875 22.671875 59.328125 
Q 17.53125 52.734375 16.796875 39.40625 
Q 19.671875 43.65625 24.015625 45.921875 
Q 28.375 48.1875 33.59375 48.1875 
Q 44.578125 48.1875 50.953125 41.515625 
Q 57.328125 34.859375 57.328125 23.390625 
Q 57.328125 12.15625 50.6875 5.359375 
Q 44.046875 -1.421875 33.015625 -1.421875 
Q 20.359375 -1.421875 13.671875 8.265625 
Q 6.984375 17.96875 6.984375 36.375 
Q 6.984375 53.65625 15.1875 63.9375 
Q 23.390625 74.21875 37.203125 74.21875 
Q 40.921875 74.21875 44.703125 73.484375 
Q 48.484375 72.75 52.59375 71.296875 
z
" id="DejaVuSans-54"/>
      </defs>
      <g transform="translate(77.1 351.194051)scale(0.16 -0.16)">
       <use xlink:href="#DejaVuSans-54"/>
       <use x="63.623047" xlink:href="#DejaVuSans-48"/>
       <use x="127.246094" xlink:href="#DejaVuSans-48"/>
       <use x="190.869141" xlink:href="#DejaVuSans-48"/>
       <use x="254.492188" xlink:href="#DejaVuSans-48"/>
      </g>
     </g>
    </g>
    <g id="ytick_2">
     <g id="line2d_11">
      <g>
       <use style="stroke:#000000;stroke-width:0.8;" x="135" xlink:href="#m8837b8a113" y="302.178439"/>
      </g>
     </g>
     <g id="text_12">
      <!-- 80000 -->
      <defs>
       <path d="M 31.78125 34.625 
Q 24.75 34.625 20.71875 30.859375 
Q 16.703125 27.09375 16.703125 20.515625 
Q 16.703125 13.921875 20.71875 10.15625 
Q 24.75 6.390625 31.78125 6.390625 
Q 38.8125 6.390625 42.859375 10.171875 
Q 46.921875 13.96875 46.921875 20.515625 
Q 46.921875 27.09375 42.890625 30.859375 
Q 38.875 34.625 31.78125 34.625 
z
M 21.921875 38.8125 
Q 15.578125 40.375 12.03125 44.71875 
Q 8.5 49.078125 8.5 55.328125 
Q 8.5 64.0625 14.71875 69.140625 
Q 20.953125 74.21875 31.78125 74.21875 
Q 42.671875 74.21875 48.875 69.140625 
Q 55.078125 64.0625 55.078125 55.328125 
Q 55.078125 49.078125 51.53125 44.71875 
Q 48 40.375 41.703125 38.8125 
Q 48.828125 37.15625 52.796875 32.3125 
Q 56.78125 27.484375 56.78125 20.515625 
Q 56.78125 9.90625 50.3125 4.234375 
Q 43.84375 -1.421875 31.78125 -1.421875 
Q 19.734375 -1.421875 13.25 4.234375 
Q 6.78125 9.90625 6.78125 20.515625 
Q 6.78125 27.484375 10.78125 32.3125 
Q 14.796875 37.15625 21.921875 38.8125 
z
M 18.3125 54.390625 
Q 18.3125 48.734375 21.84375 45.5625 
Q 25.390625 42.390625 31.78125 42.390625 
Q 38.140625 42.390625 41.71875 45.5625 
Q 45.3125 48.734375 45.3125 54.390625 
Q 45.3125 60.0625 41.71875 63.234375 
Q 38.140625 66.40625 31.78125 66.40625 
Q 25.390625 66.40625 21.84375 63.234375 
Q 18.3125 60.0625 18.3125 54.390625 
z
" id="DejaVuSans-56"/>
      </defs>
      <g transform="translate(77.1 308.257189)scale(0.16 -0.16)">
       <use xlink:href="#DejaVuSans-56"/>
       <use x="63.623047" xlink:href="#DejaVuSans-48"/>
       <use x="127.246094" xlink:href="#DejaVuSans-48"/>
       <use x="190.869141" xlink:href="#DejaVuSans-48"/>
       <use x="254.492188" xlink:href="#DejaVuSans-48"/>
      </g>
     </g>
    </g>
    <g id="ytick_3">
     <g id="line2d_12">
      <g>
       <use style="stroke:#000000;stroke-width:0.8;" x="135" xlink:href="#m8837b8a113" y="259.241576"/>
      </g>
     </g>
     <g id="text_13">
      <!-- 100000 -->
      <g transform="translate(66.92 265.320326)scale(0.16 -0.16)">
       <use xlink:href="#DejaVuSans-49"/>
       <use x="63.623047" xlink:href="#DejaVuSans-48"/>
       <use x="127.246094" xlink:href="#DejaVuSans-48"/>
       <use x="190.869141" xlink:href="#DejaVuSans-48"/>
       <use x="254.492188" xlink:href="#DejaVuSans-48"/>
       <use x="318.115234" xlink:href="#DejaVuSans-48"/>
      </g>
     </g>
    </g>
    <g id="ytick_4">
     <g id="line2d_13">
      <g>
       <use style="stroke:#000000;stroke-width:0.8;" x="135" xlink:href="#m8837b8a113" y="216.304714"/>
      </g>
     </g>
     <g id="text_14">
      <!-- 120000 -->
      <g transform="translate(66.92 222.383464)scale(0.16 -0.16)">
       <use xlink:href="#DejaVuSans-49"/>
       <use x="63.623047" xlink:href="#DejaVuSans-50"/>
       <use x="127.246094" xlink:href="#DejaVuSans-48"/>
       <use x="190.869141" xlink:href="#DejaVuSans-48"/>
       <use x="254.492188" xlink:href="#DejaVuSans-48"/>
       <use x="318.115234" xlink:href="#DejaVuSans-48"/>
      </g>
     </g>
    </g>
    <g id="ytick_5">
     <g id="line2d_14">
      <g>
       <use style="stroke:#000000;stroke-width:0.8;" x="135" xlink:href="#m8837b8a113" y="173.367851"/>
      </g>
     </g>
     <g id="text_15">
      <!-- 140000 -->
      <g transform="translate(66.92 179.446601)scale(0.16 -0.16)">
       <use xlink:href="#DejaVuSans-49"/>
       <use x="63.623047" xlink:href="#DejaVuSans-52"/>
       <use x="127.246094" xlink:href="#DejaVuSans-48"/>
       <use x="190.869141" xlink:href="#DejaVuSans-48"/>
       <use x="254.492188" xlink:href="#DejaVuSans-48"/>
       <use x="318.115234" xlink:href="#DejaVuSans-48"/>
      </g>
     </g>
    </g>
    <g id="ytick_6">
     <g id="line2d_15">
      <g>
       <use style="stroke:#000000;stroke-width:0.8;" x="135" xlink:href="#m8837b8a113" y="130.430989"/>
      </g>
     </g>
     <g id="text_16">
      <!-- 160000 -->
      <g transform="translate(66.92 136.509739)scale(0.16 -0.16)">
       <use xlink:href="#DejaVuSans-49"/>
       <use x="63.623047" xlink:href="#DejaVuSans-54"/>
       <use x="127.246094" xlink:href="#DejaVuSans-48"/>
       <use x="190.869141" xlink:href="#DejaVuSans-48"/>
       <use x="254.492188" xlink:href="#DejaVuSans-48"/>
       <use x="318.115234" xlink:href="#DejaVuSans-48"/>
      </g>
     </g>
    </g>
    <g id="ytick_7">
     <g id="line2d_16">
      <g>
       <use style="stroke:#000000;stroke-width:0.8;" x="135" xlink:href="#m8837b8a113" y="87.494127"/>
      </g>
     </g>
     <g id="text_17">
      <!-- 180000 -->
      <g transform="translate(66.92 93.572877)scale(0.16 -0.16)">
       <use xlink:href="#DejaVuSans-49"/>
       <use x="63.623047" xlink:href="#DejaVuSans-56"/>
       <use x="127.246094" xlink:href="#DejaVuSans-48"/>
       <use x="190.869141" xlink:href="#DejaVuSans-48"/>
       <use x="254.492188" xlink:href="#DejaVuSans-48"/>
       <use x="318.115234" xlink:href="#DejaVuSans-48"/>
      </g>
     </g>
    </g>
    <g id="text_18">
     <!-- Total Electric Power Consumption/ KW -->
     <defs>
      <path d="M 0.484375 72.90625 
L 67.671875 72.90625 
L 67.671875 58.6875 
L 43.5 58.6875 
L 43.5 0 
L 24.703125 0 
L 24.703125 58.6875 
L 0.484375 58.6875 
z
" id="DejaVuSans-Bold-84"/>
      <path d="M 34.421875 43.5 
Q 28.609375 43.5 25.5625 39.328125 
Q 22.515625 35.15625 22.515625 27.296875 
Q 22.515625 19.4375 25.5625 15.25 
Q 28.609375 11.078125 34.421875 11.078125 
Q 40.140625 11.078125 43.15625 15.25 
Q 46.1875 19.4375 46.1875 27.296875 
Q 46.1875 35.15625 43.15625 39.328125 
Q 40.140625 43.5 34.421875 43.5 
z
M 34.421875 56 
Q 48.53125 56 56.46875 48.375 
Q 64.40625 40.765625 64.40625 27.296875 
Q 64.40625 13.8125 56.46875 6.1875 
Q 48.53125 -1.421875 34.421875 -1.421875 
Q 20.265625 -1.421875 12.28125 6.1875 
Q 4.296875 13.8125 4.296875 27.296875 
Q 4.296875 40.765625 12.28125 48.375 
Q 20.265625 56 34.421875 56 
z
" id="DejaVuSans-Bold-111"/>
      <path d="M 8.40625 75.984375 
L 25.875 75.984375 
L 25.875 0 
L 8.40625 0 
z
" id="DejaVuSans-Bold-108"/>
      <path id="DejaVuSans-Bold-32"/>
      <path d="M 9.1875 72.90625 
L 59.90625 72.90625 
L 59.90625 58.6875 
L 27.984375 58.6875 
L 27.984375 45.125 
L 58.015625 45.125 
L 58.015625 30.90625 
L 27.984375 30.90625 
L 27.984375 14.203125 
L 60.984375 14.203125 
L 60.984375 0 
L 9.1875 0 
z
" id="DejaVuSans-Bold-69"/>
      <path d="M 52.59375 52.984375 
L 52.59375 38.71875 
Q 49.03125 41.15625 45.4375 42.328125 
Q 41.84375 43.5 37.984375 43.5 
Q 30.671875 43.5 26.59375 39.234375 
Q 22.515625 34.96875 22.515625 27.296875 
Q 22.515625 19.625 26.59375 15.34375 
Q 30.671875 11.078125 37.984375 11.078125 
Q 42.09375 11.078125 45.78125 12.296875 
Q 49.46875 13.53125 52.59375 15.921875 
L 52.59375 1.609375 
Q 48.484375 0.09375 44.265625 -0.65625 
Q 40.046875 -1.421875 35.796875 -1.421875 
Q 21 -1.421875 12.640625 6.171875 
Q 4.296875 13.765625 4.296875 27.296875 
Q 4.296875 40.828125 12.640625 48.40625 
Q 21 56 35.796875 56 
Q 40.09375 56 44.265625 55.25 
Q 48.4375 54.5 52.59375 52.984375 
z
" id="DejaVuSans-Bold-99"/>
      <path d="M 49.03125 39.796875 
Q 46.734375 40.875 44.453125 41.375 
Q 42.1875 41.890625 39.890625 41.890625 
Q 33.15625 41.890625 29.515625 37.5625 
Q 25.875 33.25 25.875 25.203125 
L 25.875 0 
L 8.40625 0 
L 8.40625 54.6875 
L 25.875 54.6875 
L 25.875 45.703125 
Q 29.25 51.078125 33.609375 53.53125 
Q 37.984375 56 44.09375 56 
Q 44.96875 56 45.984375 55.921875 
Q 47.015625 55.859375 48.96875 55.609375 
z
" id="DejaVuSans-Bold-114"/>
      <path d="M 8.40625 54.6875 
L 25.875 54.6875 
L 25.875 0 
L 8.40625 0 
z
M 8.40625 75.984375 
L 25.875 75.984375 
L 25.875 61.71875 
L 8.40625 61.71875 
z
" id="DejaVuSans-Bold-105"/>
      <path d="M 9.1875 72.90625 
L 40.375 72.90625 
Q 54.296875 72.90625 61.734375 66.71875 
Q 69.1875 60.546875 69.1875 49.125 
Q 69.1875 37.640625 61.734375 31.46875 
Q 54.296875 25.296875 40.375 25.296875 
L 27.984375 25.296875 
L 27.984375 0 
L 9.1875 0 
z
M 27.984375 59.28125 
L 27.984375 38.921875 
L 38.375 38.921875 
Q 43.84375 38.921875 46.828125 41.578125 
Q 49.8125 44.234375 49.8125 49.125 
Q 49.8125 54 46.828125 56.640625 
Q 43.84375 59.28125 38.375 59.28125 
z
" id="DejaVuSans-Bold-80"/>
      <path d="M 3.515625 54.6875 
L 20.515625 54.6875 
L 29.6875 17 
L 38.921875 54.6875 
L 53.515625 54.6875 
L 62.703125 17.390625 
L 71.921875 54.6875 
L 88.921875 54.6875 
L 74.515625 0 
L 55.421875 0 
L 46.1875 37.59375 
L 37.015625 0 
L 17.921875 0 
z
" id="DejaVuSans-Bold-119"/>
      <path d="M 67 4 
Q 61.8125 1.3125 56.203125 -0.046875 
Q 50.59375 -1.421875 44.484375 -1.421875 
Q 26.265625 -1.421875 15.625 8.765625 
Q 4.984375 18.953125 4.984375 36.375 
Q 4.984375 53.859375 15.625 64.03125 
Q 26.265625 74.21875 44.484375 74.21875 
Q 50.59375 74.21875 56.203125 72.84375 
Q 61.8125 71.484375 67 68.796875 
L 67 53.71875 
Q 61.765625 57.28125 56.6875 58.9375 
Q 51.609375 60.59375 46 60.59375 
Q 35.9375 60.59375 30.171875 54.140625 
Q 24.421875 47.703125 24.421875 36.375 
Q 24.421875 25.09375 30.171875 18.640625 
Q 35.9375 12.203125 46 12.203125 
Q 51.609375 12.203125 56.6875 13.859375 
Q 61.765625 15.53125 67 19.09375 
z
" id="DejaVuSans-Bold-67"/>
      <path d="M 63.375 33.296875 
L 63.375 0 
L 45.796875 0 
L 45.796875 5.421875 
L 45.796875 25.484375 
Q 45.796875 32.5625 45.484375 35.25 
Q 45.171875 37.9375 44.390625 39.203125 
Q 43.359375 40.921875 41.59375 41.875 
Q 39.84375 42.828125 37.59375 42.828125 
Q 32.125 42.828125 29 38.59375 
Q 25.875 34.375 25.875 26.90625 
L 25.875 0 
L 8.40625 0 
L 8.40625 54.6875 
L 25.875 54.6875 
L 25.875 46.6875 
Q 29.828125 51.46875 34.265625 53.734375 
Q 38.71875 56 44.09375 56 
Q 53.5625 56 58.46875 50.1875 
Q 63.375 44.390625 63.375 33.296875 
z
" id="DejaVuSans-Bold-110"/>
      <path d="M 51.125 52.984375 
L 51.125 39.703125 
Q 45.515625 42.046875 40.28125 43.21875 
Q 35.0625 44.390625 30.421875 44.390625 
Q 25.4375 44.390625 23.015625 43.140625 
Q 20.609375 41.890625 20.609375 39.3125 
Q 20.609375 37.203125 22.4375 36.078125 
Q 24.265625 34.96875 29 34.421875 
L 32.078125 33.984375 
Q 45.515625 32.28125 50.140625 28.375 
Q 54.78125 24.46875 54.78125 16.109375 
Q 54.78125 7.375 48.328125 2.96875 
Q 41.890625 -1.421875 29.109375 -1.421875 
Q 23.6875 -1.421875 17.890625 -0.5625 
Q 12.109375 0.296875 6 2 
L 6 15.28125 
Q 11.234375 12.75 16.71875 11.46875 
Q 22.21875 10.203125 27.875 10.203125 
Q 33.015625 10.203125 35.59375 11.609375 
Q 38.1875 13.03125 38.1875 15.828125 
Q 38.1875 18.171875 36.40625 19.3125 
Q 34.625 20.453125 29.296875 21.09375 
L 26.21875 21.484375 
Q 14.546875 22.953125 9.859375 26.90625 
Q 5.171875 30.859375 5.171875 38.921875 
Q 5.171875 47.609375 11.125 51.796875 
Q 17.09375 56 29.390625 56 
Q 34.234375 56 39.546875 55.265625 
Q 44.875 54.546875 51.125 52.984375 
z
" id="DejaVuSans-Bold-115"/>
      <path d="M 7.8125 21.296875 
L 7.8125 54.6875 
L 25.390625 54.6875 
L 25.390625 49.21875 
Q 25.390625 44.78125 25.34375 38.0625 
Q 25.296875 31.34375 25.296875 29.109375 
Q 25.296875 22.515625 25.640625 19.609375 
Q 25.984375 16.703125 26.8125 15.375 
Q 27.875 13.671875 29.609375 12.734375 
Q 31.34375 11.8125 33.59375 11.8125 
Q 39.0625 11.8125 42.1875 16.015625 
Q 45.3125 20.21875 45.3125 27.6875 
L 45.3125 54.6875 
L 62.796875 54.6875 
L 62.796875 0 
L 45.3125 0 
L 45.3125 7.90625 
Q 41.359375 3.125 36.9375 0.84375 
Q 32.515625 -1.421875 27.203125 -1.421875 
Q 17.71875 -1.421875 12.765625 4.390625 
Q 7.8125 10.203125 7.8125 21.296875 
z
" id="DejaVuSans-Bold-117"/>
      <path d="M 59.078125 45.609375 
Q 62.40625 50.6875 66.96875 53.34375 
Q 71.53125 56 77 56 
Q 86.421875 56 91.359375 50.1875 
Q 96.296875 44.390625 96.296875 33.296875 
L 96.296875 0 
L 78.71875 0 
L 78.71875 28.515625 
Q 78.765625 29.15625 78.78125 29.828125 
Q 78.8125 30.515625 78.8125 31.78125 
Q 78.8125 37.59375 77.09375 40.203125 
Q 75.390625 42.828125 71.578125 42.828125 
Q 66.609375 42.828125 63.890625 38.71875 
Q 61.1875 34.625 61.078125 26.859375 
L 61.078125 0 
L 43.5 0 
L 43.5 28.515625 
Q 43.5 37.59375 41.9375 40.203125 
Q 40.375 42.828125 36.375 42.828125 
Q 31.34375 42.828125 28.609375 38.703125 
Q 25.875 34.578125 25.875 26.90625 
L 25.875 0 
L 8.296875 0 
L 8.296875 54.6875 
L 25.875 54.6875 
L 25.875 46.6875 
Q 29.109375 51.3125 33.28125 53.65625 
Q 37.453125 56 42.484375 56 
Q 48.140625 56 52.484375 53.265625 
Q 56.84375 50.53125 59.078125 45.609375 
z
" id="DejaVuSans-Bold-109"/>
      <path d="M 25.875 7.90625 
L 25.875 -20.796875 
L 8.40625 -20.796875 
L 8.40625 54.6875 
L 25.875 54.6875 
L 25.875 46.6875 
Q 29.5 51.46875 33.890625 53.734375 
Q 38.28125 56 44 56 
Q 54.109375 56 60.59375 47.96875 
Q 67.09375 39.9375 67.09375 27.296875 
Q 67.09375 14.65625 60.59375 6.609375 
Q 54.109375 -1.421875 44 -1.421875 
Q 38.28125 -1.421875 33.890625 0.84375 
Q 29.5 3.125 25.875 7.90625 
z
M 37.5 43.3125 
Q 31.890625 43.3125 28.875 39.1875 
Q 25.875 35.0625 25.875 27.296875 
Q 25.875 19.53125 28.875 15.40625 
Q 31.890625 11.28125 37.5 11.28125 
Q 43.109375 11.28125 46.0625 15.375 
Q 49.03125 19.484375 49.03125 27.296875 
Q 49.03125 35.109375 46.0625 39.203125 
Q 43.109375 43.3125 37.5 43.3125 
z
" id="DejaVuSans-Bold-112"/>
      <path d="M 25.6875 72.90625 
L 36.53125 72.90625 
L 10.796875 -9.28125 
L 0 -9.28125 
z
" id="DejaVuSans-Bold-47"/>
      <path d="M 9.1875 72.90625 
L 27.984375 72.90625 
L 27.984375 46.296875 
L 55.078125 72.90625 
L 76.90625 72.90625 
L 41.796875 38.375 
L 80.515625 0 
L 56.984375 0 
L 27.984375 28.71875 
L 27.984375 0 
L 9.1875 0 
z
" id="DejaVuSans-Bold-75"/>
      <path d="M 2.984375 72.90625 
L 21 72.90625 
L 33.59375 19.921875 
L 46.09375 72.90625 
L 64.203125 72.90625 
L 76.703125 19.921875 
L 89.3125 72.90625 
L 107.171875 72.90625 
L 89.984375 0 
L 68.3125 0 
L 55.078125 55.421875 
L 42 0 
L 20.3125 0 
z
" id="DejaVuSans-Bold-87"/>
     </defs>
     <g transform="translate(59.5925 387.99875)rotate(-90)scale(0.16 -0.16)">
      <use xlink:href="#DejaVuSans-Bold-84"/>
      <use x="68.009766" xlink:href="#DejaVuSans-Bold-111"/>
      <use x="136.710938" xlink:href="#DejaVuSans-Bold-116"/>
      <use x="184.513672" xlink:href="#DejaVuSans-Bold-97"/>
      <use x="251.994141" xlink:href="#DejaVuSans-Bold-108"/>
      <use x="286.271484" xlink:href="#DejaVuSans-Bold-32"/>
      <use x="321.085938" xlink:href="#DejaVuSans-Bold-69"/>
      <use x="389.396484" xlink:href="#DejaVuSans-Bold-108"/>
      <use x="423.673828" xlink:href="#DejaVuSans-Bold-101"/>
      <use x="491.496094" xlink:href="#DejaVuSans-Bold-99"/>
      <use x="550.773438" xlink:href="#DejaVuSans-Bold-116"/>
      <use x="598.576172" xlink:href="#DejaVuSans-Bold-114"/>
      <use x="647.892578" xlink:href="#DejaVuSans-Bold-105"/>
      <use x="682.169922" xlink:href="#DejaVuSans-Bold-99"/>
      <use x="741.447266" xlink:href="#DejaVuSans-Bold-32"/>
      <use x="776.261719" xlink:href="#DejaVuSans-Bold-80"/>
      <use x="849.552734" xlink:href="#DejaVuSans-Bold-111"/>
      <use x="918.253906" xlink:href="#DejaVuSans-Bold-119"/>
      <use x="1010.636719" xlink:href="#DejaVuSans-Bold-101"/>
      <use x="1078.458984" xlink:href="#DejaVuSans-Bold-114"/>
      <use x="1127.775391" xlink:href="#DejaVuSans-Bold-32"/>
      <use x="1162.589844" xlink:href="#DejaVuSans-Bold-67"/>
      <use x="1235.978516" xlink:href="#DejaVuSans-Bold-111"/>
      <use x="1304.679688" xlink:href="#DejaVuSans-Bold-110"/>
      <use x="1375.871094" xlink:href="#DejaVuSans-Bold-115"/>
      <use x="1435.392578" xlink:href="#DejaVuSans-Bold-117"/>
      <use x="1506.583984" xlink:href="#DejaVuSans-Bold-109"/>
      <use x="1610.783203" xlink:href="#DejaVuSans-Bold-112"/>
      <use x="1682.365234" xlink:href="#DejaVuSans-Bold-116"/>
      <use x="1730.167969" xlink:href="#DejaVuSans-Bold-105"/>
      <use x="1764.445312" xlink:href="#DejaVuSans-Bold-111"/>
      <use x="1833.146484" xlink:href="#DejaVuSans-Bold-110"/>
      <use x="1904.337891" xlink:href="#DejaVuSans-Bold-47"/>
      <use x="1940.861328" xlink:href="#DejaVuSans-Bold-32"/>
      <use x="1975.675781" xlink:href="#DejaVuSans-Bold-75"/>
      <use x="2053.166016" xlink:href="#DejaVuSans-Bold-87"/>
     </g>
    </g>
   </g>
   <g id="line2d_17">
    <path clip-path="url(#p3f68c3fc39)" d="M 173.045455 283.724175 
L 174.084948 290.061656 
L 175.124441 135.411665 
L 176.163934 216.330476 
L 177.203428 247.013158 
L 178.242921 251.341194 
L 179.282414 292.380247 
L 180.321908 282.178448 
L 181.361401 253.775714 
L 182.400894 269.619416 
L 183.440387 270.624138 
L 184.479881 257.485459 
L 185.519374 218.68771 
L 186.558867 226.300415 
L 187.598361 223.865895 
L 188.637854 282.371664 
L 189.677347 261.311133 
L 190.716841 261.658922 
L 191.756334 264.634446 
L 192.795827 277.386694 
L 193.83532 220.813084 
L 194.874814 224.175041 
L 195.914307 262.393142 
L 196.9538 245.312858 
L 197.993294 271.281072 
L 199.032787 246.472153 
L 200.07228 251.457123 
L 201.111773 283.530959 
L 202.151267 255.089582 
L 203.19076 206.553752 
L 204.230253 246.085722 
L 205.269747 248.945317 
L 206.30924 188.816534 
L 207.348733 274.449813 
L 208.388227 274.527099 
L 209.42772 273.329161 
L 210.467213 267.146253 
L 211.506706 271.087857 
L 212.5462 273.406447 
L 213.585693 276.266042 
L 214.625186 216.485049 
L 215.66468 147.159191 
L 216.704173 66.665455 
L 218.783159 160.375157 
L 219.822653 177.300868 
L 220.862146 215.093894 
L 221.901639 231.942319 
L 222.941133 239.168593 
L 223.980626 190.323618 
L 225.020119 282.44895 
L 226.059613 292.534819 
L 227.099106 290.254872 
L 228.138599 266.566605 
L 229.178092 275.26132 
L 230.217586 239.86417 
L 231.257079 181.165186 
L 232.296572 234.454126 
L 233.336066 202.109787 
L 234.375559 239.902813 
L 235.415052 246.858585 
L 236.454545 235.536134 
L 237.494039 251.534409 
L 238.533532 224.136398 
L 239.573025 277.000263 
L 240.612519 268.112332 
L 241.652012 288.013568 
L 242.691505 263.088719 
L 243.730999 254.509934 
L 245.809985 262.663644 
L 246.849478 286.506484 
L 247.888972 276.381972 
L 248.928465 295.974062 
L 249.967958 217.83756 
L 251.007452 196.467883 
L 252.046945 274.217954 
L 253.086438 262.199926 
L 254.125931 272.71087 
L 255.165425 281.637444 
L 256.204918 291.877885 
L 257.244411 285.926836 
L 258.283905 278.932421 
L 259.323398 244.462708 
L 260.362891 292.380247 
L 261.402385 289.520652 
L 262.441878 292.766678 
L 263.481371 291.761956 
L 264.520864 290.564017 
L 265.560358 280.86458 
L 266.599851 260.615556 
L 267.639344 225.836697 
L 268.678838 269.812632 
L 269.718331 269.580773 
L 270.757824 267.687257 
L 271.797317 247.322303 
L 272.836811 259.031186 
L 273.876304 283.646889 
L 274.915797 261.27249 
L 275.955291 257.678674 
L 276.994784 292.264317 
L 278.034277 281.328298 
L 279.07377 263.243292 
L 280.113264 266.489319 
L 282.19225 243.187483 
L 283.231744 278.043628 
L 284.271237 279.937144 
L 285.31073 285.11533 
L 286.350224 254.780436 
L 287.389717 247.979237 
L 288.42921 268.498764 
L 289.468703 234.415482 
L 290.508197 273.097302 
L 291.54769 285.385832 
L 292.587183 289.056934 
L 293.626677 277.69584 
L 294.66617 252.809634 
L 295.705663 265.986957 
L 296.745156 241.912259 
L 297.78465 260.615556 
L 298.824143 290.71859 
L 299.863636 256.326163 
L 300.90313 271.97665 
L 301.942623 252.577775 
L 302.982116 257.678674 
L 304.02161 267.300825 
L 305.061103 275.184033 
L 306.100596 190.053116 
L 307.140089 287.54985 
L 308.179583 279.16428 
L 309.219076 191.869345 
L 310.258569 270.508209 
L 311.298063 254.780436 
L 312.337556 255.089582 
L 313.377049 295.626273 
L 314.416542 286.004123 
L 315.456036 282.874025 
L 316.495529 277.000263 
L 317.535022 272.672227 
L 318.574516 283.492316 
L 319.614009 252.655062 
L 320.653502 296.167278 
L 321.692996 289.327436 
L 322.732489 252.229987 
L 323.771982 256.055661 
L 324.811475 248.172453 
L 325.850969 228.155288 
L 326.890462 252.384559 
L 327.929955 281.907946 
L 328.969449 224.793332 
L 330.008942 278.816492 
L 332.087928 270.855998 
L 333.127422 269.078411 
L 334.166915 215.712185 
L 335.206408 286.506484 
L 336.245902 168.142435 
L 337.285395 279.666642 
L 338.324888 288.902361 
L 339.364382 282.487594 
L 340.403875 285.84955 
L 341.443368 293.230397 
L 342.482861 298.563155 
L 343.522355 266.450675 
L 344.561848 278.236844 
L 345.601341 176.991723 
L 346.640835 256.983097 
L 347.680328 258.219679 
L 348.719821 258.412895 
L 349.759314 282.178448 
L 350.798808 288.670502 
L 351.838301 230.937597 
L 352.877794 263.204649 
L 353.917288 235.72935 
L 354.956781 234.531412 
L 355.996274 232.174178 
L 357.035768 276.72976 
L 358.075261 293.848687 
L 359.114754 201.800642 
L 360.154247 207.287973 
L 361.193741 209.68385 
L 362.233234 235.033773 
L 363.272727 229.816944 
L 364.312221 264.518517 
L 365.351714 274.102024 
L 366.391207 243.535272 
L 367.4307 260.345054 
L 368.470194 257.176313 
L 369.509687 267.107609 
L 370.54918 287.820352 
L 371.588674 287.54985 
L 372.628167 249.177176 
L 373.66766 247.670092 
L 374.707154 263.745653 
L 375.746647 228.928151 
L 376.78614 258.335608 
L 377.825633 256.210234 
L 378.865127 292.30296 
L 379.90462 284.767541 
L 380.944113 289.907083 
L 381.983607 237.932011 
L 383.0231 256.094304 
L 384.062593 237.816082 
L 385.102086 223.518107 
L 386.14158 291.993815 
L 387.181073 295.046626 
L 388.220566 170.345096 
L 389.26006 285.347189 
L 390.299553 298.679084 
L 391.339046 242.762408 
L 392.378539 272.981372 
L 393.418033 278.777849 
L 394.457526 263.436508 
L 395.497019 287.936281 
L 396.536513 279.086994 
L 397.576006 279.859858 
L 398.615499 270.469566 
L 399.654993 267.030323 
L 400.694486 278.236844 
L 401.733979 280.594078 
L 402.773472 277.232122 
L 403.812966 250.56833 
L 404.852459 242.066831 
L 405.891952 229.778301 
L 406.931446 252.229987 
L 407.970939 284.342466 
L 409.010432 270.121777 
L 411.089419 214.630176 
L 412.128912 258.490181 
L 413.168405 257.292243 
L 414.207899 223.672679 
L 415.247392 247.322303 
L 416.286885 251.804912 
L 417.326379 250.413757 
L 418.365872 238.627589 
L 419.405365 239.941457 
L 420.444858 240.443818 
L 421.484352 240.289245 
L 422.523845 262.045353 
L 423.563338 264.248014 
L 424.602832 283.144528 
L 425.642325 273.44509 
L 426.681818 204.69888 
L 427.721311 238.704875 
L 428.760805 241.332611 
L 429.800298 282.642166 
L 430.839791 264.789019 
L 431.879285 277.734483 
L 432.918778 232.058249 
L 433.958271 258.065106 
L 434.997765 237.352364 
L 436.037258 219.151428 
L 437.076751 285.153973 
L 438.116244 244.269492 
L 439.155738 214.475603 
L 440.195231 273.522377 
L 441.234724 248.752101 
L 442.274218 255.746516 
L 443.313711 251.30255 
L 444.353204 287.781709 
L 445.392697 288.4 
L 446.432191 233.951764 
L 447.471684 228.54172 
L 448.511177 191.869345 
L 449.550671 239.709598 
L 450.590164 261.233847 
L 451.629657 211.809224 
L 452.669151 285.038043 
L 453.708644 259.417617 
L 454.748137 239.091307 
L 455.78763 209.181488 
L 456.827124 226.84142 
L 457.866617 263.011433 
L 458.90611 283.144528 
L 459.945604 283.801462 
L 460.985097 218.262635 
L 462.02459 236.193068 
L 463.064083 203.423655 
L 464.103577 226.493631 
L 465.14307 262.586358 
L 466.182563 183.561063 
L 467.222057 280.516792 
L 468.26155 246.124365 
L 469.301043 245.776576 
L 470.340537 258.567468 
L 471.38003 261.233847 
L 472.419523 280.478148 
L 473.459016 275.14539 
L 474.49851 276.613831 
L 475.538003 262.818217 
L 476.577496 220.15615 
L 477.61699 195.888236 
L 478.656483 240.907536 
L 479.695976 245.969792 
L 480.735469 258.412895 
L 481.774963 275.686395 
L 482.814456 216.13726 
L 483.853949 213.239022 
L 484.893443 155.081042 
L 485.932936 196.081452 
L 486.972429 230.164733 
L 488.011923 255.591943 
L 489.051416 261.504349 
L 490.090909 248.442955 
L 491.130402 240.211959 
L 492.169896 236.193068 
L 493.209389 288.747788 
L 494.248882 260.42234 
L 495.288376 279.396139 
L 496.327869 266.759821 
L 497.367362 255.823802 
L 498.406855 227.614283 
L 499.446349 220.929014 
L 500.485842 249.640894 
L 501.525335 264.943592 
L 502.564829 273.058659 
L 503.604322 238.511659 
L 504.643815 210.41807 
L 505.683308 256.017018 
L 506.722802 197.163461 
L 507.762295 245.660647 
L 508.801788 224.561472 
L 509.841282 277.154835 
L 510.880775 293.771401 
L 511.920268 263.70701 
L 513.999255 230.12609 
L 515.038748 252.925564 
L 516.078241 227.189208 
L 517.117735 237.081862 
L 518.157228 268.69198 
L 519.196721 274.874888 
L 520.236215 235.922566 
L 521.275708 244.73321 
L 522.315201 247.863308 
L 523.354694 276.807047 
L 524.394188 267.378112 
L 525.433681 241.100752 
L 527.512668 250.259185 
L 528.552161 246.588083 
L 529.591654 173.513837 
L 530.631148 261.079274 
L 531.670641 293.075824 
L 532.710134 282.062519 
L 533.749627 208.640484 
L 534.789121 273.986095 
L 535.828614 293.925974 
L 536.868107 257.755961 
L 537.907601 282.44895 
L 538.947094 262.431785 
L 539.986587 267.532684 
L 541.02608 244.926426 
L 542.065574 206.28325 
L 543.105067 239.748241 
L 544.14456 251.688982 
L 545.184054 260.692842 
L 546.223547 268.305548 
L 547.26304 279.743928 
L 548.302534 240.250602 
L 549.342027 250.761546 
L 550.38152 257.446815 
L 551.421013 229.507799 
L 552.460507 230.280663 
L 553.5 254.973652 
L 554.539493 266.99168 
L 555.578987 220.851728 
L 556.61848 188.971107 
L 557.657973 215.557612 
L 558.697466 253.853 
L 559.73696 223.518107 
L 560.776453 258.799327 
L 561.815946 265.40731 
L 562.85544 222.165596 
L 563.894933 248.404312 
L 564.934426 240.443818 
L 565.97392 238.550302 
L 567.013413 194.303866 
L 568.052906 204.351091 
L 569.092399 246.085722 
L 570.131893 247.438233 
L 571.171386 233.256187 
L 572.210879 222.899816 
L 573.250373 240.752963 
L 574.289866 253.234709 
L 575.329359 255.43737 
L 576.368852 277.463981 
L 577.408346 267.609971 
L 578.447839 239.632311 
L 579.487332 231.401315 
L 580.526826 232.290108 
L 581.566319 251.766268 
L 582.605812 292.341603 
L 583.645306 287.743066 
L 584.684799 269.348914 
L 585.724292 255.862445 
L 586.763785 235.458848 
L 587.803279 240.405175 
L 588.842772 255.901088 
L 589.882265 284.922114 
L 590.921759 289.829797 
L 591.961252 202.728078 
L 593.000745 246.394867 
L 594.040238 207.558475 
L 595.079732 175.368709 
L 596.119225 248.327026 
L 597.158718 245.042356 
L 598.198212 290.83452 
L 599.237705 261.349776 
L 600.277198 195.424518 
L 601.316692 206.476466 
L 602.356185 224.522829 
L 603.395678 204.853453 
L 604.435171 255.089582 
L 605.474665 271.319716 
L 606.514158 240.173316 
L 607.553651 219.808362 
L 608.593145 261.233847 
L 609.632638 226.72549 
L 610.672131 266.87575 
L 611.711624 266.682535 
L 612.751118 274.643029 
L 613.790611 195.308588 
L 614.830104 242.530549 
L 615.869598 209.722493 
L 616.909091 255.089582 
L 617.948584 284.14925 
L 618.988077 259.340331 
L 620.027571 264.750376 
L 621.067064 275.570465 
L 622.106557 254.123502 
L 623.146051 210.263497 
L 624.185544 229.198654 
L 625.225037 251.920841 
L 626.264531 262.818217 
L 627.304024 264.093442 
L 628.343517 239.245879 
L 629.38301 237.893368 
L 630.422504 228.928151 
L 631.461997 249.563607 
L 632.50149 266.953037 
L 633.540984 271.590218 
L 634.580477 278.120915 
L 635.61997 258.219679 
L 636.659463 256.751238 
L 637.698957 163.350681 
L 638.73845 251.804912 
L 639.777943 208.71777 
L 640.817437 258.335608 
L 641.85693 225.759411 
L 642.896423 215.40304 
L 643.935917 243.728488 
L 644.97541 258.374252 
L 646.014903 249.486321 
L 647.054396 247.515519 
L 648.09389 287.897638 
L 649.133383 266.489319 
L 650.172876 229.16001 
L 651.21237 244.578638 
L 652.251863 256.983097 
L 653.291356 238.704875 
L 654.330849 239.323166 
L 655.370343 275.99554 
L 656.409836 282.178448 
L 657.449329 253.11878 
L 658.488823 231.555887 
L 659.528316 227.768856 
L 660.567809 261.233847 
L 661.607303 224.638759 
L 662.646796 270.469566 
L 663.686289 293.037181 
L 664.725782 242.29869 
L 665.765276 212.041083 
L 666.804769 235.922566 
L 667.844262 268.305548 
L 668.883756 258.953899 
L 669.923249 272.672227 
L 670.962742 279.048351 
L 672.002235 193.917434 
L 673.041729 236.5795 
L 674.081222 246.858585 
L 675.120715 245.274215 
L 676.160209 256.171591 
L 677.199702 259.765406 
L 678.239195 273.599663 
L 679.278689 223.170318 
L 680.318182 229.391869 
L 681.357675 256.905811 
L 682.397168 248.945317 
L 683.436662 256.248877 
L 684.476155 206.631039 
L 685.515648 246.085722 
L 686.555142 218.803639 
L 687.594635 237.54558 
L 688.634128 246.665369 
L 689.673621 238.318443 
L 690.713115 240.173316 
L 691.752608 238.550302 
L 692.792101 243.380699 
L 693.831595 193.724218 
L 694.871088 242.916981 
L 695.910581 249.254462 
L 696.950075 209.104202 
L 697.989568 234.801914 
L 699.029061 283.685532 
L 700.068554 271.397002 
L 701.108048 179.619459 
L 702.147541 263.822939 
L 703.187034 287.858995 
L 704.226528 263.70701 
L 705.266021 282.680809 
L 706.305514 284.767541 
L 707.345007 282.796739 
L 708.384501 196.970245 
L 709.423994 168.644797 
L 710.463487 147.816125 
L 711.502981 157.283703 
L 712.542474 163.737113 
L 713.581967 237.661509 
L 714.621461 198.709188 
L 715.660954 208.408625 
L 716.700447 202.959937 
L 717.73994 221.740521 
L 718.779434 194.187936 
L 719.818927 241.912259 
L 720.85842 269.889918 
L 721.897914 247.206374 
L 722.937407 250.954762 
L 723.9769 287.820352 
L 725.016393 233.256187 
L 726.055887 210.224854 
L 727.09538 263.359221 
L 728.134873 246.935871 
L 729.174367 220.503939 
L 730.21386 223.788609 
L 731.253353 242.028188 
L 732.292846 200.834562 
L 733.33234 182.015335 
L 734.371833 210.147568 
L 735.411326 208.524554 
L 736.45082 251.920841 
L 737.490313 243.303413 
L 738.529806 238.511659 
L 739.5693 239.593668 
L 740.608793 267.107609 
L 741.648286 257.87189 
L 742.687779 278.623276 
L 743.727273 292.380247 
L 744.766766 199.443408 
L 745.806259 221.895093 
L 746.845753 241.719043 
L 747.885246 257.640031 
L 748.924739 276.613831 
L 749.964232 248.558885 
L 751.003726 244.578638 
L 752.043219 268.807909 
L 753.082712 245.815219 
L 754.122206 199.288835 
L 755.161699 228.155288 
L 756.201192 221.624591 
L 757.240686 269.078411 
L 758.280179 249.795467 
L 759.319672 204.969382 
L 760.359165 190.284975 
L 761.398659 228.232574 
L 762.438152 208.756413 
L 763.477645 228.155288 
L 764.517139 240.096029 
L 765.556632 283.105884 
L 766.596125 241.56447 
L 767.635618 251.534409 
L 768.675112 192.989998 
L 769.714605 198.090897 
L 770.754098 232.096892 
L 771.793592 289.945727 
L 772.833085 285.347189 
L 773.872578 286.351911 
L 774.912072 265.445953 
L 775.951565 273.676949 
L 776.991058 249.022603 
L 778.030551 286.235982 
L 779.070045 269.078411 
L 780.109538 284.612968 
L 781.149031 194.072006 
L 782.188525 277.734483 
L 783.228018 281.096439 
L 784.267511 254.432648 
L 785.307004 270.508209 
L 786.346498 250.181898 
L 787.385991 253.041493 
L 788.425484 233.990407 
L 789.464978 276.150113 
L 790.504471 268.537407 
L 791.543964 249.061246 
L 792.583458 276.652474 
L 793.622951 268.846552 
L 794.662444 225.99127 
L 795.701937 229.121367 
L 796.741431 287.472563 
L 797.780924 257.060384 
L 798.820417 261.001988 
L 799.859911 286.235982 
L 800.899404 224.522829 
L 801.938897 227.073279 
L 802.97839 217.335199 
L 804.017884 245.312858 
L 805.057377 205.974105 
L 806.09687 242.801052 
L 807.136364 236.193068 
L 808.175857 226.300415 
L 809.21535 287.356634 
L 810.254844 255.823802 
L 811.294337 220.078864 
L 812.33383 226.145843 
L 813.373323 251.41848 
L 814.412817 254.200789 
L 815.45231 278.043628 
L 816.491803 289.907083 
L 817.531297 263.552437 
L 818.57079 242.685122 
L 819.610283 243.032911 
L 820.649776 230.01016 
L 821.68927 253.775714 
L 822.728763 267.609971 
L 823.768256 261.195203 
L 824.80775 189.12568 
L 825.847243 232.290108 
L 826.886736 232.56061 
L 827.92623 248.86803 
L 828.965723 254.046216 
L 830.005216 292.225674 
L 831.044709 258.83797 
L 832.084203 188.971107 
L 833.123696 207.790334 
L 834.163189 268.614693 
L 835.202683 239.439095 
L 836.242176 246.472153 
L 837.281669 262.740931 
L 838.321162 283.453673 
L 839.360656 181.667547 
L 840.400149 205.703602 
L 841.439642 205.896818 
L 842.479136 202.959937 
L 843.518629 186.072869 
L 844.558122 239.593668 
L 845.597615 245.892506 
L 846.637109 223.865895 
L 847.676602 197.318033 
L 849.755589 243.110197 
L 850.795082 245.080999 
L 851.834575 233.29483 
L 852.874069 283.569603 
L 853.913562 255.43737 
L 854.953055 213.470881 
L 855.992548 231.942319 
L 857.032042 222.358811 
L 858.071535 287.047488 
L 859.111028 289.559295 
L 860.150522 164.162188 
L 861.190015 251.225264 
L 862.229508 258.799327 
L 863.269001 202.225717 
L 864.308495 270.121777 
L 865.347988 256.171591 
L 866.387481 283.376387 
L 867.426975 284.844827 
L 868.466468 234.26091 
L 869.505961 205.317171 
L 870.545455 196.236024 
L 871.584948 276.807047 
L 872.624441 283.608246 
L 873.663934 282.951312 
L 874.703428 276.961619 
L 875.742921 221.083587 
L 876.782414 223.44082 
L 877.821908 250.065969 
L 878.861401 226.184486 
L 879.900894 176.334789 
L 880.940387 240.83025 
L 881.979881 261.852137 
L 883.019374 191.482914 
L 884.058867 246.085722 
L 885.098361 254.239432 
L 886.137854 255.205511 
L 887.177347 301.809182 
L 888.216841 363.174545 
L 889.256334 342.384517 
L 890.295827 281.212369 
L 891.33532 301.925111 
L 892.374814 268.653336 
L 893.414307 208.910986 
L 895.493294 298.060794 
L 896.532787 290.216229 
L 897.57228 240.598391 
L 898.611773 242.878338 
L 899.651267 237.352364 
L 900.69076 251.650339 
L 901.730253 345.862403 
L 903.80924 226.1072 
L 904.848733 242.878338 
L 905.888227 289.636581 
L 906.92772 87.996488 
L 907.967213 171.388462 
L 909.006706 194.574368 
L 910.0462 261.697565 
L 911.085693 234.531412 
L 912.125186 301.461393 
L 913.16468 298.756371 
L 914.204173 269.078411 
L 915.243666 279.975787 
L 916.283159 226.029913 
L 917.322653 273.020015 
L 918.362146 152.105517 
L 919.401639 302.736618 
L 920.441133 270.624138 
L 921.480626 285.540404 
L 922.520119 201.993858 
L 923.559613 232.637896 
L 924.599106 208.756413 
L 925.638599 298.717728 
L 926.678092 226.1072 
L 927.717586 249.640894 
L 928.757079 256.673952 
L 929.796572 211.345506 
L 930.836066 205.317171 
L 931.875559 76.635394 
L 932.915052 164.664549 
L 933.954545 290.332158 
L 933.954545 290.332158 
" style="fill:none;stroke:#1f77b4;stroke-linecap:square;stroke-width:1.5;"/>
   </g>
   <g id="patch_3">
    <path d="M 135 378 
L 135 51.84 
" style="fill:none;stroke:#000000;stroke-linecap:square;stroke-linejoin:miter;stroke-width:0.8;"/>
   </g>
   <g id="patch_4">
    <path d="M 972 378 
L 972 51.84 
" style="fill:none;stroke:#000000;stroke-linecap:square;stroke-linejoin:miter;stroke-width:0.8;"/>
   </g>
   <g id="patch_5">
    <path d="M 135 378 
L 972 378 
" style="fill:none;stroke:#000000;stroke-linecap:square;stroke-linejoin:miter;stroke-width:0.8;"/>
   </g>
   <g id="patch_6">
    <path d="M 135 51.84 
L 972 51.84 
" style="fill:none;stroke:#000000;stroke-linecap:square;stroke-linejoin:miter;stroke-width:0.8;"/>
   </g>
   <g id="text_19">
    <!-- Electric Power consumption over time for node c6601 -->
    <defs>
     <path d="M 1.515625 54.6875 
L 19 54.6875 
L 32.625 16.890625 
L 46.1875 54.6875 
L 63.71875 54.6875 
L 42.1875 0 
L 23 0 
z
" id="DejaVuSans-Bold-118"/>
     <path d="M 44.390625 75.984375 
L 44.390625 64.5 
L 34.71875 64.5 
Q 31 64.5 29.53125 63.15625 
Q 28.078125 61.8125 28.078125 58.5 
L 28.078125 54.6875 
L 43.015625 54.6875 
L 43.015625 42.1875 
L 28.078125 42.1875 
L 28.078125 0 
L 10.59375 0 
L 10.59375 42.1875 
L 1.90625 42.1875 
L 1.90625 54.6875 
L 10.59375 54.6875 
L 10.59375 58.5 
Q 10.59375 67.4375 15.578125 71.703125 
Q 20.5625 75.984375 31 75.984375 
z
" id="DejaVuSans-Bold-102"/>
     <path d="M 45.609375 46.6875 
L 45.609375 75.984375 
L 63.1875 75.984375 
L 63.1875 0 
L 45.609375 0 
L 45.609375 7.90625 
Q 42 3.078125 37.640625 0.828125 
Q 33.296875 -1.421875 27.59375 -1.421875 
Q 17.484375 -1.421875 10.984375 6.609375 
Q 4.5 14.65625 4.5 27.296875 
Q 4.5 39.9375 10.984375 47.96875 
Q 17.484375 56 27.59375 56 
Q 33.25 56 37.625 53.734375 
Q 42 51.46875 45.609375 46.6875 
z
M 34.078125 11.28125 
Q 39.703125 11.28125 42.65625 15.375 
Q 45.609375 19.484375 45.609375 27.296875 
Q 45.609375 35.109375 42.65625 39.203125 
Q 39.703125 43.3125 34.078125 43.3125 
Q 28.515625 43.3125 25.5625 39.203125 
Q 22.609375 35.109375 22.609375 27.296875 
Q 22.609375 19.484375 25.5625 15.375 
Q 28.515625 11.28125 34.078125 11.28125 
z
" id="DejaVuSans-Bold-100"/>
     <path d="M 36.1875 35.984375 
Q 31.25 35.984375 28.78125 32.78125 
Q 26.3125 29.59375 26.3125 23.1875 
Q 26.3125 16.796875 28.78125 13.59375 
Q 31.25 10.40625 36.1875 10.40625 
Q 41.15625 10.40625 43.625 13.59375 
Q 46.09375 16.796875 46.09375 23.1875 
Q 46.09375 29.59375 43.625 32.78125 
Q 41.15625 35.984375 36.1875 35.984375 
z
M 59.421875 71 
L 59.421875 57.515625 
Q 54.78125 59.71875 50.671875 60.765625 
Q 46.578125 61.8125 42.671875 61.8125 
Q 34.28125 61.8125 29.59375 57.140625 
Q 24.90625 52.484375 24.125 43.3125 
Q 27.34375 45.703125 31.09375 46.890625 
Q 34.859375 48.09375 39.3125 48.09375 
Q 50.484375 48.09375 57.34375 41.546875 
Q 64.203125 35.015625 64.203125 24.421875 
Q 64.203125 12.703125 56.53125 5.640625 
Q 48.875 -1.421875 35.984375 -1.421875 
Q 21.78125 -1.421875 13.984375 8.171875 
Q 6.203125 17.78125 6.203125 35.40625 
Q 6.203125 53.46875 15.3125 63.796875 
Q 24.421875 74.125 40.28125 74.125 
Q 45.3125 74.125 50.046875 73.34375 
Q 54.78125 72.5625 59.421875 71 
z
" id="DejaVuSans-Bold-54"/>
     <path d="M 46 36.53125 
Q 46 50.203125 43.4375 55.78125 
Q 40.875 61.375 34.8125 61.375 
Q 28.765625 61.375 26.171875 55.78125 
Q 23.578125 50.203125 23.578125 36.53125 
Q 23.578125 22.703125 26.171875 17.03125 
Q 28.765625 11.375 34.8125 11.375 
Q 40.828125 11.375 43.40625 17.03125 
Q 46 22.703125 46 36.53125 
z
M 64.796875 36.375 
Q 64.796875 18.265625 56.984375 8.421875 
Q 49.171875 -1.421875 34.8125 -1.421875 
Q 20.40625 -1.421875 12.59375 8.421875 
Q 4.78125 18.265625 4.78125 36.375 
Q 4.78125 54.546875 12.59375 64.375 
Q 20.40625 74.21875 34.8125 74.21875 
Q 49.171875 74.21875 56.984375 64.375 
Q 64.796875 54.546875 64.796875 36.375 
z
" id="DejaVuSans-Bold-48"/>
     <path d="M 11.71875 12.984375 
L 28.328125 12.984375 
L 28.328125 60.109375 
L 11.28125 56.59375 
L 11.28125 69.390625 
L 28.21875 72.90625 
L 46.09375 72.90625 
L 46.09375 12.984375 
L 62.703125 12.984375 
L 62.703125 0 
L 11.71875 0 
z
" id="DejaVuSans-Bold-49"/>
    </defs>
    <g transform="translate(250.823438 45.84)scale(0.2 -0.2)">
     <use xlink:href="#DejaVuSans-Bold-69"/>
     <use x="68.310547" xlink:href="#DejaVuSans-Bold-108"/>
     <use x="102.587891" xlink:href="#DejaVuSans-Bold-101"/>
     <use x="170.410156" xlink:href="#DejaVuSans-Bold-99"/>
     <use x="229.6875" xlink:href="#DejaVuSans-Bold-116"/>
     <use x="277.490234" xlink:href="#DejaVuSans-Bold-114"/>
     <use x="326.806641" xlink:href="#DejaVuSans-Bold-105"/>
     <use x="361.083984" xlink:href="#DejaVuSans-Bold-99"/>
     <use x="420.361328" xlink:href="#DejaVuSans-Bold-32"/>
     <use x="455.175781" xlink:href="#DejaVuSans-Bold-80"/>
     <use x="528.466797" xlink:href="#DejaVuSans-Bold-111"/>
     <use x="597.167969" xlink:href="#DejaVuSans-Bold-119"/>
     <use x="689.550781" xlink:href="#DejaVuSans-Bold-101"/>
     <use x="757.373047" xlink:href="#DejaVuSans-Bold-114"/>
     <use x="806.689453" xlink:href="#DejaVuSans-Bold-32"/>
     <use x="841.503906" xlink:href="#DejaVuSans-Bold-99"/>
     <use x="900.78125" xlink:href="#DejaVuSans-Bold-111"/>
     <use x="969.482422" xlink:href="#DejaVuSans-Bold-110"/>
     <use x="1040.673828" xlink:href="#DejaVuSans-Bold-115"/>
     <use x="1100.195312" xlink:href="#DejaVuSans-Bold-117"/>
     <use x="1171.386719" xlink:href="#DejaVuSans-Bold-109"/>
     <use x="1275.585938" xlink:href="#DejaVuSans-Bold-112"/>
     <use x="1347.167969" xlink:href="#DejaVuSans-Bold-116"/>
     <use x="1394.970703" xlink:href="#DejaVuSans-Bold-105"/>
     <use x="1429.248047" xlink:href="#DejaVuSans-Bold-111"/>
     <use x="1497.949219" xlink:href="#DejaVuSans-Bold-110"/>
     <use x="1569.140625" xlink:href="#DejaVuSans-Bold-32"/>
     <use x="1603.955078" xlink:href="#DejaVuSans-Bold-111"/>
     <use x="1672.65625" xlink:href="#DejaVuSans-Bold-118"/>
     <use x="1737.841797" xlink:href="#DejaVuSans-Bold-101"/>
     <use x="1805.664062" xlink:href="#DejaVuSans-Bold-114"/>
     <use x="1854.980469" xlink:href="#DejaVuSans-Bold-32"/>
     <use x="1889.794922" xlink:href="#DejaVuSans-Bold-116"/>
     <use x="1937.597656" xlink:href="#DejaVuSans-Bold-105"/>
     <use x="1971.875" xlink:href="#DejaVuSans-Bold-109"/>
     <use x="2076.074219" xlink:href="#DejaVuSans-Bold-101"/>
     <use x="2143.896484" xlink:href="#DejaVuSans-Bold-32"/>
     <use x="2178.710938" xlink:href="#DejaVuSans-Bold-102"/>
     <use x="2222.216797" xlink:href="#DejaVuSans-Bold-111"/>
     <use x="2290.917969" xlink:href="#DejaVuSans-Bold-114"/>
     <use x="2340.234375" xlink:href="#DejaVuSans-Bold-32"/>
     <use x="2375.048828" xlink:href="#DejaVuSans-Bold-110"/>
     <use x="2446.240234" xlink:href="#DejaVuSans-Bold-111"/>
     <use x="2514.941406" xlink:href="#DejaVuSans-Bold-100"/>
     <use x="2586.523438" xlink:href="#DejaVuSans-Bold-101"/>
     <use x="2654.345703" xlink:href="#DejaVuSans-Bold-32"/>
     <use x="2689.160156" xlink:href="#DejaVuSans-Bold-99"/>
     <use x="2748.4375" xlink:href="#DejaVuSans-Bold-54"/>
     <use x="2818.017578" xlink:href="#DejaVuSans-Bold-54"/>
     <use x="2887.597656" xlink:href="#DejaVuSans-Bold-48"/>
     <use x="2957.177734" xlink:href="#DejaVuSans-Bold-49"/>
    </g>
   </g>
  </g>
 </g>
 <defs>
  <clipPath id="p3f68c3fc39">
   <rect height="326.16" width="837" x="135" y="51.84"/>
  </clipPath>
 </defs>
</svg>
