<?xml version="1.0" encoding="utf-8" standalone="no"?>
<!DOCTYPE svg PUBLIC "-//W3C//DTD SVG 1.1//EN"
  "http://www.w3.org/Graphics/SVG/1.1/DTD/svg11.dtd">
<svg xmlns:xlink="http://www.w3.org/1999/xlink" width="1080pt" height="432pt" viewBox="0 0 1080 432" xmlns="http://www.w3.org/2000/svg" version="1.1">
 <metadata>
  <rdf:RDF xmlns:dc="http://purl.org/dc/elements/1.1/" xmlns:cc="http://creativecommons.org/ns#" xmlns:rdf="http://www.w3.org/1999/02/22-rdf-syntax-ns#">
   <cc:Work>
    <dc:type rdf:resource="http://purl.org/dc/dcmitype/StillImage"/>
    <dc:date>2023-08-07T19:26:20.316278</dc:date>
    <dc:format>image/svg+xml</dc:format>
    <dc:creator>
     <cc:Agent>
      <dc:title>Matplotlib v3.7.1, https://matplotlib.org/</dc:title>
     </cc:Agent>
    </dc:creator>
   </cc:Work>
  </rdf:RDF>
 </metadata>
 <defs>
  <style type="text/css">*{stroke-linejoin: round; stroke-linecap: butt}</style>
 </defs>
 <g id="figure_1">
  <g id="patch_1">
   <path d="M 0 432 
L 1080 432 
L 1080 0 
L 0 0 
z
" style="fill: #ffffff"/>
  </g>
  <g id="axes_1">
   <g id="patch_2">
    <path d="M 135 384.48 
L 972 384.48 
L 972 51.84 
L 135 51.84 
z
" style="fill: #ffffff"/>
   </g>
   <g id="matplotlib.axis_1">
    <g id="xtick_1">
     <g id="line2d_1">
      <path d="M 289.362768 384.48 
L 289.362768 51.84 
" clip-path="url(#p30a785bb15)" style="fill: none; stroke: #cccccc; stroke-width: 0.8; stroke-linecap: round"/>
     </g>
     <g id="text_1">
      <!-- 2021-04-01 -->
      <g style="fill: #262626" transform="translate(242.870268 403.6375) scale(0.16 -0.16)">
       <defs>
        <path id="DejaVuSans-32" d="M 1228 531 
L 3431 531 
L 3431 0 
L 469 0 
L 469 531 
Q 828 903 1448 1529 
Q 2069 2156 2228 2338 
Q 2531 2678 2651 2914 
Q 2772 3150 2772 3378 
Q 2772 3750 2511 3984 
Q 2250 4219 1831 4219 
Q 1534 4219 1204 4116 
Q 875 4013 500 3803 
L 500 4441 
Q 881 4594 1212 4672 
Q 1544 4750 1819 4750 
Q 2544 4750 2975 4387 
Q 3406 4025 3406 3419 
Q 3406 3131 3298 2873 
Q 3191 2616 2906 2266 
Q 2828 2175 2409 1742 
Q 1991 1309 1228 531 
z
" transform="scale(0.015625)"/>
        <path id="DejaVuSans-30" d="M 2034 4250 
Q 1547 4250 1301 3770 
Q 1056 3291 1056 2328 
Q 1056 1369 1301 889 
Q 1547 409 2034 409 
Q 2525 409 2770 889 
Q 3016 1369 3016 2328 
Q 3016 3291 2770 3770 
Q 2525 4250 2034 4250 
z
M 2034 4750 
Q 2819 4750 3233 4129 
Q 3647 3509 3647 2328 
Q 3647 1150 3233 529 
Q 2819 -91 2034 -91 
Q 1250 -91 836 529 
Q 422 1150 422 2328 
Q 422 3509 836 4129 
Q 1250 4750 2034 4750 
z
" transform="scale(0.015625)"/>
        <path id="DejaVuSans-31" d="M 794 531 
L 1825 531 
L 1825 4091 
L 703 3866 
L 703 4441 
L 1819 4666 
L 2450 4666 
L 2450 531 
L 3481 531 
L 3481 0 
L 794 0 
L 794 531 
z
" transform="scale(0.015625)"/>
        <path id="DejaVuSans-2d" d="M 313 2009 
L 1997 2009 
L 1997 1497 
L 313 1497 
L 313 2009 
z
" transform="scale(0.015625)"/>
        <path id="DejaVuSans-34" d="M 2419 4116 
L 825 1625 
L 2419 1625 
L 2419 4116 
z
M 2253 4666 
L 3047 4666 
L 3047 1625 
L 3713 1625 
L 3713 1100 
L 3047 1100 
L 3047 0 
L 2419 0 
L 2419 1100 
L 313 1100 
L 313 1709 
L 2253 4666 
z
" transform="scale(0.015625)"/>
       </defs>
       <use xlink:href="#DejaVuSans-32"/>
       <use xlink:href="#DejaVuSans-30" x="63.623047"/>
       <use xlink:href="#DejaVuSans-32" x="127.246094"/>
       <use xlink:href="#DejaVuSans-31" x="190.869141"/>
       <use xlink:href="#DejaVuSans-2d" x="254.492188"/>
       <use xlink:href="#DejaVuSans-30" x="290.576172"/>
       <use xlink:href="#DejaVuSans-34" x="354.199219"/>
       <use xlink:href="#DejaVuSans-2d" x="417.822266"/>
       <use xlink:href="#DejaVuSans-30" x="453.90625"/>
       <use xlink:href="#DejaVuSans-31" x="517.529297"/>
      </g>
     </g>
    </g>
    <g id="xtick_2">
     <g id="line2d_2">
      <path d="M 437.402985 384.48 
L 437.402985 51.84 
" clip-path="url(#p30a785bb15)" style="fill: none; stroke: #cccccc; stroke-width: 0.8; stroke-linecap: round"/>
     </g>
     <g id="text_2">
      <!-- 2021-04-15 -->
      <g style="fill: #262626" transform="translate(390.910485 403.6375) scale(0.16 -0.16)">
       <defs>
        <path id="DejaVuSans-35" d="M 691 4666 
L 3169 4666 
L 3169 4134 
L 1269 4134 
L 1269 2991 
Q 1406 3038 1543 3061 
Q 1681 3084 1819 3084 
Q 2600 3084 3056 2656 
Q 3513 2228 3513 1497 
Q 3513 744 3044 326 
Q 2575 -91 1722 -91 
Q 1428 -91 1123 -41 
Q 819 9 494 109 
L 494 744 
Q 775 591 1075 516 
Q 1375 441 1709 441 
Q 2250 441 2565 725 
Q 2881 1009 2881 1497 
Q 2881 1984 2565 2268 
Q 2250 2553 1709 2553 
Q 1456 2553 1204 2497 
Q 953 2441 691 2322 
L 691 4666 
z
" transform="scale(0.015625)"/>
       </defs>
       <use xlink:href="#DejaVuSans-32"/>
       <use xlink:href="#DejaVuSans-30" x="63.623047"/>
       <use xlink:href="#DejaVuSans-32" x="127.246094"/>
       <use xlink:href="#DejaVuSans-31" x="190.869141"/>
       <use xlink:href="#DejaVuSans-2d" x="254.492188"/>
       <use xlink:href="#DejaVuSans-30" x="290.576172"/>
       <use xlink:href="#DejaVuSans-34" x="354.199219"/>
       <use xlink:href="#DejaVuSans-2d" x="417.822266"/>
       <use xlink:href="#DejaVuSans-31" x="453.90625"/>
       <use xlink:href="#DejaVuSans-35" x="517.529297"/>
      </g>
     </g>
    </g>
    <g id="xtick_3">
     <g id="line2d_3">
      <path d="M 606.591804 384.48 
L 606.591804 51.84 
" clip-path="url(#p30a785bb15)" style="fill: none; stroke: #cccccc; stroke-width: 0.8; stroke-linecap: round"/>
     </g>
     <g id="text_3">
      <!-- 2021-05-01 -->
      <g style="fill: #262626" transform="translate(560.099304 403.6375) scale(0.16 -0.16)">
       <use xlink:href="#DejaVuSans-32"/>
       <use xlink:href="#DejaVuSans-30" x="63.623047"/>
       <use xlink:href="#DejaVuSans-32" x="127.246094"/>
       <use xlink:href="#DejaVuSans-31" x="190.869141"/>
       <use xlink:href="#DejaVuSans-2d" x="254.492188"/>
       <use xlink:href="#DejaVuSans-30" x="290.576172"/>
       <use xlink:href="#DejaVuSans-35" x="354.199219"/>
       <use xlink:href="#DejaVuSans-2d" x="417.822266"/>
       <use xlink:href="#DejaVuSans-30" x="453.90625"/>
       <use xlink:href="#DejaVuSans-31" x="517.529297"/>
      </g>
     </g>
    </g>
    <g id="xtick_4">
     <g id="line2d_4">
      <path d="M 754.632021 384.48 
L 754.632021 51.84 
" clip-path="url(#p30a785bb15)" style="fill: none; stroke: #cccccc; stroke-width: 0.8; stroke-linecap: round"/>
     </g>
     <g id="text_4">
      <!-- 2021-05-15 -->
      <g style="fill: #262626" transform="translate(708.139521 403.6375) scale(0.16 -0.16)">
       <use xlink:href="#DejaVuSans-32"/>
       <use xlink:href="#DejaVuSans-30" x="63.623047"/>
       <use xlink:href="#DejaVuSans-32" x="127.246094"/>
       <use xlink:href="#DejaVuSans-31" x="190.869141"/>
       <use xlink:href="#DejaVuSans-2d" x="254.492188"/>
       <use xlink:href="#DejaVuSans-30" x="290.576172"/>
       <use xlink:href="#DejaVuSans-35" x="354.199219"/>
       <use xlink:href="#DejaVuSans-2d" x="417.822266"/>
       <use xlink:href="#DejaVuSans-31" x="453.90625"/>
       <use xlink:href="#DejaVuSans-35" x="517.529297"/>
      </g>
     </g>
    </g>
    <g id="xtick_5">
     <g id="line2d_5">
      <path d="M 934.395141 384.48 
L 934.395141 51.84 
" clip-path="url(#p30a785bb15)" style="fill: none; stroke: #cccccc; stroke-width: 0.8; stroke-linecap: round"/>
     </g>
     <g id="text_5">
      <!-- 2021-06-01 -->
      <g style="fill: #262626" transform="translate(887.902641 403.6375) scale(0.16 -0.16)">
       <defs>
        <path id="DejaVuSans-36" d="M 2113 2584 
Q 1688 2584 1439 2293 
Q 1191 2003 1191 1497 
Q 1191 994 1439 701 
Q 1688 409 2113 409 
Q 2538 409 2786 701 
Q 3034 994 3034 1497 
Q 3034 2003 2786 2293 
Q 2538 2584 2113 2584 
z
M 3366 4563 
L 3366 3988 
Q 3128 4100 2886 4159 
Q 2644 4219 2406 4219 
Q 1781 4219 1451 3797 
Q 1122 3375 1075 2522 
Q 1259 2794 1537 2939 
Q 1816 3084 2150 3084 
Q 2853 3084 3261 2657 
Q 3669 2231 3669 1497 
Q 3669 778 3244 343 
Q 2819 -91 2113 -91 
Q 1303 -91 875 529 
Q 447 1150 447 2328 
Q 447 3434 972 4092 
Q 1497 4750 2381 4750 
Q 2619 4750 2861 4703 
Q 3103 4656 3366 4563 
z
" transform="scale(0.015625)"/>
       </defs>
       <use xlink:href="#DejaVuSans-32"/>
       <use xlink:href="#DejaVuSans-30" x="63.623047"/>
       <use xlink:href="#DejaVuSans-32" x="127.246094"/>
       <use xlink:href="#DejaVuSans-31" x="190.869141"/>
       <use xlink:href="#DejaVuSans-2d" x="254.492188"/>
       <use xlink:href="#DejaVuSans-30" x="290.576172"/>
       <use xlink:href="#DejaVuSans-36" x="354.199219"/>
       <use xlink:href="#DejaVuSans-2d" x="417.822266"/>
       <use xlink:href="#DejaVuSans-30" x="453.90625"/>
       <use xlink:href="#DejaVuSans-31" x="517.529297"/>
      </g>
     </g>
    </g>
    <g id="text_6">
     <!-- Tiempo -->
     <g style="fill: #262626" transform="translate(520.315 423.1225) scale(0.16 -0.16)">
      <defs>
       <path id="DejaVuSans-Bold-54" d="M 31 4666 
L 4331 4666 
L 4331 3756 
L 2784 3756 
L 2784 0 
L 1581 0 
L 1581 3756 
L 31 3756 
L 31 4666 
z
" transform="scale(0.015625)"/>
       <path id="DejaVuSans-Bold-69" d="M 538 3500 
L 1656 3500 
L 1656 0 
L 538 0 
L 538 3500 
z
M 538 4863 
L 1656 4863 
L 1656 3950 
L 538 3950 
L 538 4863 
z
" transform="scale(0.015625)"/>
       <path id="DejaVuSans-Bold-65" d="M 4031 1759 
L 4031 1441 
L 1416 1441 
Q 1456 1047 1700 850 
Q 1944 653 2381 653 
Q 2734 653 3104 758 
Q 3475 863 3866 1075 
L 3866 213 
Q 3469 63 3072 -14 
Q 2675 -91 2278 -91 
Q 1328 -91 801 392 
Q 275 875 275 1747 
Q 275 2603 792 3093 
Q 1309 3584 2216 3584 
Q 3041 3584 3536 3087 
Q 4031 2591 4031 1759 
z
M 2881 2131 
Q 2881 2450 2695 2645 
Q 2509 2841 2209 2841 
Q 1884 2841 1681 2658 
Q 1478 2475 1428 2131 
L 2881 2131 
z
" transform="scale(0.015625)"/>
       <path id="DejaVuSans-Bold-6d" d="M 3781 2919 
Q 3994 3244 4286 3414 
Q 4578 3584 4928 3584 
Q 5531 3584 5847 3212 
Q 6163 2841 6163 2131 
L 6163 0 
L 5038 0 
L 5038 1825 
Q 5041 1866 5042 1909 
Q 5044 1953 5044 2034 
Q 5044 2406 4934 2573 
Q 4825 2741 4581 2741 
Q 4263 2741 4089 2478 
Q 3916 2216 3909 1719 
L 3909 0 
L 2784 0 
L 2784 1825 
Q 2784 2406 2684 2573 
Q 2584 2741 2328 2741 
Q 2006 2741 1831 2477 
Q 1656 2213 1656 1722 
L 1656 0 
L 531 0 
L 531 3500 
L 1656 3500 
L 1656 2988 
Q 1863 3284 2130 3434 
Q 2397 3584 2719 3584 
Q 3081 3584 3359 3409 
Q 3638 3234 3781 2919 
z
" transform="scale(0.015625)"/>
       <path id="DejaVuSans-Bold-70" d="M 1656 506 
L 1656 -1331 
L 538 -1331 
L 538 3500 
L 1656 3500 
L 1656 2988 
Q 1888 3294 2169 3439 
Q 2450 3584 2816 3584 
Q 3463 3584 3878 3070 
Q 4294 2556 4294 1747 
Q 4294 938 3878 423 
Q 3463 -91 2816 -91 
Q 2450 -91 2169 54 
Q 1888 200 1656 506 
z
M 2400 2772 
Q 2041 2772 1848 2508 
Q 1656 2244 1656 1747 
Q 1656 1250 1848 986 
Q 2041 722 2400 722 
Q 2759 722 2948 984 
Q 3138 1247 3138 1747 
Q 3138 2247 2948 2509 
Q 2759 2772 2400 2772 
z
" transform="scale(0.015625)"/>
       <path id="DejaVuSans-Bold-6f" d="M 2203 2784 
Q 1831 2784 1636 2517 
Q 1441 2250 1441 1747 
Q 1441 1244 1636 976 
Q 1831 709 2203 709 
Q 2569 709 2762 976 
Q 2956 1244 2956 1747 
Q 2956 2250 2762 2517 
Q 2569 2784 2203 2784 
z
M 2203 3584 
Q 3106 3584 3614 3096 
Q 4122 2609 4122 1747 
Q 4122 884 3614 396 
Q 3106 -91 2203 -91 
Q 1297 -91 786 396 
Q 275 884 275 1747 
Q 275 2609 786 3096 
Q 1297 3584 2203 3584 
z
" transform="scale(0.015625)"/>
      </defs>
      <use xlink:href="#DejaVuSans-Bold-54"/>
      <use xlink:href="#DejaVuSans-Bold-69" x="68.212891"/>
      <use xlink:href="#DejaVuSans-Bold-65" x="102.490234"/>
      <use xlink:href="#DejaVuSans-Bold-6d" x="170.3125"/>
      <use xlink:href="#DejaVuSans-Bold-70" x="274.511719"/>
      <use xlink:href="#DejaVuSans-Bold-6f" x="346.09375"/>
     </g>
    </g>
   </g>
   <g id="matplotlib.axis_2">
    <g id="ytick_1">
     <g id="line2d_6">
      <path d="M 135 373.854003 
L 972 373.854003 
" clip-path="url(#p30a785bb15)" style="fill: none; stroke: #cccccc; stroke-width: 0.8; stroke-linecap: round"/>
     </g>
     <g id="text_7">
      <!-- 20 -->
      <g style="fill: #262626" transform="translate(107.64 379.932753) scale(0.16 -0.16)">
       <use xlink:href="#DejaVuSans-32"/>
       <use xlink:href="#DejaVuSans-30" x="63.623047"/>
      </g>
     </g>
    </g>
    <g id="ytick_2">
     <g id="line2d_7">
      <path d="M 135 320.041273 
L 972 320.041273 
" clip-path="url(#p30a785bb15)" style="fill: none; stroke: #cccccc; stroke-width: 0.8; stroke-linecap: round"/>
     </g>
     <g id="text_8">
      <!-- 40 -->
      <g style="fill: #262626" transform="translate(107.64 326.120023) scale(0.16 -0.16)">
       <use xlink:href="#DejaVuSans-34"/>
       <use xlink:href="#DejaVuSans-30" x="63.623047"/>
      </g>
     </g>
    </g>
    <g id="ytick_3">
     <g id="line2d_8">
      <path d="M 135 266.228542 
L 972 266.228542 
" clip-path="url(#p30a785bb15)" style="fill: none; stroke: #cccccc; stroke-width: 0.8; stroke-linecap: round"/>
     </g>
     <g id="text_9">
      <!-- 60 -->
      <g style="fill: #262626" transform="translate(107.64 272.307292) scale(0.16 -0.16)">
       <use xlink:href="#DejaVuSans-36"/>
       <use xlink:href="#DejaVuSans-30" x="63.623047"/>
      </g>
     </g>
    </g>
    <g id="ytick_4">
     <g id="line2d_9">
      <path d="M 135 212.415811 
L 972 212.415811 
" clip-path="url(#p30a785bb15)" style="fill: none; stroke: #cccccc; stroke-width: 0.8; stroke-linecap: round"/>
     </g>
     <g id="text_10">
      <!-- 80 -->
      <g style="fill: #262626" transform="translate(107.64 218.494561) scale(0.16 -0.16)">
       <defs>
        <path id="DejaVuSans-38" d="M 2034 2216 
Q 1584 2216 1326 1975 
Q 1069 1734 1069 1313 
Q 1069 891 1326 650 
Q 1584 409 2034 409 
Q 2484 409 2743 651 
Q 3003 894 3003 1313 
Q 3003 1734 2745 1975 
Q 2488 2216 2034 2216 
z
M 1403 2484 
Q 997 2584 770 2862 
Q 544 3141 544 3541 
Q 544 4100 942 4425 
Q 1341 4750 2034 4750 
Q 2731 4750 3128 4425 
Q 3525 4100 3525 3541 
Q 3525 3141 3298 2862 
Q 3072 2584 2669 2484 
Q 3125 2378 3379 2068 
Q 3634 1759 3634 1313 
Q 3634 634 3220 271 
Q 2806 -91 2034 -91 
Q 1263 -91 848 271 
Q 434 634 434 1313 
Q 434 1759 690 2068 
Q 947 2378 1403 2484 
z
M 1172 3481 
Q 1172 3119 1398 2916 
Q 1625 2713 2034 2713 
Q 2441 2713 2670 2916 
Q 2900 3119 2900 3481 
Q 2900 3844 2670 4047 
Q 2441 4250 2034 4250 
Q 1625 4250 1398 4047 
Q 1172 3844 1172 3481 
z
" transform="scale(0.015625)"/>
       </defs>
       <use xlink:href="#DejaVuSans-38"/>
       <use xlink:href="#DejaVuSans-30" x="63.623047"/>
      </g>
     </g>
    </g>
    <g id="ytick_5">
     <g id="line2d_10">
      <path d="M 135 158.603081 
L 972 158.603081 
" clip-path="url(#p30a785bb15)" style="fill: none; stroke: #cccccc; stroke-width: 0.8; stroke-linecap: round"/>
     </g>
     <g id="text_11">
      <!-- 100 -->
      <g style="fill: #262626" transform="translate(97.46 164.681831) scale(0.16 -0.16)">
       <use xlink:href="#DejaVuSans-31"/>
       <use xlink:href="#DejaVuSans-30" x="63.623047"/>
       <use xlink:href="#DejaVuSans-30" x="127.246094"/>
      </g>
     </g>
    </g>
    <g id="ytick_6">
     <g id="line2d_11">
      <path d="M 135 104.79035 
L 972 104.79035 
" clip-path="url(#p30a785bb15)" style="fill: none; stroke: #cccccc; stroke-width: 0.8; stroke-linecap: round"/>
     </g>
     <g id="text_12">
      <!-- 120 -->
      <g style="fill: #262626" transform="translate(97.46 110.8691) scale(0.16 -0.16)">
       <use xlink:href="#DejaVuSans-31"/>
       <use xlink:href="#DejaVuSans-32" x="63.623047"/>
       <use xlink:href="#DejaVuSans-30" x="127.246094"/>
      </g>
     </g>
    </g>
    <g id="text_13">
     <!-- Consumo/ kW -->
     <g style="fill: #262626" transform="translate(90.1325 279.3625) rotate(-90) scale(0.16 -0.16)">
      <defs>
       <path id="DejaVuSans-Bold-43" d="M 4288 256 
Q 3956 84 3597 -3 
Q 3238 -91 2847 -91 
Q 1681 -91 1000 561 
Q 319 1213 319 2328 
Q 319 3447 1000 4098 
Q 1681 4750 2847 4750 
Q 3238 4750 3597 4662 
Q 3956 4575 4288 4403 
L 4288 3438 
Q 3953 3666 3628 3772 
Q 3303 3878 2944 3878 
Q 2300 3878 1931 3465 
Q 1563 3053 1563 2328 
Q 1563 1606 1931 1193 
Q 2300 781 2944 781 
Q 3303 781 3628 887 
Q 3953 994 4288 1222 
L 4288 256 
z
" transform="scale(0.015625)"/>
       <path id="DejaVuSans-Bold-6e" d="M 4056 2131 
L 4056 0 
L 2931 0 
L 2931 347 
L 2931 1631 
Q 2931 2084 2911 2256 
Q 2891 2428 2841 2509 
Q 2775 2619 2662 2680 
Q 2550 2741 2406 2741 
Q 2056 2741 1856 2470 
Q 1656 2200 1656 1722 
L 1656 0 
L 538 0 
L 538 3500 
L 1656 3500 
L 1656 2988 
Q 1909 3294 2193 3439 
Q 2478 3584 2822 3584 
Q 3428 3584 3742 3212 
Q 4056 2841 4056 2131 
z
" transform="scale(0.015625)"/>
       <path id="DejaVuSans-Bold-73" d="M 3272 3391 
L 3272 2541 
Q 2913 2691 2578 2766 
Q 2244 2841 1947 2841 
Q 1628 2841 1473 2761 
Q 1319 2681 1319 2516 
Q 1319 2381 1436 2309 
Q 1553 2238 1856 2203 
L 2053 2175 
Q 2913 2066 3209 1816 
Q 3506 1566 3506 1031 
Q 3506 472 3093 190 
Q 2681 -91 1863 -91 
Q 1516 -91 1145 -36 
Q 775 19 384 128 
L 384 978 
Q 719 816 1070 734 
Q 1422 653 1784 653 
Q 2113 653 2278 743 
Q 2444 834 2444 1013 
Q 2444 1163 2330 1236 
Q 2216 1309 1875 1350 
L 1678 1375 
Q 931 1469 631 1722 
Q 331 1975 331 2491 
Q 331 3047 712 3315 
Q 1094 3584 1881 3584 
Q 2191 3584 2531 3537 
Q 2872 3491 3272 3391 
z
" transform="scale(0.015625)"/>
       <path id="DejaVuSans-Bold-75" d="M 500 1363 
L 500 3500 
L 1625 3500 
L 1625 3150 
Q 1625 2866 1622 2436 
Q 1619 2006 1619 1863 
Q 1619 1441 1641 1255 
Q 1663 1069 1716 984 
Q 1784 875 1895 815 
Q 2006 756 2150 756 
Q 2500 756 2700 1025 
Q 2900 1294 2900 1772 
L 2900 3500 
L 4019 3500 
L 4019 0 
L 2900 0 
L 2900 506 
Q 2647 200 2364 54 
Q 2081 -91 1741 -91 
Q 1134 -91 817 281 
Q 500 653 500 1363 
z
" transform="scale(0.015625)"/>
       <path id="DejaVuSans-Bold-2f" d="M 1644 4666 
L 2338 4666 
L 691 -594 
L 0 -594 
L 1644 4666 
z
" transform="scale(0.015625)"/>
       <path id="DejaVuSans-Bold-20" transform="scale(0.015625)"/>
       <path id="DejaVuSans-Bold-6b" d="M 538 4863 
L 1656 4863 
L 1656 2216 
L 2944 3500 
L 4244 3500 
L 2534 1894 
L 4378 0 
L 3022 0 
L 1656 1459 
L 1656 0 
L 538 0 
L 538 4863 
z
" transform="scale(0.015625)"/>
       <path id="DejaVuSans-Bold-57" d="M 191 4666 
L 1344 4666 
L 2150 1275 
L 2950 4666 
L 4109 4666 
L 4909 1275 
L 5716 4666 
L 6859 4666 
L 5759 0 
L 4372 0 
L 3525 3547 
L 2688 0 
L 1300 0 
L 191 4666 
z
" transform="scale(0.015625)"/>
      </defs>
      <use xlink:href="#DejaVuSans-Bold-43"/>
      <use xlink:href="#DejaVuSans-Bold-6f" x="73.388672"/>
      <use xlink:href="#DejaVuSans-Bold-6e" x="142.089844"/>
      <use xlink:href="#DejaVuSans-Bold-73" x="213.28125"/>
      <use xlink:href="#DejaVuSans-Bold-75" x="272.802734"/>
      <use xlink:href="#DejaVuSans-Bold-6d" x="343.994141"/>
      <use xlink:href="#DejaVuSans-Bold-6f" x="448.193359"/>
      <use xlink:href="#DejaVuSans-Bold-2f" x="516.894531"/>
      <use xlink:href="#DejaVuSans-Bold-20" x="553.417969"/>
      <use xlink:href="#DejaVuSans-Bold-6b" x="588.232422"/>
      <use xlink:href="#DejaVuSans-Bold-57" x="654.736328"/>
     </g>
    </g>
   </g>
   <g id="PolyCollection_1"/>
   <g id="line2d_12">
    <path d="M 173.045455 365.493811 
L 173.48605 366.874204 
L 173.926646 367.298779 
L 174.367242 366.744957 
L 174.807838 368.373433 
L 175.248434 369.36 
L 176.129626 365.759671 
L 176.570222 359.123729 
L 177.010817 292.738359 
L 177.451413 274.256409 
L 178.332605 221.9964 
L 178.773201 214.811758 
L 179.213797 197.612826 
L 179.654393 198.457816 
L 180.094989 197.908797 
L 180.535585 246.052134 
L 180.97618 262.665374 
L 181.857372 358.280343 
L 182.297968 358.100326 
L 182.738564 358.59361 
L 183.17916 359.314956 
L 183.619756 361.336136 
L 184.060352 362.659834 
L 184.500948 365.385705 
L 184.941543 364.702636 
L 185.822735 367.866697 
L 186.263331 368.212635 
L 186.703927 365.030958 
L 187.144523 345.610168 
L 188.025715 236.715622 
L 189.347502 162.114363 
L 189.788098 155.508846 
L 190.228694 161.858755 
L 190.66929 158.085132 
L 191.109886 177.459961 
L 191.550482 180.087814 
L 192.431673 266.789093 
L 193.312865 318.16904 
L 193.753461 358.145171 
L 194.194057 357.968036 
L 194.634653 358.58464 
L 195.075249 361.970359 
L 195.515845 362.533151 
L 195.95644 364.347087 
L 196.397036 365.367287 
L 196.837632 364.587003 
L 197.278228 360.542079 
L 197.718824 287.998032 
L 198.15942 289.805242 
L 198.600016 238.201077 
L 199.040612 202.292287 
L 199.481208 182.608042 
L 199.921803 191.576833 
L 200.362399 173.031614 
L 201.243591 196.731643 
L 201.684187 211.841806 
L 202.124783 206.128692 
L 202.565379 290.713336 
L 203.005975 274.345293 
L 203.446571 288.332121 
L 203.887166 266.174731 
L 204.327762 335.7232 
L 204.768358 309.117289 
L 205.208954 340.983394 
L 205.64955 324.810427 
L 206.090146 358.248312 
L 206.530742 357.136182 
L 206.971338 357.777449 
L 207.411933 345.088856 
L 208.293125 288.168439 
L 208.733721 344.732348 
L 209.174317 225.837604 
L 209.614913 263.988588 
L 210.055509 220.633462 
L 210.496105 220.319554 
L 210.936701 214.063828 
L 211.377296 193.928897 
L 211.817892 198.112833 
L 212.258488 212.388904 
L 212.699084 218.898001 
L 213.13968 296.365915 
L 213.580276 321.633234 
L 214.020872 357.474753 
L 214.461468 357.084611 
L 215.342659 359.589145 
L 215.783255 361.602637 
L 216.223851 362.418798 
L 216.664447 366.488386 
L 217.105043 367.526523 
L 217.545639 367.887517 
L 217.986235 366.356095 
L 218.426831 366.219322 
L 218.867426 357.124971 
L 219.308022 284.885864 
L 219.748618 268.645633 
L 220.62981 220.48772 
L 221.511002 195.139681 
L 221.951598 198.242882 
L 222.392194 195.02757 
L 222.832789 236.559792 
L 223.273385 299.217985 
L 223.713981 290.466693 
L 224.154577 305.547713 
L 224.595173 310.973826 
L 225.035769 338.875728 
L 225.476365 333.393557 
L 225.916961 340.456477 
L 226.357556 356.66532 
L 226.798152 358.472531 
L 227.238748 357.362644 
L 227.679344 357.387308 
L 228.560536 358.01288 
L 229.001132 357.744777 
L 229.441728 346.526104 
L 229.882324 217.267923 
L 230.322919 272.452241 
L 230.763515 259.394645 
L 231.204111 276.96162 
L 231.644707 287.938615 
L 232.085303 260.124159 
L 232.525899 242.614363 
L 233.407091 317.22171 
L 233.847686 329.954346 
L 234.288282 357.140987 
L 234.728878 357.037525 
L 235.169474 360.376797 
L 235.61007 361.147152 
L 236.050666 364.956965 
L 236.491262 363.858288 
L 236.931858 365.647562 
L 237.372454 366.822794 
L 238.694241 369.146991 
L 239.134837 368.216479 
L 239.575433 366.143087 
L 240.016029 359.221424 
L 241.337816 225.330865 
L 241.778412 213.590723 
L 242.219008 210.938524 
L 242.659604 211.022447 
L 243.1002 210.986412 
L 243.540796 206.658972 
L 243.981392 209.570465 
L 244.421988 214.148871 
L 244.862584 258.603789 
L 245.303179 245.039779 
L 245.743775 295.979295 
L 246.184371 310.819116 
L 246.624967 313.233002 
L 247.065563 345.635953 
L 247.506159 356.935517 
L 247.946755 357.641797 
L 248.387351 358.725899 
L 248.827947 357.2169 
L 249.268542 359.387028 
L 249.709138 357.793466 
L 250.59033 221.69931 
L 251.030926 202.368208 
L 251.471522 190.029718 
L 251.912118 172.963395 
L 252.352714 174.784699 
L 253.233905 170.395438 
L 253.674501 170.20645 
L 254.115097 191.783753 
L 254.555693 194.396554 
L 254.996289 204.195918 
L 255.436885 193.202107 
L 255.877481 196.655087 
L 256.318077 201.465885 
L 256.758672 202.998583 
L 257.199268 264.035672 
L 258.08046 329.208656 
L 258.521056 313.856011 
L 258.961652 314.81327 
L 259.402248 326.774591 
L 259.842844 331.753709 
L 260.283439 256.025265 
L 260.724035 226.319997 
L 261.605227 194.420579 
L 262.486419 169.589846 
L 262.927015 181.365865 
L 263.367611 181.899506 
L 263.808207 181.616993 
L 264.248802 196.499575 
L 264.689398 196.894679 
L 265.129994 200.664295 
L 265.57059 205.618111 
L 266.011186 207.153694 
L 266.451782 202.222141 
L 266.892378 203.754526 
L 267.332974 206.283725 
L 267.77357 243.644011 
L 268.214165 266.798702 
L 268.654761 268.398991 
L 269.095357 271.429157 
L 269.535953 280.25893 
L 269.976549 285.60673 
L 270.417145 287.733458 
L 270.857741 258.079275 
L 271.298337 212.915502 
L 271.738932 215.849573 
L 272.179528 189.834166 
L 272.620124 190.47303 
L 273.06072 183.357576 
L 273.501316 194.082328 
L 273.941912 191.009236 
L 274.382508 203.130875 
L 274.823104 195.636965 
L 275.2637 192.484603 
L 275.704295 202.570964 
L 276.144891 195.89146 
L 276.585487 209.832801 
L 277.026083 209.014402 
L 277.466679 210.173612 
L 277.907275 204.422704 
L 278.347871 216.165886 
L 278.788467 210.930356 
L 279.229062 215.920685 
L 279.669658 277.727168 
L 280.110254 249.511359 
L 280.55085 282.16896 
L 280.991446 249.442333 
L 281.432042 231.442456 
L 281.872638 200.351186 
L 282.313234 205.3215 
L 284.075617 157.094723 
L 284.516213 146.892404 
L 284.956809 149.389575 
L 285.838001 165.780832 
L 286.278597 177.34785 
L 286.719193 182.533734 
L 287.159788 197.122585 
L 287.600384 205.245904 
L 288.04098 189.769619 
L 288.481576 190.628863 
L 288.922172 191.061767 
L 289.362768 185.638211 
L 289.803364 186.749381 
L 290.24396 195.481617 
L 290.684555 194.505782 
L 291.125151 198.500095 
L 291.565747 209.141562 
L 292.006343 206.417932 
L 292.446939 200.370407 
L 292.887535 211.720729 
L 293.328131 208.652124 
L 293.768727 213.572305 
L 294.209323 220.307706 
L 294.649918 212.244446 
L 295.090514 214.753458 
L 295.53111 212.932476 
L 295.971706 204.254214 
L 296.412302 205.783392 
L 296.852898 211.919165 
L 297.293494 214.558709 
L 297.73409 206.209731 
L 298.174685 211.925728 
L 298.615281 248.62169 
L 299.055877 249.517766 
L 299.496473 269.735338 
L 299.937069 260.464494 
L 300.377665 238.783248 
L 300.818261 248.316591 
L 301.258857 264.512301 
L 301.699453 262.094572 
L 302.140048 268.994453 
L 302.580644 266.570476 
L 303.02124 241.618186 
L 303.461836 250.000159 
L 303.902432 229.927049 
L 304.343028 221.134758 
L 304.783624 216.806034 
L 305.22422 193.0144 
L 305.664815 197.101606 
L 306.105411 198.045571 
L 306.546007 191.86832 
L 306.986603 208.517591 
L 307.427199 203.110695 
L 307.867795 205.734066 
L 308.748987 232.633701 
L 309.189583 264.881304 
L 309.630178 286.251362 
L 310.070774 263.380953 
L 310.51137 275.13647 
L 310.951966 273.67584 
L 311.392562 290.920898 
L 311.833158 284.264775 
L 312.273754 306.500966 
L 312.71435 305.738137 
L 313.154946 281.220993 
L 313.595541 277.461951 
L 314.036137 240.119758 
L 314.476733 217.012316 
L 314.917329 202.438036 
L 315.357925 201.028652 
L 315.798521 201.61739 
L 316.239117 209.690582 
L 316.679713 201.829437 
L 317.120308 210.235114 
L 317.560904 206.731041 
L 318.0015 213.653503 
L 318.442096 266.222933 
L 318.882692 273.067243 
L 319.323288 333.821176 
L 319.763884 358.288992 
L 320.20448 358.238702 
L 320.645076 357.889559 
L 321.085671 359.253937 
L 321.526267 359.982811 
L 321.966863 361.915905 
L 322.848055 363.525162 
L 323.288651 363.511068 
L 323.729247 359.355957 
L 324.169843 295.097149 
L 324.610438 272.011009 
L 325.49163 202.420094 
L 325.932226 197.939546 
L 326.372822 206.213894 
L 326.813418 193.648144 
L 327.254014 188.737409 
L 327.69461 191.008594 
L 328.135206 202.832023 
L 329.016397 213.6298 
L 329.456993 254.476228 
L 329.897589 314.275622 
L 330.338185 310.592013 
L 330.778781 341.828702 
L 331.219377 358.036904 
L 331.659973 358.446905 
L 332.100569 360.956565 
L 332.541164 360.769662 
L 332.98176 362.194578 
L 333.422356 364.187892 
L 333.862952 360.723056 
L 334.303548 327.543663 
L 334.744144 316.561381 
L 335.18474 221.888456 
L 335.625336 213.807896 
L 336.065931 197.245107 
L 336.506527 198.870698 
L 336.947123 201.342561 
L 337.387719 158.599718 
L 337.828315 181.615612 
L 338.268911 191.7876 
L 338.709507 196.598333 
L 339.150103 205.368008 
L 339.590699 208.63814 
L 340.031294 272.020597 
L 340.47189 311.322864 
L 340.912486 304.97104 
L 341.353082 358.068246 
L 341.793678 358.314219 
L 342.234274 359.381828 
L 342.67487 360.778597 
L 343.115466 361.627044 
L 343.556061 363.750945 
L 343.996657 364.60149 
L 344.437253 363.344882 
L 344.877849 359.776455 
L 345.318445 328.902081 
L 345.759041 279.15379 
L 346.199637 252.121047 
L 346.640233 240.895328 
L 347.080829 219.680532 
L 347.96202 212.51671 
L 348.402616 209.456106 
L 348.843212 219.747794 
L 349.283808 248.941202 
L 349.724404 359.616051 
L 350.165 357.687761 
L 350.605596 358.225889 
L 351.046192 358.427687 
L 351.486787 358.046514 
L 351.927383 358.293156 
L 352.367979 358.382843 
L 352.808575 358.651906 
L 353.689767 362.266329 
L 354.130363 362.867238 
L 354.570959 364.907637 
L 355.011554 363.158722 
L 355.45215 359.997225 
L 355.892746 325.288015 
L 356.773938 223.380155 
L 357.65513 194.052219 
L 358.095726 196.460334 
L 358.536322 200.980611 
L 358.976917 201.585997 
L 359.417513 200.633067 
L 360.298705 218.514583 
L 360.739301 225.936259 
L 361.620493 289.098954 
L 362.061089 289.41286 
L 362.501684 341.319723 
L 362.94228 358.517375 
L 363.382876 357.934404 
L 364.264068 358.326789 
L 364.704664 359.010659 
L 365.14526 361.364965 
L 365.585856 307.193482 
L 366.026452 358.315578 
L 366.907643 245.0622 
L 367.348239 224.07524 
L 367.788835 208.671338 
L 368.229431 218.066145 
L 368.670027 219.310571 
L 369.110623 205.016567 
L 369.551219 210.767799 
L 369.991814 202.527726 
L 370.43241 213.626596 
L 370.873006 200.061302 
L 371.313602 219.568419 
L 371.754198 255.802325 
L 372.194794 306.924421 
L 372.63539 217.707393 
L 373.075986 302.39518 
L 373.516582 325.355277 
L 373.957177 358.315578 
L 374.397773 325.35528 
L 374.838369 336.140249 
L 375.278965 358.629485 
L 375.719561 358.483743 
L 376.600753 323.942695 
L 377.041349 238.71679 
L 377.481945 221.911519 
L 377.92254 222.640234 
L 378.363136 217.644615 
L 378.803732 218.967508 
L 379.244328 214.814964 
L 379.684924 216.619937 
L 380.12552 194.792143 
L 380.566116 193.413187 
L 381.006712 201.707078 
L 381.447307 221.328539 
L 381.887903 220.678306 
L 382.328499 224.299456 
L 382.769095 218.828493 
L 383.209691 220.263504 
L 383.650287 219.456311 
L 384.090883 222.068467 
L 384.531479 358.382843 
L 384.972075 311.969363 
L 385.41267 323.606368 
L 385.853266 270.129965 
L 386.293862 283.024839 
L 386.734458 312.462646 
L 387.175054 301.969162 
L 387.61565 239.030684 
L 388.056246 290.803022 
L 388.496842 215.958485 
L 388.937437 215.734265 
L 389.378033 221.586396 
L 389.818629 241.878281 
L 390.259225 238.918582 
L 390.699821 277.417109 
L 391.140417 237.405099 
L 391.581013 324.34629 
L 392.021609 281.968765 
L 392.462205 254.748496 
L 392.9028 324.279025 
L 393.343396 335.624541 
L 393.783992 284.054008 
L 394.224588 359.728162 
L 394.665184 358.898547 
L 395.10578 359.963592 
L 395.546376 359.021868 
L 395.986972 359.885116 
L 396.427568 358.557736 
L 396.868163 358.685542 
L 397.749355 358.607063 
L 398.189951 335.848762 
L 399.071143 358.248312 
L 399.511739 283.435164 
L 399.952335 328.891225 
L 400.39293 249.658704 
L 400.833526 287.944217 
L 401.274122 239.770619 
L 401.714718 254.995133 
L 402.155314 323.505465 
L 402.59591 358.281945 
L 403.036506 358.203468 
L 403.477102 359.279722 
L 403.917698 362.755127 
L 404.358293 363.127331 
L 404.798889 364.257399 
L 405.239485 363.730482 
L 405.680081 365.580296 
L 406.120677 365.815726 
L 406.561273 366.353853 
L 407.001869 367.867337 
L 407.442465 366.163267 
L 407.88306 363.898647 
L 408.323656 358.36042 
L 408.764252 282.092089 
L 409.204848 240.331165 
L 409.645444 221.743353 
L 410.08604 221.353312 
L 418.897958 220.519015 
L 419.338553 271.340756 
L 419.779149 284.945282 
L 420.219745 248.399871 
L 420.660341 199.181722 
L 421.100937 218.231108 
L 421.541533 205.89326 
L 421.982129 186.662578 
L 422.422725 192.606 
L 422.863321 180.329974 
L 423.303916 192.337898 
L 423.744512 176.933046 
L 424.185108 228.318754 
L 424.625704 231.548162 
L 425.0663 245.826152 
L 425.506896 277.654776 
L 426.388088 261.7544 
L 426.828683 272.127282 
L 427.269279 305.229956 
L 427.709875 317.039612 
L 428.150471 291.840198 
L 428.591067 327.22431 
L 429.031663 288.749171 
L 429.472259 280.875698 
L 429.912855 221.479894 
L 430.353451 185.491028 
L 430.794046 199.920368 
L 431.234642 188.690165 
L 431.675238 164.033686 
L 432.115834 158.135421 
L 432.55643 159.679338 
L 432.997026 177.43193 
L 433.437622 190.261623 
L 433.878218 188.513992 
L 434.318813 184.555712 
L 434.759409 189.002788 
L 435.640601 258.870936 
L 436.081197 317.013664 
L 436.521793 323.075606 
L 436.962389 314.314061 
L 437.402985 346.154862 
L 437.843581 340.474895 
L 438.284176 357.375456 
L 438.724772 357.838308 
L 439.165368 357.468347 
L 439.605964 357.772645 
L 440.04656 287.085459 
L 440.487156 247.046547 
L 441.368348 185.874603 
L 441.808944 174.509867 
L 442.249539 168.419419 
L 442.690135 152.424227 
L 443.130731 151.509891 
L 443.571327 146.764918 
L 444.011923 153.992162 
L 444.452519 190.698529 
L 444.893115 200.785212 
L 445.333711 269.891332 
L 445.774306 309.891166 
L 446.214902 301.664225 
L 446.655498 347.975844 
L 447.096094 357.270074 
L 447.53669 357.990778 
L 447.977286 359.773006 
L 448.417882 360.779752 
L 449.299074 363.378939 
L 449.739669 364.174118 
L 450.180265 359.94117 
L 450.620861 330.674892 
L 451.061457 268.65732 
L 451.502053 233.227885 
L 451.942649 186.676029 
L 452.383245 167.622318 
L 452.823841 164.038165 
L 453.264436 168.685283 
L 453.705032 153.000953 
L 454.145628 161.312934 
L 454.586224 182.179785 
L 455.02682 178.80928 
L 455.467416 187.748438 
L 455.908012 264.771112 
L 456.348608 314.620922 
L 456.789204 341.710507 
L 457.229799 357.207292 
L 457.670395 359.343144 
L 458.551587 361.95114 
L 458.992183 363.601557 
L 459.432779 363.88023 
L 459.873375 364.443502 
L 460.313971 366.185689 
L 460.754567 364.552729 
L 461.195162 359.47079 
L 462.51695 202.76091 
L 462.957546 195.92285 
L 463.398142 196.854966 
L 463.838738 185.464598 
L 464.279334 182.244167 
L 464.719929 165.199945 
L 465.160525 177.18449 
L 465.601121 173.653344 
L 466.041717 195.751802 
L 466.482313 199.804414 
L 466.922909 261.536584 
L 467.363505 306.675214 
L 467.804101 308.533197 
L 468.244697 357.302106 
L 468.685292 357.186471 
L 469.125888 357.897247 
L 470.00708 361.681435 
L 470.447676 363.739453 
L 470.888272 364.824996 
L 471.328868 361.786498 
L 471.769464 335.012741 
L 472.210059 235.016197 
L 472.650655 222.846834 
L 473.091251 201.191213 
L 473.531847 190.927239 
L 473.972443 185.164946 
L 474.853635 196.393069 
L 475.294231 195.790881 
L 475.734827 202.435473 
L 476.175422 194.459015 
L 476.616018 195.459997 
L 477.056614 195.710322 
L 477.49721 205.126428 
L 477.937806 234.575609 
L 478.378402 240.241477 
L 478.818998 232.159961 
L 479.259594 256.229945 
L 479.70019 248.373288 
L 480.140785 284.978274 
L 480.581381 261.64805 
L 481.021977 301.033848 
L 481.462573 268.521829 
L 481.903169 262.47286 
L 482.343765 265.77562 
L 482.784361 226.935159 
L 483.224957 219.25371 
L 483.665552 196.711461 
L 484.106148 161.863234 
L 484.546744 170.437394 
L 484.98734 191.889135 
L 485.427936 194.403923 
L 486.309128 184.827178 
L 486.749724 199.92229 
L 487.19032 196.403325 
L 487.630915 252.769114 
L 488.071511 251.34676 
L 488.512107 265.633398 
L 488.952703 245.730375 
L 489.393299 262.245599 
L 489.833895 254.462132 
L 490.274491 253.178955 
L 490.715087 261.586713 
L 491.155682 272.131927 
L 491.596278 271.61654 
L 492.036874 314.621562 
L 492.47747 242.213328 
L 492.918066 247.451742 
L 493.358662 115.738036 
L 494.239854 157.357057 
L 494.68045 193.395575 
L 495.121045 188.257742 
L 495.561641 188.571645 
L 496.002237 232.075876 
L 496.442833 221.160381 
L 496.883429 220.734365 
L 497.764621 250.549338 
L 498.205217 281.36017 
L 498.645812 276.363275 
L 499.086408 280.354385 
L 499.527004 311.798797 
L 499.9676 305.332459 
L 500.408196 313.771127 
L 500.848792 313.244053 
L 501.289388 311.970484 
L 501.729984 302.142937 
L 502.17058 314.673453 
L 502.611175 309.033688 
L 503.051771 301.676395 
L 503.492367 311.911707 
L 503.932963 247.343639 
L 504.373559 265.696818 
L 504.814155 222.640229 
L 505.254751 221.902229 
L 505.695347 215.635605 
L 506.135943 211.418354 
L 506.576538 241.054273 
L 507.017134 242.655363 
L 507.45773 259.965122 
L 507.898326 260.841662 
L 508.338922 260.824849 
L 508.779518 237.519931 
L 509.66071 303.339145 
L 510.101305 283.336505 
L 510.541901 283.506271 
L 510.982497 276.248278 
L 511.863689 310.838656 
L 512.304285 284.946406 
L 512.744881 299.900577 
L 513.185477 277.202495 
L 513.626073 273.347517 
L 514.507264 235.597727 
L 514.94786 244.268626 
L 515.388456 220.532565 
L 515.829052 208.764235 
L 516.269648 193.858108 
L 516.710244 197.172716 
L 517.15084 174.679633 
L 517.591435 167.983796 
L 518.032031 181.098725 
L 518.472627 205.160863 
L 518.913223 199.843489 
L 519.353819 206.787095 
L 519.794415 262.466136 
L 520.235011 256.661088 
L 520.675607 288.925984 
L 521.116203 308.121754 
L 521.556798 302.641024 
L 521.997394 320.383209 
L 522.43799 300.815235 
L 522.878586 274.895595 
L 523.319182 265.286818 
L 523.759778 236.412284 
L 524.200374 250.991211 
L 524.64097 224.425176 
L 525.081566 221.0763 
L 525.522161 220.308983 
L 525.962757 215.871999 
L 526.403353 206.11075 
L 526.843949 199.092675 
L 527.284545 208.873141 
L 527.725141 209.606339 
L 528.165737 204.635387 
L 528.606333 201.293712 
L 529.046928 196.252934 
L 529.487524 205.989517 
L 529.92812 195.434051 
L 530.368716 207.957524 
L 530.809312 199.780231 
L 531.249908 207.418915 
L 531.690504 203.367584 
L 532.1311 220.189826 
L 532.571696 247.225921 
L 533.012291 249.058917 
L 533.452887 266.833936 
L 533.893483 263.36702 
L 534.334079 248.769832 
L 534.774675 274.44203 
L 535.215271 230.176414 
L 535.655867 224.248207 
L 536.096463 210.34274 
L 536.977654 214.401759 
L 537.41825 213.87484 
L 537.858846 207.51309 
L 538.299442 204.683433 
L 538.740038 212.976521 
L 539.180634 194.225187 
L 539.62123 196.091014 
L 540.061826 201.297719 
L 540.502421 234.93468 
L 540.943017 241.330544 
L 541.383613 235.651702 
L 542.264805 287.499783 
L 542.705401 265.313085 
L 543.145997 290.404231 
L 543.586593 247.547675 
L 544.027189 278.868129 
L 544.467784 276.365194 
L 544.90838 281.689292 
L 545.348976 247.342037 
L 545.789572 273.40197 
L 546.230168 263.505875 
L 546.670764 280.311623 
L 547.11136 248.512625 
L 547.551956 225.338552 
L 547.992551 219.975219 
L 548.433147 209.268885 
L 548.873743 173.204589 
L 549.314339 189.945151 
L 550.195531 206.705895 
L 550.636127 191.893941 
L 551.076723 189.588644 
L 551.517319 206.253773 
L 551.957914 214.196436 
L 552.39851 208.632101 
L 552.839106 225.454187 
L 553.279702 279.192926 
L 553.720298 293.776816 
L 554.160894 277.914231 
L 554.60149 301.492697 
L 555.042086 292.033028 
L 555.482681 276.997495 
L 555.923277 292.97315 
L 556.363873 223.114456 
L 556.804469 221.75136 
L 557.245065 218.572886 
L 557.685661 200.347187 
L 558.126257 202.991537 
L 558.566853 192.925835 
L 559.007449 192.816127 
L 559.448044 186.673629 
L 559.88864 196.284804 
L 560.329236 198.525081 
L 561.210428 190.476235 
L 561.651024 250.389822 
L 562.09162 249.802845 
L 563.413407 275.696221 
L 563.854003 262.838018 
L 564.294599 275.682766 
L 564.735195 251.707112 
L 565.175791 266.752258 
L 565.616387 319.167456 
L 566.056983 281.185596 
L 566.938174 246.86733 
L 567.37877 184.649405 
L 567.819366 153.273057 
L 568.259962 154.62094 
L 568.700558 192.312432 
L 569.141154 198.406083 
L 569.58175 199.077622 
L 570.022346 188.522959 
L 570.462942 169.890302 
L 570.903537 181.854668 
L 571.344133 178.140627 
L 571.784729 178.802073 
L 572.225325 198.88191 
L 573.106517 282.806708 
L 573.547113 302.59826 
L 573.987709 274.322874 
L 574.428304 286.77828 
L 574.8689 283.578661 
L 575.309496 286.059176 
L 576.190688 300.19975 
L 576.631284 273.8786 
L 577.07188 266.718623 
L 577.953072 240.020303 
L 578.393667 276.113748 
L 578.834263 220.139222 
L 579.274859 219.333149 
L 579.715455 216.724672 
L 580.156051 218.0157 
L 580.596647 217.855381 
L 581.037243 218.286684 
L 581.477839 219.272928 
L 582.35903 297.537462 
L 582.799626 304.105657 
L 583.240222 285.942258 
L 583.680818 330.871085 
L 584.121414 308.247317 
L 584.56201 357.640996 
L 585.002606 356.946236 
L 585.883797 357.872744 
L 586.324393 358.835286 
L 586.764989 360.733947 
L 587.205585 358.902552 
L 587.646181 357.698812 
L 588.527373 284.58733 
L 588.967969 264.239393 
L 589.408565 217.384522 
L 589.84916 250.003045 
L 590.289756 219.771502 
L 591.170948 221.205223 
L 591.611544 221.124505 
L 592.05214 220.801631 
L 592.492736 241.308122 
L 593.814523 334.711648 
L 594.255119 313.429995 
L 594.695715 328.193902 
L 595.136311 357.710185 
L 595.576907 356.868559 
L 596.458099 358.059967 
L 596.898695 358.001669 
L 597.33929 359.701256 
L 597.779886 360.506524 
L 598.220482 358.006154 
L 598.661078 294.744486 
L 599.101674 287.888167 
L 599.54227 241.998078 
L 599.982866 235.612938 
L 600.423462 237.458912 
L 600.864057 218.975199 
L 601.745249 251.820825 
L 602.185845 219.805452 
L 602.626441 238.887509 
L 603.067037 265.254789 
L 603.507633 266.20612 
L 604.82942 356.953443 
L 605.270016 357.14387 
L 605.710612 358.072779 
L 606.151208 358.496875 
L 606.591804 359.077924 
L 607.0324 360.240663 
L 607.913592 364.980509 
L 608.354188 365.644358 
L 608.794783 362.61419 
L 609.235379 357.433434 
L 609.675975 250.75354 
L 610.557167 266.254328 
L 610.997763 224.873456 
L 611.438359 225.471807 
L 611.878955 220.343576 
L 612.31955 220.554349 
L 612.760146 233.317893 
L 613.200742 228.525997 
L 614.081934 276.955855 
L 614.52253 342.280665 
L 614.963126 357.300983 
L 615.403722 356.533031 
L 615.844318 357.158603 
L 616.725509 360.127273 
L 617.606701 365.801313 
L 618.047297 366.493992 
L 618.487893 368.235377 
L 618.928489 367.793664 
L 619.369085 365.246689 
L 619.80968 359.870541 
L 620.250276 301.879475 
L 620.690872 297.281851 
L 621.131468 246.127243 
L 621.572064 218.290367 
L 622.01266 205.60658 
L 622.453256 211.967535 
L 622.893852 213.164061 
L 623.334448 202.835226 
L 623.775043 206.532286 
L 624.215639 201.715727 
L 624.656235 221.995599 
L 625.096831 274.263936 
L 625.537427 299.951187 
L 625.978023 339.96063 
L 626.418619 357.343745 
L 626.859215 357.67495 
L 627.740406 362.150375 
L 628.181002 364.409869 
L 628.621598 363.463822 
L 629.50279 366.664024 
L 629.943386 363.736889 
L 630.383982 334.935869 
L 630.824578 263.840603 
L 631.265173 221.683934 
L 632.146365 181.771384 
L 632.586961 181.802615 
L 633.027557 168.241325 
L 633.468153 177.685139 
L 633.908749 170.46206 
L 634.349345 174.775731 
L 634.789941 191.592848 
L 635.230536 228.704254 
L 635.671132 256.024144 
L 636.552324 333.632989 
L 636.99292 329.653892 
L 637.433516 356.998287 
L 637.874112 359.446285 
L 638.314708 359.116041 
L 638.755303 361.987175 
L 639.636495 368.997244 
L 640.077091 369.005252 
L 640.517687 366.495112 
L 640.958283 358.386046 
L 641.398879 276.363272 
L 641.839475 241.59 
L 642.280071 217.695384 
L 642.720666 206.317836 
L 643.161262 190.348588 
L 643.601858 185.724055 
L 644.042454 193.204186 
L 644.48305 169.748722 
L 644.923646 188.374972 
L 645.364242 200.642034 
L 645.804838 202.825932 
L 646.245433 209.735587 
L 646.686029 209.529782 
L 647.126625 215.203822 
L 647.567221 210.772602 
L 648.007817 237.234374 
L 648.448413 251.756761 
L 648.889009 261.382996 
L 649.329605 277.763687 
L 649.770201 251.878482 
L 650.210796 293.710673 
L 650.651392 264.018375 
L 651.091988 292.904281 
L 651.532584 236.156834 
L 651.97318 217.721488 
L 652.413776 217.886768 
L 652.854372 211.987872 
L 653.294968 217.095277 
L 653.735564 207.752042 
L 654.176159 189.9522 
L 654.616755 181.832881 
L 655.057351 176.024952 
L 655.497947 163.699916 
L 655.938543 202.848033 
L 656.379139 197.691303 
L 656.819735 207.540632 
L 657.260331 221.934895 
L 657.700926 219.167069 
L 658.141522 270.399666 
L 658.582118 291.28093 
L 659.022714 261.770737 
L 659.46331 246.450441 
L 659.903906 252.815398 
L 660.344502 266.760262 
L 660.785098 254.193709 
L 661.225694 292.083318 
L 662.106885 232.461055 
L 662.547481 220.995099 
L 662.988077 221.384598 
L 663.428673 205.171914 
L 663.869269 171.518133 
L 664.309865 188.8311 
L 664.750461 186.078324 
L 665.191056 186.300944 
L 665.631652 193.639012 
L 666.072248 202.997299 
L 666.512844 209.214272 
L 666.95344 198.166649 
L 667.394036 205.016559 
L 668.275228 214.676428 
L 669.156419 203.804653 
L 669.597015 194.444602 
L 670.037611 202.688681 
L 670.478207 199.03374 
L 670.918803 208.639313 
L 671.359399 201.575587 
L 671.799995 214.039164 
L 672.240591 208.906774 
L 672.681187 208.79178 
L 673.121782 197.936983 
L 673.562378 205.091834 
L 674.002974 185.492627 
L 674.44357 196.6868 
L 674.884166 197.765457 
L 675.324762 188.770241 
L 675.765358 190.224466 
L 676.205954 184.626022 
L 676.646549 192.364163 
L 677.087145 188.949617 
L 677.527741 204.223787 
L 677.968337 203.58604 
L 678.408933 202.178579 
L 678.849529 239.588999 
L 679.290125 241.07109 
L 679.730721 244.272624 
L 680.171317 226.423455 
L 680.611912 237.829516 
L 681.052508 275.09483 
L 681.9337 256.523034 
L 682.374296 257.613701 
L 682.814892 235.689814 
L 683.696084 202.056861 
L 684.136679 213.695783 
L 684.577275 209.046111 
L 685.017871 190.095382 
L 685.458467 185.502238 
L 685.899063 187.390169 
L 686.339659 183.174838 
L 686.780255 198.15544 
L 687.220851 197.715966 
L 687.661447 199.248987 
L 688.102042 194.586501 
L 688.542638 195.785113 
L 688.983234 198.074402 
L 689.42383 203.411788 
L 689.864426 203.053037 
L 690.305022 203.991555 
L 690.745618 207.649539 
L 691.186214 213.226204 
L 691.626809 206.686674 
L 692.067405 240.920544 
L 692.508001 290.237988 
L 692.948597 314.57912 
L 693.389193 307.203093 
L 693.829789 286.879177 
L 694.270385 281.547871 
L 694.710981 303.815454 
L 695.151577 263.151925 
L 695.592172 240.725468 
L 696.032768 255.40514 
L 696.473364 233.159334 
L 696.91396 221.439052 
L 697.354556 222.206206 
L 697.795152 222.040122 
L 698.235748 238.315109 
L 698.676344 292.251481 
L 699.557535 334.470771 
L 699.998131 318.229898 
L 700.879323 340.443666 
L 701.319919 332.812187 
L 701.760515 333.634593 
L 702.201111 358.804377 
L 702.641707 358.617954 
L 703.082302 359.241605 
L 703.522898 359.195639 
L 703.963494 359.565441 
L 704.40409 342.014804 
L 705.285282 277.214026 
L 705.725878 282.37108 
L 706.166474 303.612374 
L 706.60707 317.440324 
L 707.047665 278.13509 
L 707.488261 331.384868 
L 707.928857 315.152 
L 708.369453 290.473099 
L 708.810049 276.213369 
L 709.250645 319.755872 
L 709.691241 330.683382 
L 710.131837 358.120186 
L 710.572432 358.334155 
L 711.013028 360.336758 
L 711.453624 361.095902 
L 711.89422 360.69679 
L 712.334816 363.046614 
L 712.775412 363.803355 
L 713.216008 362.648624 
L 713.656604 362.486065 
L 714.0972 361.800592 
L 714.537795 359.08353 
L 714.978391 336.415717 
L 715.418987 271.010829 
L 715.859583 257.61178 
L 716.300179 248.851515 
L 716.740775 220.897723 
L 717.181371 221.234854 
L 717.621967 221.930734 
L 718.062563 240.148588 
L 718.503158 285.037373 
L 718.943754 305.982697 
L 719.38435 273.073651 
L 719.824946 262.492884 
L 720.265542 293.306597 
L 720.706138 293.162454 
L 721.146734 254.634784 
L 722.027925 238.550864 
L 722.468521 294.20796 
L 723.349713 247.470962 
L 723.790309 272.444392 
L 724.230905 279.623265 
L 724.671501 289.419266 
L 725.112097 290.710771 
L 725.552693 283.749071 
L 725.993288 285.551795 
L 726.433884 272.304895 
L 726.87448 227.034941 
L 727.315076 222.18955 
L 727.755672 270.304858 
L 728.196268 219.22056 
L 728.636864 212.234192 
L 729.07746 221.983264 
L 729.518055 222.00345 
L 729.958651 262.11235 
L 730.399247 207.254272 
L 730.839843 275.703746 
L 731.280439 277.411339 
L 731.721035 252.756943 
L 732.161631 290.64607 
L 732.602227 288.435901 
L 733.042823 276.893072 
L 733.483418 284.489638 
L 733.924014 281.96364 
L 734.36461 278.153829 
L 734.805206 280.158991 
L 735.245802 254.095053 
L 736.126994 224.364161 
L 736.56759 221.567821 
L 737.008186 222.080801 
L 737.448781 209.148132 
L 737.889377 205.13988 
L 738.329973 215.381918 
L 738.770569 220.689037 
L 739.211165 215.494666 
L 739.651761 215.908034 
L 740.092357 221.927214 
L 740.532953 239.972415 
L 740.973548 280.377931 
L 741.414144 236.909575 
L 741.85474 301.423827 
L 742.295336 340.342927 
L 742.735932 358.274738 
L 743.176528 359.019627 
L 743.617124 359.530848 
L 744.05772 362.113858 
L 744.498316 363.43163 
L 744.938911 363.693647 
L 745.379507 361.586943 
L 745.820103 360.724338 
L 746.260699 358.580158 
L 746.701295 286.926746 
L 747.582487 252.595983 
L 748.023083 216.265343 
L 748.463678 221.357691 
L 748.904274 222.095056 
L 749.34487 222.1194 
L 749.785466 238.008887 
L 750.226062 233.089989 
L 750.666658 222.29349 
L 751.107254 249.821267 
L 751.54785 250.931635 
L 751.988446 248.864969 
L 752.429041 241.26392 
L 752.869637 217.658706 
L 753.750829 261.395648 
L 754.191425 222.935243 
L 755.072617 221.356574 
L 755.513213 221.542356 
L 755.953808 221.108326 
L 756.394404 221.12931 
L 757.275596 221.442253 
L 757.716192 220.930396 
L 758.156788 221.467879 
L 758.597384 220.119361 
L 759.03798 214.27123 
L 759.478576 211.41643 
L 759.919171 209.529786 
L 760.359767 218.559431 
L 760.800363 214.126287 
L 761.240959 221.762571 
L 762.122151 221.073252 
L 763.003343 221.539631 
L 763.443939 219.890498 
L 763.884534 215.936059 
L 764.765726 219.828513 
L 765.646918 221.501515 
L 766.087514 257.25655 
L 766.52811 233.819824 
L 766.968706 251.106523 
L 767.409301 279.283414 
L 767.849897 235.896101 
L 768.290493 281.289701 
L 768.731089 237.637327 
L 769.171685 240.328765 
L 769.612281 220.951695 
L 770.052877 210.882148 
L 770.493473 204.98181 
L 770.934069 204.667418 
L 771.374664 199.933979 
L 771.81526 200.715385 
L 772.255856 208.105188 
L 772.696452 212.223622 
L 773.577644 304.399707 
L 774.01824 326.425768 
L 774.458836 321.758157 
L 774.899431 323.414659 
L 775.340027 332.186773 
L 775.780623 358.187452 
L 776.221219 358.071017 
L 776.661815 333.01078 
L 777.102411 358.106572 
L 777.543007 358.47125 
L 777.983603 318.063655 
L 778.424199 255.869592 
L 778.864794 247.685573 
L 779.30539 222.534524 
L 779.745986 216.335174 
L 780.186582 208.477552 
L 780.627178 191.507325 
L 781.067774 185.954678 
L 781.50837 182.964389 
L 781.948966 189.250715 
L 782.389562 178.451331 
L 782.830157 199.648098 
L 783.270753 203.318897 
L 783.711349 198.819129 
L 784.151945 198.293815 
L 784.592541 208.71939 
L 785.033137 212.218499 
L 785.473733 264.291443 
L 785.914329 279.071847 
L 786.354924 304.162673 
L 786.79552 243.657469 
L 787.236116 221.115537 
L 787.676712 220.110552 
L 788.117308 215.936057 
L 788.557904 213.503275 
L 788.9985 213.023446 
L 789.439096 197.957484 
L 789.879692 213.28466 
L 790.320287 202.719907 
L 790.760883 184.506221 
L 791.201479 176.868181 
L 791.642075 180.879307 
L 792.082671 175.695026 
L 792.523267 185.692826 
L 792.963863 177.113216 
L 793.404459 197.662157 
L 793.845054 196.51303 
L 794.28565 207.122627 
L 795.607438 340.615033 
L 796.048034 297.96364 
L 796.48863 316.171881 
L 796.929226 357.18551 
L 797.369822 356.804336 
L 797.810417 357.095822 
L 798.251013 357.900771 
L 798.691609 358.38957 
L 799.132205 342.098086 
L 799.572801 270.129324 
L 800.013397 220.837502 
L 800.453993 220.744295 
L 800.894589 184.91046 
L 801.335185 182.556475 
L 801.77578 174.116203 
L 802.216376 186.515233 
L 802.656972 162.850445 
L 803.097568 176.020147 
L 803.538164 178.955342 
L 803.97876 195.262523 
L 804.419356 189.080142 
L 804.859952 185.028336 
L 805.300547 205.989675 
L 806.181739 279.207019 
L 806.622335 276.240274 
L 807.062931 318.686503 
L 807.503527 326.363789 
L 807.944123 357.182948 
L 808.384719 357.245089 
L 808.825315 357.521839 
L 809.26591 357.516394 
L 809.706506 273.39236 
L 810.147102 236.836539 
L 811.46889 166.374539 
L 811.909486 155.76782 
L 812.350082 171.351571 
L 812.790677 145.638697 
L 813.671869 157.739835 
L 814.112465 164.570527 
L 814.993657 192.415412 
L 815.434253 186.982246 
L 815.874849 186.894805 
L 816.315445 184.749337 
L 816.75604 188.113757 
L 817.196636 203.558491 
L 817.637232 233.382596 
L 818.077828 236.770878 
L 818.518424 256.232826 
L 818.95902 250.12316 
L 819.399616 295.724644 
L 819.840212 267.86855 
L 820.280807 285.832392 
L 820.721403 229.521213 
L 821.161999 228.068587 
L 821.602595 220.885551 
L 822.483787 200.47387 
L 822.924383 169.373794 
L 823.364979 179.008196 
L 823.805575 172.764479 
L 824.686766 181.953964 
L 825.127362 190.713903 
L 825.567958 190.321202 
L 826.008554 249.99952 
L 826.44915 266.329443 
L 826.889746 310.766904 
L 827.330342 307.203094 
L 827.770938 262.979596 
L 828.211533 300.569393 
L 828.652129 308.851109 
L 829.092725 331.719277 
L 829.533321 279.829068 
L 829.973917 336.326512 
L 830.414513 333.65141 
L 830.855109 342.883654 
L 831.295705 292.385373 
L 831.7363 257.560047 
L 832.176896 262.489678 
L 832.617492 255.236174 
L 833.058088 220.599829 
L 833.93928 186.92203 
L 834.379876 165.089435 
L 834.820472 162.629426 
L 835.261068 176.713306 
L 835.701663 195.73707 
L 836.142259 199.76758 
L 836.582855 269.607054 
L 837.023451 298.20067 
L 837.464047 292.469296 
L 837.904643 315.895452 
L 838.345239 345.708985 
L 838.785835 356.802094 
L 839.22643 356.983873 
L 839.667026 357.63395 
L 840.107622 359.49273 
L 840.548218 360.730424 
L 840.988814 360.680294 
L 841.42941 337.030721 
L 841.870006 292.167562 
L 842.310602 275.239612 
L 842.751198 233.870275 
L 843.191793 220.24108 
L 843.632389 211.685497 
L 844.072985 209.705957 
L 844.513581 182.418415 
L 844.954177 186.553187 
L 845.394773 185.052037 
L 846.275965 206.358355 
L 847.157156 272.879536 
L 847.597752 248.855678 
L 848.038348 253.733099 
L 848.478944 267.334422 
L 848.91954 256.978519 
L 849.360136 276.792653 
L 849.800732 264.972914 
L 850.241328 303.572335 
L 850.681923 284.384736 
L 851.122519 309.426712 
L 851.563115 322.095125 
L 852.003711 283.285255 
L 852.444307 265.139794 
L 852.884903 263.336108 
L 853.325499 275.914835 
L 853.766095 223.923884 
L 854.206691 212.241399 
L 855.087882 168.288091 
L 855.528478 191.931741 
L 855.969074 180.590707 
L 856.40967 189.026974 
L 856.850266 175.184129 
L 857.290862 201.159981 
L 857.731458 254.802947 
L 858.172053 262.630775 
L 858.612649 284.329479 
L 859.053245 319.222872 
L 859.493841 284.872733 
L 859.934437 321.614014 
L 860.375033 334.222048 
L 860.815629 338.129077 
L 861.696821 357.172057 
L 862.137416 357.685201 
L 862.578012 337.486367 
L 863.018608 293.549714 
L 863.459204 215.099241 
L 863.8998 221.00567 
L 864.340396 211.54472 
L 864.780992 184.920069 
L 865.221588 172.107195 
L 865.662184 183.824114 
L 866.102779 187.975865 
L 866.543375 182.271073 
L 867.424567 215.369105 
L 867.865163 205.324862 
L 868.305759 249.94699 
L 868.746355 273.822865 
L 869.186951 253.272006 
L 869.627546 264.345096 
L 870.068142 306.653432 
L 870.508738 316.882978 
L 870.949334 294.521867 
L 871.38993 294.631413 
L 871.830526 315.790708 
L 872.271122 344.317542 
L 872.711718 320.698556 
L 873.152314 277.287699 
L 873.592909 264.060337 
L 874.033505 220.969794 
L 874.474101 209.091754 
L 874.914697 192.98605 
L 875.355293 157.940029 
L 875.795889 159.480099 
L 876.236485 167.584201 
L 876.677081 161.401345 
L 877.998868 197.279382 
L 878.439464 182.878231 
L 879.320656 210.123646 
L 879.761252 197.124028 
L 880.201848 202.191394 
L 880.642444 243.938539 
L 881.083039 235.375908 
L 881.523635 280.878417 
L 881.964231 286.743845 
L 882.404827 246.284518 
L 882.845423 284.744605 
L 883.286019 273.111285 
L 883.726615 238.617808 
L 884.607806 191.826837 
L 885.048402 196.45361 
L 885.488998 151.442788 
L 885.929594 125.066217 
L 886.37019 120.738776 
L 886.810786 120.860494 
L 887.251382 115.408753 
L 888.132574 148.495258 
L 888.573169 142.302309 
L 889.013765 166.77429 
L 889.454361 157.89999 
L 889.894957 176.004294 
L 890.335553 186.262184 
L 890.776149 169.798371 
L 891.216745 184.500458 
L 891.657341 189.38877 
L 892.097937 185.118662 
L 892.538532 184.97132 
L 892.979128 173.155581 
L 893.419724 213.07053 
L 893.86032 241.237653 
L 894.300916 232.093336 
L 894.741512 218.344824 
L 895.182108 182.441638 
L 895.622704 188.808681 
L 896.503895 135.578919 
L 896.944491 123.336522 
L 897.385087 115.438388 
L 897.825683 115.351099 
L 898.266279 116.845361 
L 899.147471 182.334336 
L 899.588067 162.974567 
L 900.028662 175.946156 
L 900.469258 160.883714 
L 900.909854 167.222727 
L 901.35045 167.20351 
L 901.791046 168.612245 
L 902.231642 179.964172 
L 902.672238 177.889181 
L 903.112834 193.847058 
L 903.553429 190.850361 
L 903.994025 194.33089 
L 904.434621 183.911081 
L 904.875217 188.516392 
L 905.315813 167.355334 
L 905.756409 171.697829 
L 906.197005 189.122584 
L 907.078197 139.297765 
L 907.518792 123.833972 
L 907.959388 117.567033 
L 908.84058 144.138986 
L 909.281176 145.436258 
L 909.721772 161.455155 
L 910.162368 168.555232 
L 910.602964 181.039465 
L 911.04356 177.101205 
L 911.484155 185.643976 
L 911.924751 180.410686 
L 912.805943 183.298641 
L 913.246539 223.88545 
L 913.687135 274.777077 
L 914.127731 264.771755 
L 914.568327 266.191067 
L 915.008922 256.417328 
L 915.449518 236.746854 
L 915.890114 201.372991 
L 916.33071 175.860632 
L 916.771306 182.334497 
L 917.652498 118.190682 
L 918.53369 104.83039 
L 918.974285 94.191964 
L 920.736669 175.208151 
L 921.177265 177.2966 
L 921.617861 183.226249 
L 922.058457 191.496111 
L 922.499052 195.48722 
L 922.939648 203.666116 
L 923.380244 195.837963 
L 923.82084 206.025553 
L 924.702032 191.106131 
L 925.142628 204.973961 
L 925.583224 190.885272 
L 926.02382 205.653987 
L 926.464415 173.0092 
L 926.905011 156.802917 
L 927.345607 157.107217 
L 927.786203 117.423849 
L 928.226799 101.690354 
L 928.667395 69.060937 
L 929.107991 66.96 
L 929.548587 68.448654 
L 929.989183 85.042353 
L 930.429778 108.248942 
L 931.31097 185.676009 
L 931.751566 189.905112 
L 932.192162 186.015539 
L 932.632758 202.678271 
L 933.073354 192.544823 
L 933.51395 207.125827 
L 933.954545 207.125827 
L 933.954545 207.125827 
" clip-path="url(#p30a785bb15)" style="fill: none; stroke: #1f77b4; stroke-width: 1.5; stroke-linecap: round"/>
   </g>
   <g id="patch_3">
    <path d="M 135 384.48 
L 135 51.84 
" style="fill: none; stroke: #cccccc; stroke-width: 0.8; stroke-linejoin: miter; stroke-linecap: square"/>
   </g>
   <g id="patch_4">
    <path d="M 972 384.48 
L 972 51.84 
" style="fill: none; stroke: #cccccc; stroke-width: 0.8; stroke-linejoin: miter; stroke-linecap: square"/>
   </g>
   <g id="patch_5">
    <path d="M 135 384.48 
L 972 384.48 
" style="fill: none; stroke: #cccccc; stroke-width: 0.8; stroke-linejoin: miter; stroke-linecap: square"/>
   </g>
   <g id="patch_6">
    <path d="M 135 51.84 
L 972 51.84 
" style="fill: none; stroke: #cccccc; stroke-width: 0.8; stroke-linejoin: miter; stroke-linecap: square"/>
   </g>
   <g id="text_14">
    <!-- Suma del consumo medio de ambas enfriadoras en kW para el conjunto de puntos de validacin -->
    <g style="fill: #262626" transform="translate(10.635937 45.84) scale(0.2 -0.2)">
     <defs>
      <path id="DejaVuSans-Bold-53" d="M 3834 4519 
L 3834 3531 
Q 3450 3703 3084 3790 
Q 2719 3878 2394 3878 
Q 1963 3878 1756 3759 
Q 1550 3641 1550 3391 
Q 1550 3203 1689 3098 
Q 1828 2994 2194 2919 
L 2706 2816 
Q 3484 2659 3812 2340 
Q 4141 2022 4141 1434 
Q 4141 663 3683 286 
Q 3225 -91 2284 -91 
Q 1841 -91 1394 -6 
Q 947 78 500 244 
L 500 1259 
Q 947 1022 1364 901 
Q 1781 781 2169 781 
Q 2563 781 2772 912 
Q 2981 1044 2981 1288 
Q 2981 1506 2839 1625 
Q 2697 1744 2272 1838 
L 1806 1941 
Q 1106 2091 782 2419 
Q 459 2747 459 3303 
Q 459 4000 909 4375 
Q 1359 4750 2203 4750 
Q 2588 4750 2994 4692 
Q 3400 4634 3834 4519 
z
" transform="scale(0.015625)"/>
      <path id="DejaVuSans-Bold-61" d="M 2106 1575 
Q 1756 1575 1579 1456 
Q 1403 1338 1403 1106 
Q 1403 894 1545 773 
Q 1688 653 1941 653 
Q 2256 653 2472 879 
Q 2688 1106 2688 1447 
L 2688 1575 
L 2106 1575 
z
M 3816 1997 
L 3816 0 
L 2688 0 
L 2688 519 
Q 2463 200 2181 54 
Q 1900 -91 1497 -91 
Q 953 -91 614 226 
Q 275 544 275 1050 
Q 275 1666 698 1953 
Q 1122 2241 2028 2241 
L 2688 2241 
L 2688 2328 
Q 2688 2594 2478 2717 
Q 2269 2841 1825 2841 
Q 1466 2841 1156 2769 
Q 847 2697 581 2553 
L 581 3406 
Q 941 3494 1303 3539 
Q 1666 3584 2028 3584 
Q 2975 3584 3395 3211 
Q 3816 2838 3816 1997 
z
" transform="scale(0.015625)"/>
      <path id="DejaVuSans-Bold-64" d="M 2919 2988 
L 2919 4863 
L 4044 4863 
L 4044 0 
L 2919 0 
L 2919 506 
Q 2688 197 2409 53 
Q 2131 -91 1766 -91 
Q 1119 -91 703 423 
Q 288 938 288 1747 
Q 288 2556 703 3070 
Q 1119 3584 1766 3584 
Q 2128 3584 2408 3439 
Q 2688 3294 2919 2988 
z
M 2181 722 
Q 2541 722 2730 984 
Q 2919 1247 2919 1747 
Q 2919 2247 2730 2509 
Q 2541 2772 2181 2772 
Q 1825 2772 1636 2509 
Q 1447 2247 1447 1747 
Q 1447 1247 1636 984 
Q 1825 722 2181 722 
z
" transform="scale(0.015625)"/>
      <path id="DejaVuSans-Bold-6c" d="M 538 4863 
L 1656 4863 
L 1656 0 
L 538 0 
L 538 4863 
z
" transform="scale(0.015625)"/>
      <path id="DejaVuSans-Bold-63" d="M 3366 3391 
L 3366 2478 
Q 3138 2634 2908 2709 
Q 2678 2784 2431 2784 
Q 1963 2784 1702 2511 
Q 1441 2238 1441 1747 
Q 1441 1256 1702 982 
Q 1963 709 2431 709 
Q 2694 709 2930 787 
Q 3166 866 3366 1019 
L 3366 103 
Q 3103 6 2833 -42 
Q 2563 -91 2291 -91 
Q 1344 -91 809 395 
Q 275 881 275 1747 
Q 275 2613 809 3098 
Q 1344 3584 2291 3584 
Q 2566 3584 2833 3536 
Q 3100 3488 3366 3391 
z
" transform="scale(0.015625)"/>
      <path id="DejaVuSans-Bold-62" d="M 2400 722 
Q 2759 722 2948 984 
Q 3138 1247 3138 1747 
Q 3138 2247 2948 2509 
Q 2759 2772 2400 2772 
Q 2041 2772 1848 2508 
Q 1656 2244 1656 1747 
Q 1656 1250 1848 986 
Q 2041 722 2400 722 
z
M 1656 2988 
Q 1888 3294 2169 3439 
Q 2450 3584 2816 3584 
Q 3463 3584 3878 3070 
Q 4294 2556 4294 1747 
Q 4294 938 3878 423 
Q 3463 -91 2816 -91 
Q 2450 -91 2169 54 
Q 1888 200 1656 506 
L 1656 0 
L 538 0 
L 538 4863 
L 1656 4863 
L 1656 2988 
z
" transform="scale(0.015625)"/>
      <path id="DejaVuSans-Bold-66" d="M 2841 4863 
L 2841 4128 
L 2222 4128 
Q 1984 4128 1890 4042 
Q 1797 3956 1797 3744 
L 1797 3500 
L 2753 3500 
L 2753 2700 
L 1797 2700 
L 1797 0 
L 678 0 
L 678 2700 
L 122 2700 
L 122 3500 
L 678 3500 
L 678 3744 
Q 678 4316 997 4589 
Q 1316 4863 1984 4863 
L 2841 4863 
z
" transform="scale(0.015625)"/>
      <path id="DejaVuSans-Bold-72" d="M 3138 2547 
Q 2991 2616 2845 2648 
Q 2700 2681 2553 2681 
Q 2122 2681 1889 2404 
Q 1656 2128 1656 1613 
L 1656 0 
L 538 0 
L 538 3500 
L 1656 3500 
L 1656 2925 
Q 1872 3269 2151 3426 
Q 2431 3584 2822 3584 
Q 2878 3584 2943 3579 
Q 3009 3575 3134 3559 
L 3138 2547 
z
" transform="scale(0.015625)"/>
      <path id="DejaVuSans-Bold-6a" d="M 538 3500 
L 1656 3500 
L 1656 63 
Q 1656 -641 1318 -1011 
Q 981 -1381 341 -1381 
L -213 -1381 
L -213 -647 
L -19 -647 
Q 300 -647 419 -503 
Q 538 -359 538 63 
L 538 3500 
z
M 538 4863 
L 1656 4863 
L 1656 3950 
L 538 3950 
L 538 4863 
z
" transform="scale(0.015625)"/>
      <path id="DejaVuSans-Bold-74" d="M 1759 4494 
L 1759 3500 
L 2913 3500 
L 2913 2700 
L 1759 2700 
L 1759 1216 
Q 1759 972 1856 886 
Q 1953 800 2241 800 
L 2816 800 
L 2816 0 
L 1856 0 
Q 1194 0 917 276 
Q 641 553 641 1216 
L 641 2700 
L 84 2700 
L 84 3500 
L 641 3500 
L 641 4494 
L 1759 4494 
z
" transform="scale(0.015625)"/>
      <path id="DejaVuSans-Bold-76" d="M 97 3500 
L 1216 3500 
L 2088 1081 
L 2956 3500 
L 4078 3500 
L 2700 0 
L 1472 0 
L 97 3500 
z
" transform="scale(0.015625)"/>
      <path id="DejaVuSans-Bold-f3" d="M 2203 2784 
Q 1831 2784 1636 2517 
Q 1441 2250 1441 1747 
Q 1441 1244 1636 976 
Q 1831 709 2203 709 
Q 2569 709 2762 976 
Q 2956 1244 2956 1747 
Q 2956 2250 2762 2517 
Q 2569 2784 2203 2784 
z
M 2203 3584 
Q 3106 3584 3614 3096 
Q 4122 2609 4122 1747 
Q 4122 884 3614 396 
Q 3106 -91 2203 -91 
Q 1297 -91 786 396 
Q 275 884 275 1747 
Q 275 2609 786 3096 
Q 1297 3584 2203 3584 
z
M 2694 5119 
L 3578 5119 
L 2425 3944 
L 1813 3944 
L 2694 5119 
z
" transform="scale(0.015625)"/>
     </defs>
     <use xlink:href="#DejaVuSans-Bold-53"/>
     <use xlink:href="#DejaVuSans-Bold-75" x="72.021484"/>
     <use xlink:href="#DejaVuSans-Bold-6d" x="143.212891"/>
     <use xlink:href="#DejaVuSans-Bold-61" x="247.412109"/>
     <use xlink:href="#DejaVuSans-Bold-20" x="314.892578"/>
     <use xlink:href="#DejaVuSans-Bold-64" x="349.707031"/>
     <use xlink:href="#DejaVuSans-Bold-65" x="421.289062"/>
     <use xlink:href="#DejaVuSans-Bold-6c" x="489.111328"/>
     <use xlink:href="#DejaVuSans-Bold-20" x="523.388672"/>
     <use xlink:href="#DejaVuSans-Bold-63" x="558.203125"/>
     <use xlink:href="#DejaVuSans-Bold-6f" x="617.480469"/>
     <use xlink:href="#DejaVuSans-Bold-6e" x="686.181641"/>
     <use xlink:href="#DejaVuSans-Bold-73" x="757.373047"/>
     <use xlink:href="#DejaVuSans-Bold-75" x="816.894531"/>
     <use xlink:href="#DejaVuSans-Bold-6d" x="888.085938"/>
     <use xlink:href="#DejaVuSans-Bold-6f" x="992.285156"/>
     <use xlink:href="#DejaVuSans-Bold-20" x="1060.986328"/>
     <use xlink:href="#DejaVuSans-Bold-6d" x="1095.800781"/>
     <use xlink:href="#DejaVuSans-Bold-65" x="1200"/>
     <use xlink:href="#DejaVuSans-Bold-64" x="1267.822266"/>
     <use xlink:href="#DejaVuSans-Bold-69" x="1339.404297"/>
     <use xlink:href="#DejaVuSans-Bold-6f" x="1373.681641"/>
     <use xlink:href="#DejaVuSans-Bold-20" x="1442.382812"/>
     <use xlink:href="#DejaVuSans-Bold-64" x="1477.197266"/>
     <use xlink:href="#DejaVuSans-Bold-65" x="1548.779297"/>
     <use xlink:href="#DejaVuSans-Bold-20" x="1616.601562"/>
     <use xlink:href="#DejaVuSans-Bold-61" x="1651.416016"/>
     <use xlink:href="#DejaVuSans-Bold-6d" x="1718.896484"/>
     <use xlink:href="#DejaVuSans-Bold-62" x="1823.095703"/>
     <use xlink:href="#DejaVuSans-Bold-61" x="1894.677734"/>
     <use xlink:href="#DejaVuSans-Bold-73" x="1962.158203"/>
     <use xlink:href="#DejaVuSans-Bold-20" x="2021.679688"/>
     <use xlink:href="#DejaVuSans-Bold-65" x="2056.494141"/>
     <use xlink:href="#DejaVuSans-Bold-6e" x="2124.316406"/>
     <use xlink:href="#DejaVuSans-Bold-66" x="2195.507812"/>
     <use xlink:href="#DejaVuSans-Bold-72" x="2239.013672"/>
     <use xlink:href="#DejaVuSans-Bold-69" x="2288.330078"/>
     <use xlink:href="#DejaVuSans-Bold-61" x="2322.607422"/>
     <use xlink:href="#DejaVuSans-Bold-64" x="2390.087891"/>
     <use xlink:href="#DejaVuSans-Bold-6f" x="2461.669922"/>
     <use xlink:href="#DejaVuSans-Bold-72" x="2530.371094"/>
     <use xlink:href="#DejaVuSans-Bold-61" x="2579.6875"/>
     <use xlink:href="#DejaVuSans-Bold-73" x="2647.167969"/>
     <use xlink:href="#DejaVuSans-Bold-20" x="2706.689453"/>
     <use xlink:href="#DejaVuSans-Bold-65" x="2741.503906"/>
     <use xlink:href="#DejaVuSans-Bold-6e" x="2809.326172"/>
     <use xlink:href="#DejaVuSans-Bold-20" x="2880.517578"/>
     <use xlink:href="#DejaVuSans-Bold-6b" x="2915.332031"/>
     <use xlink:href="#DejaVuSans-Bold-57" x="2981.835938"/>
     <use xlink:href="#DejaVuSans-Bold-20" x="3092.138672"/>
     <use xlink:href="#DejaVuSans-Bold-70" x="3126.953125"/>
     <use xlink:href="#DejaVuSans-Bold-61" x="3198.535156"/>
     <use xlink:href="#DejaVuSans-Bold-72" x="3266.015625"/>
     <use xlink:href="#DejaVuSans-Bold-61" x="3315.332031"/>
     <use xlink:href="#DejaVuSans-Bold-20" x="3382.8125"/>
     <use xlink:href="#DejaVuSans-Bold-65" x="3417.626953"/>
     <use xlink:href="#DejaVuSans-Bold-6c" x="3485.449219"/>
     <use xlink:href="#DejaVuSans-Bold-20" x="3519.726562"/>
     <use xlink:href="#DejaVuSans-Bold-63" x="3554.541016"/>
     <use xlink:href="#DejaVuSans-Bold-6f" x="3613.818359"/>
     <use xlink:href="#DejaVuSans-Bold-6e" x="3682.519531"/>
     <use xlink:href="#DejaVuSans-Bold-6a" x="3753.710938"/>
     <use xlink:href="#DejaVuSans-Bold-75" x="3787.988281"/>
     <use xlink:href="#DejaVuSans-Bold-6e" x="3859.179688"/>
     <use xlink:href="#DejaVuSans-Bold-74" x="3930.371094"/>
     <use xlink:href="#DejaVuSans-Bold-6f" x="3978.173828"/>
     <use xlink:href="#DejaVuSans-Bold-20" x="4046.875"/>
     <use xlink:href="#DejaVuSans-Bold-64" x="4081.689453"/>
     <use xlink:href="#DejaVuSans-Bold-65" x="4153.271484"/>
     <use xlink:href="#DejaVuSans-Bold-20" x="4221.09375"/>
     <use xlink:href="#DejaVuSans-Bold-70" x="4255.908203"/>
     <use xlink:href="#DejaVuSans-Bold-75" x="4327.490234"/>
     <use xlink:href="#DejaVuSans-Bold-6e" x="4398.681641"/>
     <use xlink:href="#DejaVuSans-Bold-74" x="4469.873047"/>
     <use xlink:href="#DejaVuSans-Bold-6f" x="4517.675781"/>
     <use xlink:href="#DejaVuSans-Bold-73" x="4586.376953"/>
     <use xlink:href="#DejaVuSans-Bold-20" x="4645.898438"/>
     <use xlink:href="#DejaVuSans-Bold-64" x="4680.712891"/>
     <use xlink:href="#DejaVuSans-Bold-65" x="4752.294922"/>
     <use xlink:href="#DejaVuSans-Bold-20" x="4820.117188"/>
     <use xlink:href="#DejaVuSans-Bold-76" x="4854.931641"/>
     <use xlink:href="#DejaVuSans-Bold-61" x="4920.117188"/>
     <use xlink:href="#DejaVuSans-Bold-6c" x="4987.597656"/>
     <use xlink:href="#DejaVuSans-Bold-69" x="5021.875"/>
     <use xlink:href="#DejaVuSans-Bold-64" x="5056.152344"/>
     <use xlink:href="#DejaVuSans-Bold-61" x="5127.734375"/>
     <use xlink:href="#DejaVuSans-Bold-63" x="5195.214844"/>
     <use xlink:href="#DejaVuSans-Bold-69" x="5254.492188"/>
     <use xlink:href="#DejaVuSans-Bold-f3" x="5288.769531"/>
     <use xlink:href="#DejaVuSans-Bold-6e" x="5357.470703"/>
    </g>
   </g>
  </g>
 </g>
 <defs>
  <clipPath id="p30a785bb15">
   <rect x="135" y="51.84" width="837" height="332.64"/>
  </clipPath>
 </defs>
</svg>
