<?xml version="1.0" encoding="utf-8" standalone="no"?>
<!DOCTYPE svg PUBLIC "-//W3C//DTD SVG 1.1//EN"
  "http://www.w3.org/Graphics/SVG/1.1/DTD/svg11.dtd">
<!-- Created with matplotlib (https://matplotlib.org/) -->
<svg height="648pt" version="1.1" viewBox="0 0 1440 648" width="1440pt" xmlns="http://www.w3.org/2000/svg" xmlns:xlink="http://www.w3.org/1999/xlink">
 <defs>
  <style type="text/css">
*{stroke-linecap:butt;stroke-linejoin:round;}
  </style>
 </defs>
 <g id="figure_1">
  <g id="patch_1">
   <path d="M 0 648 
L 1440 648 
L 1440 0 
L 0 0 
z
" style="fill:#ffffff;"/>
  </g>
  <g id="axes_1">
   <g id="patch_2">
    <path d="M 180 567 
L 1296 567 
L 1296 77.76 
L 180 77.76 
z
" style="fill:#ffffff;"/>
   </g>
   <g id="matplotlib.axis_1">
    <g id="xtick_1">
     <g id="line2d_1">
      <path clip-path="url(#p4e8d165079)" d="M 230.727273 567 
L 230.727273 77.76 
" style="fill:none;stroke:#cccccc;stroke-linecap:round;stroke-width:0.8;"/>
     </g>
     <g id="text_1">
      <!-- 2021-05-21 -->
      <defs>
       <path d="M 19.1875 8.296875 
L 53.609375 8.296875 
L 53.609375 0 
L 7.328125 0 
L 7.328125 8.296875 
Q 12.9375 14.109375 22.625 23.890625 
Q 32.328125 33.6875 34.8125 36.53125 
Q 39.546875 41.84375 41.421875 45.53125 
Q 43.3125 49.21875 43.3125 52.78125 
Q 43.3125 58.59375 39.234375 62.25 
Q 35.15625 65.921875 28.609375 65.921875 
Q 23.96875 65.921875 18.8125 64.3125 
Q 13.671875 62.703125 7.8125 59.421875 
L 7.8125 69.390625 
Q 13.765625 71.78125 18.9375 73 
Q 24.125 74.21875 28.421875 74.21875 
Q 39.75 74.21875 46.484375 68.546875 
Q 53.21875 62.890625 53.21875 53.421875 
Q 53.21875 48.921875 51.53125 44.890625 
Q 49.859375 40.875 45.40625 35.40625 
Q 44.1875 33.984375 37.640625 27.21875 
Q 31.109375 20.453125 19.1875 8.296875 
z
" id="DejaVuSans-50"/>
       <path d="M 31.78125 66.40625 
Q 24.171875 66.40625 20.328125 58.90625 
Q 16.5 51.421875 16.5 36.375 
Q 16.5 21.390625 20.328125 13.890625 
Q 24.171875 6.390625 31.78125 6.390625 
Q 39.453125 6.390625 43.28125 13.890625 
Q 47.125 21.390625 47.125 36.375 
Q 47.125 51.421875 43.28125 58.90625 
Q 39.453125 66.40625 31.78125 66.40625 
z
M 31.78125 74.21875 
Q 44.046875 74.21875 50.515625 64.515625 
Q 56.984375 54.828125 56.984375 36.375 
Q 56.984375 17.96875 50.515625 8.265625 
Q 44.046875 -1.421875 31.78125 -1.421875 
Q 19.53125 -1.421875 13.0625 8.265625 
Q 6.59375 17.96875 6.59375 36.375 
Q 6.59375 54.828125 13.0625 64.515625 
Q 19.53125 74.21875 31.78125 74.21875 
z
" id="DejaVuSans-48"/>
       <path d="M 12.40625 8.296875 
L 28.515625 8.296875 
L 28.515625 63.921875 
L 10.984375 60.40625 
L 10.984375 69.390625 
L 28.421875 72.90625 
L 38.28125 72.90625 
L 38.28125 8.296875 
L 54.390625 8.296875 
L 54.390625 0 
L 12.40625 0 
z
" id="DejaVuSans-49"/>
       <path d="M 4.890625 31.390625 
L 31.203125 31.390625 
L 31.203125 23.390625 
L 4.890625 23.390625 
z
" id="DejaVuSans-45"/>
       <path d="M 10.796875 72.90625 
L 49.515625 72.90625 
L 49.515625 64.59375 
L 19.828125 64.59375 
L 19.828125 46.734375 
Q 21.96875 47.46875 24.109375 47.828125 
Q 26.265625 48.1875 28.421875 48.1875 
Q 40.625 48.1875 47.75 41.5 
Q 54.890625 34.8125 54.890625 23.390625 
Q 54.890625 11.625 47.5625 5.09375 
Q 40.234375 -1.421875 26.90625 -1.421875 
Q 22.3125 -1.421875 17.546875 -0.640625 
Q 12.796875 0.140625 7.71875 1.703125 
L 7.71875 11.625 
Q 12.109375 9.234375 16.796875 8.0625 
Q 21.484375 6.890625 26.703125 6.890625 
Q 35.15625 6.890625 40.078125 11.328125 
Q 45.015625 15.765625 45.015625 23.390625 
Q 45.015625 31 40.078125 35.4375 
Q 35.15625 39.890625 26.703125 39.890625 
Q 22.75 39.890625 18.8125 39.015625 
Q 14.890625 38.140625 10.796875 36.28125 
z
" id="DejaVuSans-53"/>
      </defs>
      <g style="fill:#262626;" transform="translate(184.234773 586.1575)scale(0.16 -0.16)">
       <use xlink:href="#DejaVuSans-50"/>
       <use x="63.623047" xlink:href="#DejaVuSans-48"/>
       <use x="127.246094" xlink:href="#DejaVuSans-50"/>
       <use x="190.869141" xlink:href="#DejaVuSans-49"/>
       <use x="254.492188" xlink:href="#DejaVuSans-45"/>
       <use x="290.576172" xlink:href="#DejaVuSans-48"/>
       <use x="354.199219" xlink:href="#DejaVuSans-53"/>
       <use x="417.822266" xlink:href="#DejaVuSans-45"/>
       <use x="453.90625" xlink:href="#DejaVuSans-50"/>
       <use x="517.529297" xlink:href="#DejaVuSans-49"/>
      </g>
     </g>
    </g>
    <g id="xtick_2">
     <g id="line2d_2">
      <path clip-path="url(#p4e8d165079)" d="M 415.540107 567 
L 415.540107 77.76 
" style="fill:none;stroke:#cccccc;stroke-linecap:round;stroke-width:0.8;"/>
     </g>
     <g id="text_2">
      <!-- 2021-05-23 -->
      <defs>
       <path d="M 40.578125 39.3125 
Q 47.65625 37.796875 51.625 33 
Q 55.609375 28.21875 55.609375 21.1875 
Q 55.609375 10.40625 48.1875 4.484375 
Q 40.765625 -1.421875 27.09375 -1.421875 
Q 22.515625 -1.421875 17.65625 -0.515625 
Q 12.796875 0.390625 7.625 2.203125 
L 7.625 11.71875 
Q 11.71875 9.328125 16.59375 8.109375 
Q 21.484375 6.890625 26.8125 6.890625 
Q 36.078125 6.890625 40.9375 10.546875 
Q 45.796875 14.203125 45.796875 21.1875 
Q 45.796875 27.640625 41.28125 31.265625 
Q 36.765625 34.90625 28.71875 34.90625 
L 20.21875 34.90625 
L 20.21875 43.015625 
L 29.109375 43.015625 
Q 36.375 43.015625 40.234375 45.921875 
Q 44.09375 48.828125 44.09375 54.296875 
Q 44.09375 59.90625 40.109375 62.90625 
Q 36.140625 65.921875 28.71875 65.921875 
Q 24.65625 65.921875 20.015625 65.03125 
Q 15.375 64.15625 9.8125 62.3125 
L 9.8125 71.09375 
Q 15.4375 72.65625 20.34375 73.4375 
Q 25.25 74.21875 29.59375 74.21875 
Q 40.828125 74.21875 47.359375 69.109375 
Q 53.90625 64.015625 53.90625 55.328125 
Q 53.90625 49.265625 50.4375 45.09375 
Q 46.96875 40.921875 40.578125 39.3125 
z
" id="DejaVuSans-51"/>
      </defs>
      <g style="fill:#262626;" transform="translate(369.047607 586.1575)scale(0.16 -0.16)">
       <use xlink:href="#DejaVuSans-50"/>
       <use x="63.623047" xlink:href="#DejaVuSans-48"/>
       <use x="127.246094" xlink:href="#DejaVuSans-50"/>
       <use x="190.869141" xlink:href="#DejaVuSans-49"/>
       <use x="254.492188" xlink:href="#DejaVuSans-45"/>
       <use x="290.576172" xlink:href="#DejaVuSans-48"/>
       <use x="354.199219" xlink:href="#DejaVuSans-53"/>
       <use x="417.822266" xlink:href="#DejaVuSans-45"/>
       <use x="453.90625" xlink:href="#DejaVuSans-50"/>
       <use x="517.529297" xlink:href="#DejaVuSans-51"/>
      </g>
     </g>
    </g>
    <g id="xtick_3">
     <g id="line2d_3">
      <path clip-path="url(#p4e8d165079)" d="M 600.352941 567 
L 600.352941 77.76 
" style="fill:none;stroke:#cccccc;stroke-linecap:round;stroke-width:0.8;"/>
     </g>
     <g id="text_3">
      <!-- 2021-05-25 -->
      <g style="fill:#262626;" transform="translate(553.860441 586.1575)scale(0.16 -0.16)">
       <use xlink:href="#DejaVuSans-50"/>
       <use x="63.623047" xlink:href="#DejaVuSans-48"/>
       <use x="127.246094" xlink:href="#DejaVuSans-50"/>
       <use x="190.869141" xlink:href="#DejaVuSans-49"/>
       <use x="254.492188" xlink:href="#DejaVuSans-45"/>
       <use x="290.576172" xlink:href="#DejaVuSans-48"/>
       <use x="354.199219" xlink:href="#DejaVuSans-53"/>
       <use x="417.822266" xlink:href="#DejaVuSans-45"/>
       <use x="453.90625" xlink:href="#DejaVuSans-50"/>
       <use x="517.529297" xlink:href="#DejaVuSans-53"/>
      </g>
     </g>
    </g>
    <g id="xtick_4">
     <g id="line2d_4">
      <path clip-path="url(#p4e8d165079)" d="M 785.165775 567 
L 785.165775 77.76 
" style="fill:none;stroke:#cccccc;stroke-linecap:round;stroke-width:0.8;"/>
     </g>
     <g id="text_4">
      <!-- 2021-05-27 -->
      <defs>
       <path d="M 8.203125 72.90625 
L 55.078125 72.90625 
L 55.078125 68.703125 
L 28.609375 0 
L 18.3125 0 
L 43.21875 64.59375 
L 8.203125 64.59375 
z
" id="DejaVuSans-55"/>
      </defs>
      <g style="fill:#262626;" transform="translate(738.673275 586.1575)scale(0.16 -0.16)">
       <use xlink:href="#DejaVuSans-50"/>
       <use x="63.623047" xlink:href="#DejaVuSans-48"/>
       <use x="127.246094" xlink:href="#DejaVuSans-50"/>
       <use x="190.869141" xlink:href="#DejaVuSans-49"/>
       <use x="254.492188" xlink:href="#DejaVuSans-45"/>
       <use x="290.576172" xlink:href="#DejaVuSans-48"/>
       <use x="354.199219" xlink:href="#DejaVuSans-53"/>
       <use x="417.822266" xlink:href="#DejaVuSans-45"/>
       <use x="453.90625" xlink:href="#DejaVuSans-50"/>
       <use x="517.529297" xlink:href="#DejaVuSans-55"/>
      </g>
     </g>
    </g>
    <g id="xtick_5">
     <g id="line2d_5">
      <path clip-path="url(#p4e8d165079)" d="M 969.97861 567 
L 969.97861 77.76 
" style="fill:none;stroke:#cccccc;stroke-linecap:round;stroke-width:0.8;"/>
     </g>
     <g id="text_5">
      <!-- 2021-05-29 -->
      <defs>
       <path d="M 10.984375 1.515625 
L 10.984375 10.5 
Q 14.703125 8.734375 18.5 7.8125 
Q 22.3125 6.890625 25.984375 6.890625 
Q 35.75 6.890625 40.890625 13.453125 
Q 46.046875 20.015625 46.78125 33.40625 
Q 43.953125 29.203125 39.59375 26.953125 
Q 35.25 24.703125 29.984375 24.703125 
Q 19.046875 24.703125 12.671875 31.3125 
Q 6.296875 37.9375 6.296875 49.421875 
Q 6.296875 60.640625 12.9375 67.421875 
Q 19.578125 74.21875 30.609375 74.21875 
Q 43.265625 74.21875 49.921875 64.515625 
Q 56.59375 54.828125 56.59375 36.375 
Q 56.59375 19.140625 48.40625 8.859375 
Q 40.234375 -1.421875 26.421875 -1.421875 
Q 22.703125 -1.421875 18.890625 -0.6875 
Q 15.09375 0.046875 10.984375 1.515625 
z
M 30.609375 32.421875 
Q 37.25 32.421875 41.125 36.953125 
Q 45.015625 41.5 45.015625 49.421875 
Q 45.015625 57.28125 41.125 61.84375 
Q 37.25 66.40625 30.609375 66.40625 
Q 23.96875 66.40625 20.09375 61.84375 
Q 16.21875 57.28125 16.21875 49.421875 
Q 16.21875 41.5 20.09375 36.953125 
Q 23.96875 32.421875 30.609375 32.421875 
z
" id="DejaVuSans-57"/>
      </defs>
      <g style="fill:#262626;" transform="translate(923.48611 586.1575)scale(0.16 -0.16)">
       <use xlink:href="#DejaVuSans-50"/>
       <use x="63.623047" xlink:href="#DejaVuSans-48"/>
       <use x="127.246094" xlink:href="#DejaVuSans-50"/>
       <use x="190.869141" xlink:href="#DejaVuSans-49"/>
       <use x="254.492188" xlink:href="#DejaVuSans-45"/>
       <use x="290.576172" xlink:href="#DejaVuSans-48"/>
       <use x="354.199219" xlink:href="#DejaVuSans-53"/>
       <use x="417.822266" xlink:href="#DejaVuSans-45"/>
       <use x="453.90625" xlink:href="#DejaVuSans-50"/>
       <use x="517.529297" xlink:href="#DejaVuSans-57"/>
      </g>
     </g>
    </g>
    <g id="xtick_6">
     <g id="line2d_6">
      <path clip-path="url(#p4e8d165079)" d="M 1154.791444 567 
L 1154.791444 77.76 
" style="fill:none;stroke:#cccccc;stroke-linecap:round;stroke-width:0.8;"/>
     </g>
     <g id="text_6">
      <!-- 2021-05-31 -->
      <g style="fill:#262626;" transform="translate(1108.298944 586.1575)scale(0.16 -0.16)">
       <use xlink:href="#DejaVuSans-50"/>
       <use x="63.623047" xlink:href="#DejaVuSans-48"/>
       <use x="127.246094" xlink:href="#DejaVuSans-50"/>
       <use x="190.869141" xlink:href="#DejaVuSans-49"/>
       <use x="254.492188" xlink:href="#DejaVuSans-45"/>
       <use x="290.576172" xlink:href="#DejaVuSans-48"/>
       <use x="354.199219" xlink:href="#DejaVuSans-53"/>
       <use x="417.822266" xlink:href="#DejaVuSans-45"/>
       <use x="453.90625" xlink:href="#DejaVuSans-51"/>
       <use x="517.529297" xlink:href="#DejaVuSans-49"/>
      </g>
     </g>
    </g>
    <g id="xtick_7">
     <g id="line2d_7">
      <path clip-path="url(#p4e8d165079)" d="M 1247.197861 567 
L 1247.197861 77.76 
" style="fill:none;stroke:#cccccc;stroke-linecap:round;stroke-width:0.8;"/>
     </g>
     <g id="text_7">
      <!-- 2021-06-01 -->
      <defs>
       <path d="M 33.015625 40.375 
Q 26.375 40.375 22.484375 35.828125 
Q 18.609375 31.296875 18.609375 23.390625 
Q 18.609375 15.53125 22.484375 10.953125 
Q 26.375 6.390625 33.015625 6.390625 
Q 39.65625 6.390625 43.53125 10.953125 
Q 47.40625 15.53125 47.40625 23.390625 
Q 47.40625 31.296875 43.53125 35.828125 
Q 39.65625 40.375 33.015625 40.375 
z
M 52.59375 71.296875 
L 52.59375 62.3125 
Q 48.875 64.0625 45.09375 64.984375 
Q 41.3125 65.921875 37.59375 65.921875 
Q 27.828125 65.921875 22.671875 59.328125 
Q 17.53125 52.734375 16.796875 39.40625 
Q 19.671875 43.65625 24.015625 45.921875 
Q 28.375 48.1875 33.59375 48.1875 
Q 44.578125 48.1875 50.953125 41.515625 
Q 57.328125 34.859375 57.328125 23.390625 
Q 57.328125 12.15625 50.6875 5.359375 
Q 44.046875 -1.421875 33.015625 -1.421875 
Q 20.359375 -1.421875 13.671875 8.265625 
Q 6.984375 17.96875 6.984375 36.375 
Q 6.984375 53.65625 15.1875 63.9375 
Q 23.390625 74.21875 37.203125 74.21875 
Q 40.921875 74.21875 44.703125 73.484375 
Q 48.484375 72.75 52.59375 71.296875 
z
" id="DejaVuSans-54"/>
      </defs>
      <g style="fill:#262626;" transform="translate(1200.705361 586.1575)scale(0.16 -0.16)">
       <use xlink:href="#DejaVuSans-50"/>
       <use x="63.623047" xlink:href="#DejaVuSans-48"/>
       <use x="127.246094" xlink:href="#DejaVuSans-50"/>
       <use x="190.869141" xlink:href="#DejaVuSans-49"/>
       <use x="254.492188" xlink:href="#DejaVuSans-45"/>
       <use x="290.576172" xlink:href="#DejaVuSans-48"/>
       <use x="354.199219" xlink:href="#DejaVuSans-54"/>
       <use x="417.822266" xlink:href="#DejaVuSans-45"/>
       <use x="453.90625" xlink:href="#DejaVuSans-48"/>
       <use x="517.529297" xlink:href="#DejaVuSans-49"/>
      </g>
     </g>
    </g>
    <g id="text_8">
     <!-- Time -->
     <defs>
      <path d="M 0.484375 72.90625 
L 67.671875 72.90625 
L 67.671875 58.6875 
L 43.5 58.6875 
L 43.5 0 
L 24.703125 0 
L 24.703125 58.6875 
L 0.484375 58.6875 
z
" id="DejaVuSans-Bold-84"/>
      <path d="M 8.40625 54.6875 
L 25.875 54.6875 
L 25.875 0 
L 8.40625 0 
z
M 8.40625 75.984375 
L 25.875 75.984375 
L 25.875 61.71875 
L 8.40625 61.71875 
z
" id="DejaVuSans-Bold-105"/>
      <path d="M 59.078125 45.609375 
Q 62.40625 50.6875 66.96875 53.34375 
Q 71.53125 56 77 56 
Q 86.421875 56 91.359375 50.1875 
Q 96.296875 44.390625 96.296875 33.296875 
L 96.296875 0 
L 78.71875 0 
L 78.71875 28.515625 
Q 78.765625 29.15625 78.78125 29.828125 
Q 78.8125 30.515625 78.8125 31.78125 
Q 78.8125 37.59375 77.09375 40.203125 
Q 75.390625 42.828125 71.578125 42.828125 
Q 66.609375 42.828125 63.890625 38.71875 
Q 61.1875 34.625 61.078125 26.859375 
L 61.078125 0 
L 43.5 0 
L 43.5 28.515625 
Q 43.5 37.59375 41.9375 40.203125 
Q 40.375 42.828125 36.375 42.828125 
Q 31.34375 42.828125 28.609375 38.703125 
Q 25.875 34.578125 25.875 26.90625 
L 25.875 0 
L 8.296875 0 
L 8.296875 54.6875 
L 25.875 54.6875 
L 25.875 46.6875 
Q 29.109375 51.3125 33.28125 53.65625 
Q 37.453125 56 42.484375 56 
Q 48.140625 56 52.484375 53.265625 
Q 56.84375 50.53125 59.078125 45.609375 
z
" id="DejaVuSans-Bold-109"/>
      <path d="M 62.984375 27.484375 
L 62.984375 22.515625 
L 22.125 22.515625 
Q 22.75 16.359375 26.5625 13.28125 
Q 30.375 10.203125 37.203125 10.203125 
Q 42.71875 10.203125 48.5 11.84375 
Q 54.296875 13.484375 60.40625 16.796875 
L 60.40625 3.328125 
Q 54.203125 0.984375 48 -0.21875 
Q 41.796875 -1.421875 35.59375 -1.421875 
Q 20.75 -1.421875 12.515625 6.125 
Q 4.296875 13.671875 4.296875 27.296875 
Q 4.296875 40.671875 12.375 48.328125 
Q 20.453125 56 34.625 56 
Q 47.515625 56 55.25 48.234375 
Q 62.984375 40.484375 62.984375 27.484375 
z
M 45.015625 33.296875 
Q 45.015625 38.28125 42.109375 41.328125 
Q 39.203125 44.390625 34.515625 44.390625 
Q 29.4375 44.390625 26.265625 41.53125 
Q 23.09375 38.671875 22.3125 33.296875 
z
" id="DejaVuSans-Bold-101"/>
     </defs>
     <g style="fill:#262626;" transform="translate(716.0375 605.6425)scale(0.16 -0.16)">
      <use xlink:href="#DejaVuSans-Bold-84"/>
      <use x="68.212891" xlink:href="#DejaVuSans-Bold-105"/>
      <use x="102.490234" xlink:href="#DejaVuSans-Bold-109"/>
      <use x="206.689453" xlink:href="#DejaVuSans-Bold-101"/>
     </g>
    </g>
   </g>
   <g id="matplotlib.axis_2">
    <g id="ytick_1">
     <g id="line2d_8">
      <path clip-path="url(#p4e8d165079)" d="M 180 494.968906 
L 1296 494.968906 
" style="fill:none;stroke:#cccccc;stroke-linecap:round;stroke-width:0.8;"/>
     </g>
     <g id="text_9">
      <!-- 60 -->
      <g style="fill:#262626;" transform="translate(152.64 501.047656)scale(0.16 -0.16)">
       <use xlink:href="#DejaVuSans-54"/>
       <use x="63.623047" xlink:href="#DejaVuSans-48"/>
      </g>
     </g>
    </g>
    <g id="ytick_2">
     <g id="line2d_9">
      <path clip-path="url(#p4e8d165079)" d="M 180 409.030977 
L 1296 409.030977 
" style="fill:none;stroke:#cccccc;stroke-linecap:round;stroke-width:0.8;"/>
     </g>
     <g id="text_10">
      <!-- 65 -->
      <g style="fill:#262626;" transform="translate(152.64 415.109727)scale(0.16 -0.16)">
       <use xlink:href="#DejaVuSans-54"/>
       <use x="63.623047" xlink:href="#DejaVuSans-53"/>
      </g>
     </g>
    </g>
    <g id="ytick_3">
     <g id="line2d_10">
      <path clip-path="url(#p4e8d165079)" d="M 180 323.093047 
L 1296 323.093047 
" style="fill:none;stroke:#cccccc;stroke-linecap:round;stroke-width:0.8;"/>
     </g>
     <g id="text_11">
      <!-- 70 -->
      <g style="fill:#262626;" transform="translate(152.64 329.171797)scale(0.16 -0.16)">
       <use xlink:href="#DejaVuSans-55"/>
       <use x="63.623047" xlink:href="#DejaVuSans-48"/>
      </g>
     </g>
    </g>
    <g id="ytick_4">
     <g id="line2d_11">
      <path clip-path="url(#p4e8d165079)" d="M 180 237.155117 
L 1296 237.155117 
" style="fill:none;stroke:#cccccc;stroke-linecap:round;stroke-width:0.8;"/>
     </g>
     <g id="text_12">
      <!-- 75 -->
      <g style="fill:#262626;" transform="translate(152.64 243.233867)scale(0.16 -0.16)">
       <use xlink:href="#DejaVuSans-55"/>
       <use x="63.623047" xlink:href="#DejaVuSans-53"/>
      </g>
     </g>
    </g>
    <g id="ytick_5">
     <g id="line2d_12">
      <path clip-path="url(#p4e8d165079)" d="M 180 151.217188 
L 1296 151.217188 
" style="fill:none;stroke:#cccccc;stroke-linecap:round;stroke-width:0.8;"/>
     </g>
     <g id="text_13">
      <!-- 80 -->
      <defs>
       <path d="M 31.78125 34.625 
Q 24.75 34.625 20.71875 30.859375 
Q 16.703125 27.09375 16.703125 20.515625 
Q 16.703125 13.921875 20.71875 10.15625 
Q 24.75 6.390625 31.78125 6.390625 
Q 38.8125 6.390625 42.859375 10.171875 
Q 46.921875 13.96875 46.921875 20.515625 
Q 46.921875 27.09375 42.890625 30.859375 
Q 38.875 34.625 31.78125 34.625 
z
M 21.921875 38.8125 
Q 15.578125 40.375 12.03125 44.71875 
Q 8.5 49.078125 8.5 55.328125 
Q 8.5 64.0625 14.71875 69.140625 
Q 20.953125 74.21875 31.78125 74.21875 
Q 42.671875 74.21875 48.875 69.140625 
Q 55.078125 64.0625 55.078125 55.328125 
Q 55.078125 49.078125 51.53125 44.71875 
Q 48 40.375 41.703125 38.8125 
Q 48.828125 37.15625 52.796875 32.3125 
Q 56.78125 27.484375 56.78125 20.515625 
Q 56.78125 9.90625 50.3125 4.234375 
Q 43.84375 -1.421875 31.78125 -1.421875 
Q 19.734375 -1.421875 13.25 4.234375 
Q 6.78125 9.90625 6.78125 20.515625 
Q 6.78125 27.484375 10.78125 32.3125 
Q 14.796875 37.15625 21.921875 38.8125 
z
M 18.3125 54.390625 
Q 18.3125 48.734375 21.84375 45.5625 
Q 25.390625 42.390625 31.78125 42.390625 
Q 38.140625 42.390625 41.71875 45.5625 
Q 45.3125 48.734375 45.3125 54.390625 
Q 45.3125 60.0625 41.71875 63.234375 
Q 38.140625 66.40625 31.78125 66.40625 
Q 25.390625 66.40625 21.84375 63.234375 
Q 18.3125 60.0625 18.3125 54.390625 
z
" id="DejaVuSans-56"/>
      </defs>
      <g style="fill:#262626;" transform="translate(152.64 157.295938)scale(0.16 -0.16)">
       <use xlink:href="#DejaVuSans-56"/>
       <use x="63.623047" xlink:href="#DejaVuSans-48"/>
      </g>
     </g>
    </g>
    <g id="text_14">
     <!-- Electric Power Consumption/ kW -->
     <defs>
      <path d="M 9.1875 72.90625 
L 59.90625 72.90625 
L 59.90625 58.6875 
L 27.984375 58.6875 
L 27.984375 45.125 
L 58.015625 45.125 
L 58.015625 30.90625 
L 27.984375 30.90625 
L 27.984375 14.203125 
L 60.984375 14.203125 
L 60.984375 0 
L 9.1875 0 
z
" id="DejaVuSans-Bold-69"/>
      <path d="M 8.40625 75.984375 
L 25.875 75.984375 
L 25.875 0 
L 8.40625 0 
z
" id="DejaVuSans-Bold-108"/>
      <path d="M 52.59375 52.984375 
L 52.59375 38.71875 
Q 49.03125 41.15625 45.4375 42.328125 
Q 41.84375 43.5 37.984375 43.5 
Q 30.671875 43.5 26.59375 39.234375 
Q 22.515625 34.96875 22.515625 27.296875 
Q 22.515625 19.625 26.59375 15.34375 
Q 30.671875 11.078125 37.984375 11.078125 
Q 42.09375 11.078125 45.78125 12.296875 
Q 49.46875 13.53125 52.59375 15.921875 
L 52.59375 1.609375 
Q 48.484375 0.09375 44.265625 -0.65625 
Q 40.046875 -1.421875 35.796875 -1.421875 
Q 21 -1.421875 12.640625 6.171875 
Q 4.296875 13.765625 4.296875 27.296875 
Q 4.296875 40.828125 12.640625 48.40625 
Q 21 56 35.796875 56 
Q 40.09375 56 44.265625 55.25 
Q 48.4375 54.5 52.59375 52.984375 
z
" id="DejaVuSans-Bold-99"/>
      <path d="M 27.484375 70.21875 
L 27.484375 54.6875 
L 45.515625 54.6875 
L 45.515625 42.1875 
L 27.484375 42.1875 
L 27.484375 19 
Q 27.484375 15.1875 29 13.84375 
Q 30.515625 12.5 35.015625 12.5 
L 44 12.5 
L 44 0 
L 29 0 
Q 18.65625 0 14.328125 4.3125 
Q 10.015625 8.640625 10.015625 19 
L 10.015625 42.1875 
L 1.3125 42.1875 
L 1.3125 54.6875 
L 10.015625 54.6875 
L 10.015625 70.21875 
z
" id="DejaVuSans-Bold-116"/>
      <path d="M 49.03125 39.796875 
Q 46.734375 40.875 44.453125 41.375 
Q 42.1875 41.890625 39.890625 41.890625 
Q 33.15625 41.890625 29.515625 37.5625 
Q 25.875 33.25 25.875 25.203125 
L 25.875 0 
L 8.40625 0 
L 8.40625 54.6875 
L 25.875 54.6875 
L 25.875 45.703125 
Q 29.25 51.078125 33.609375 53.53125 
Q 37.984375 56 44.09375 56 
Q 44.96875 56 45.984375 55.921875 
Q 47.015625 55.859375 48.96875 55.609375 
z
" id="DejaVuSans-Bold-114"/>
      <path id="DejaVuSans-Bold-32"/>
      <path d="M 9.1875 72.90625 
L 40.375 72.90625 
Q 54.296875 72.90625 61.734375 66.71875 
Q 69.1875 60.546875 69.1875 49.125 
Q 69.1875 37.640625 61.734375 31.46875 
Q 54.296875 25.296875 40.375 25.296875 
L 27.984375 25.296875 
L 27.984375 0 
L 9.1875 0 
z
M 27.984375 59.28125 
L 27.984375 38.921875 
L 38.375 38.921875 
Q 43.84375 38.921875 46.828125 41.578125 
Q 49.8125 44.234375 49.8125 49.125 
Q 49.8125 54 46.828125 56.640625 
Q 43.84375 59.28125 38.375 59.28125 
z
" id="DejaVuSans-Bold-80"/>
      <path d="M 34.421875 43.5 
Q 28.609375 43.5 25.5625 39.328125 
Q 22.515625 35.15625 22.515625 27.296875 
Q 22.515625 19.4375 25.5625 15.25 
Q 28.609375 11.078125 34.421875 11.078125 
Q 40.140625 11.078125 43.15625 15.25 
Q 46.1875 19.4375 46.1875 27.296875 
Q 46.1875 35.15625 43.15625 39.328125 
Q 40.140625 43.5 34.421875 43.5 
z
M 34.421875 56 
Q 48.53125 56 56.46875 48.375 
Q 64.40625 40.765625 64.40625 27.296875 
Q 64.40625 13.8125 56.46875 6.1875 
Q 48.53125 -1.421875 34.421875 -1.421875 
Q 20.265625 -1.421875 12.28125 6.1875 
Q 4.296875 13.8125 4.296875 27.296875 
Q 4.296875 40.765625 12.28125 48.375 
Q 20.265625 56 34.421875 56 
z
" id="DejaVuSans-Bold-111"/>
      <path d="M 3.515625 54.6875 
L 20.515625 54.6875 
L 29.6875 17 
L 38.921875 54.6875 
L 53.515625 54.6875 
L 62.703125 17.390625 
L 71.921875 54.6875 
L 88.921875 54.6875 
L 74.515625 0 
L 55.421875 0 
L 46.1875 37.59375 
L 37.015625 0 
L 17.921875 0 
z
" id="DejaVuSans-Bold-119"/>
      <path d="M 67 4 
Q 61.8125 1.3125 56.203125 -0.046875 
Q 50.59375 -1.421875 44.484375 -1.421875 
Q 26.265625 -1.421875 15.625 8.765625 
Q 4.984375 18.953125 4.984375 36.375 
Q 4.984375 53.859375 15.625 64.03125 
Q 26.265625 74.21875 44.484375 74.21875 
Q 50.59375 74.21875 56.203125 72.84375 
Q 61.8125 71.484375 67 68.796875 
L 67 53.71875 
Q 61.765625 57.28125 56.6875 58.9375 
Q 51.609375 60.59375 46 60.59375 
Q 35.9375 60.59375 30.171875 54.140625 
Q 24.421875 47.703125 24.421875 36.375 
Q 24.421875 25.09375 30.171875 18.640625 
Q 35.9375 12.203125 46 12.203125 
Q 51.609375 12.203125 56.6875 13.859375 
Q 61.765625 15.53125 67 19.09375 
z
" id="DejaVuSans-Bold-67"/>
      <path d="M 63.375 33.296875 
L 63.375 0 
L 45.796875 0 
L 45.796875 5.421875 
L 45.796875 25.484375 
Q 45.796875 32.5625 45.484375 35.25 
Q 45.171875 37.9375 44.390625 39.203125 
Q 43.359375 40.921875 41.59375 41.875 
Q 39.84375 42.828125 37.59375 42.828125 
Q 32.125 42.828125 29 38.59375 
Q 25.875 34.375 25.875 26.90625 
L 25.875 0 
L 8.40625 0 
L 8.40625 54.6875 
L 25.875 54.6875 
L 25.875 46.6875 
Q 29.828125 51.46875 34.265625 53.734375 
Q 38.71875 56 44.09375 56 
Q 53.5625 56 58.46875 50.1875 
Q 63.375 44.390625 63.375 33.296875 
z
" id="DejaVuSans-Bold-110"/>
      <path d="M 51.125 52.984375 
L 51.125 39.703125 
Q 45.515625 42.046875 40.28125 43.21875 
Q 35.0625 44.390625 30.421875 44.390625 
Q 25.4375 44.390625 23.015625 43.140625 
Q 20.609375 41.890625 20.609375 39.3125 
Q 20.609375 37.203125 22.4375 36.078125 
Q 24.265625 34.96875 29 34.421875 
L 32.078125 33.984375 
Q 45.515625 32.28125 50.140625 28.375 
Q 54.78125 24.46875 54.78125 16.109375 
Q 54.78125 7.375 48.328125 2.96875 
Q 41.890625 -1.421875 29.109375 -1.421875 
Q 23.6875 -1.421875 17.890625 -0.5625 
Q 12.109375 0.296875 6 2 
L 6 15.28125 
Q 11.234375 12.75 16.71875 11.46875 
Q 22.21875 10.203125 27.875 10.203125 
Q 33.015625 10.203125 35.59375 11.609375 
Q 38.1875 13.03125 38.1875 15.828125 
Q 38.1875 18.171875 36.40625 19.3125 
Q 34.625 20.453125 29.296875 21.09375 
L 26.21875 21.484375 
Q 14.546875 22.953125 9.859375 26.90625 
Q 5.171875 30.859375 5.171875 38.921875 
Q 5.171875 47.609375 11.125 51.796875 
Q 17.09375 56 29.390625 56 
Q 34.234375 56 39.546875 55.265625 
Q 44.875 54.546875 51.125 52.984375 
z
" id="DejaVuSans-Bold-115"/>
      <path d="M 7.8125 21.296875 
L 7.8125 54.6875 
L 25.390625 54.6875 
L 25.390625 49.21875 
Q 25.390625 44.78125 25.34375 38.0625 
Q 25.296875 31.34375 25.296875 29.109375 
Q 25.296875 22.515625 25.640625 19.609375 
Q 25.984375 16.703125 26.8125 15.375 
Q 27.875 13.671875 29.609375 12.734375 
Q 31.34375 11.8125 33.59375 11.8125 
Q 39.0625 11.8125 42.1875 16.015625 
Q 45.3125 20.21875 45.3125 27.6875 
L 45.3125 54.6875 
L 62.796875 54.6875 
L 62.796875 0 
L 45.3125 0 
L 45.3125 7.90625 
Q 41.359375 3.125 36.9375 0.84375 
Q 32.515625 -1.421875 27.203125 -1.421875 
Q 17.71875 -1.421875 12.765625 4.390625 
Q 7.8125 10.203125 7.8125 21.296875 
z
" id="DejaVuSans-Bold-117"/>
      <path d="M 25.875 7.90625 
L 25.875 -20.796875 
L 8.40625 -20.796875 
L 8.40625 54.6875 
L 25.875 54.6875 
L 25.875 46.6875 
Q 29.5 51.46875 33.890625 53.734375 
Q 38.28125 56 44 56 
Q 54.109375 56 60.59375 47.96875 
Q 67.09375 39.9375 67.09375 27.296875 
Q 67.09375 14.65625 60.59375 6.609375 
Q 54.109375 -1.421875 44 -1.421875 
Q 38.28125 -1.421875 33.890625 0.84375 
Q 29.5 3.125 25.875 7.90625 
z
M 37.5 43.3125 
Q 31.890625 43.3125 28.875 39.1875 
Q 25.875 35.0625 25.875 27.296875 
Q 25.875 19.53125 28.875 15.40625 
Q 31.890625 11.28125 37.5 11.28125 
Q 43.109375 11.28125 46.0625 15.375 
Q 49.03125 19.484375 49.03125 27.296875 
Q 49.03125 35.109375 46.0625 39.203125 
Q 43.109375 43.3125 37.5 43.3125 
z
" id="DejaVuSans-Bold-112"/>
      <path d="M 25.6875 72.90625 
L 36.53125 72.90625 
L 10.796875 -9.28125 
L 0 -9.28125 
z
" id="DejaVuSans-Bold-47"/>
      <path d="M 8.40625 75.984375 
L 25.875 75.984375 
L 25.875 34.625 
L 46 54.6875 
L 66.3125 54.6875 
L 39.59375 29.59375 
L 68.40625 0 
L 47.21875 0 
L 25.875 22.796875 
L 25.875 0 
L 8.40625 0 
z
" id="DejaVuSans-Bold-107"/>
      <path d="M 2.984375 72.90625 
L 21 72.90625 
L 33.59375 19.921875 
L 46.09375 72.90625 
L 64.203125 72.90625 
L 76.703125 19.921875 
L 89.3125 72.90625 
L 107.171875 72.90625 
L 89.984375 0 
L 68.3125 0 
L 55.078125 55.421875 
L 42 0 
L 20.3125 0 
z
" id="DejaVuSans-Bold-87"/>
     </defs>
     <g style="fill:#262626;" transform="translate(145.3125 468.8925)rotate(-90)scale(0.16 -0.16)">
      <use xlink:href="#DejaVuSans-Bold-69"/>
      <use x="68.310547" xlink:href="#DejaVuSans-Bold-108"/>
      <use x="102.587891" xlink:href="#DejaVuSans-Bold-101"/>
      <use x="170.410156" xlink:href="#DejaVuSans-Bold-99"/>
      <use x="229.6875" xlink:href="#DejaVuSans-Bold-116"/>
      <use x="277.490234" xlink:href="#DejaVuSans-Bold-114"/>
      <use x="326.806641" xlink:href="#DejaVuSans-Bold-105"/>
      <use x="361.083984" xlink:href="#DejaVuSans-Bold-99"/>
      <use x="420.361328" xlink:href="#DejaVuSans-Bold-32"/>
      <use x="455.175781" xlink:href="#DejaVuSans-Bold-80"/>
      <use x="528.466797" xlink:href="#DejaVuSans-Bold-111"/>
      <use x="597.167969" xlink:href="#DejaVuSans-Bold-119"/>
      <use x="689.550781" xlink:href="#DejaVuSans-Bold-101"/>
      <use x="757.373047" xlink:href="#DejaVuSans-Bold-114"/>
      <use x="806.689453" xlink:href="#DejaVuSans-Bold-32"/>
      <use x="841.503906" xlink:href="#DejaVuSans-Bold-67"/>
      <use x="914.892578" xlink:href="#DejaVuSans-Bold-111"/>
      <use x="983.59375" xlink:href="#DejaVuSans-Bold-110"/>
      <use x="1054.785156" xlink:href="#DejaVuSans-Bold-115"/>
      <use x="1114.306641" xlink:href="#DejaVuSans-Bold-117"/>
      <use x="1185.498047" xlink:href="#DejaVuSans-Bold-109"/>
      <use x="1289.697266" xlink:href="#DejaVuSans-Bold-112"/>
      <use x="1361.279297" xlink:href="#DejaVuSans-Bold-116"/>
      <use x="1409.082031" xlink:href="#DejaVuSans-Bold-105"/>
      <use x="1443.359375" xlink:href="#DejaVuSans-Bold-111"/>
      <use x="1512.060547" xlink:href="#DejaVuSans-Bold-110"/>
      <use x="1583.251953" xlink:href="#DejaVuSans-Bold-47"/>
      <use x="1619.775391" xlink:href="#DejaVuSans-Bold-32"/>
      <use x="1654.589844" xlink:href="#DejaVuSans-Bold-107"/>
      <use x="1721.09375" xlink:href="#DejaVuSans-Bold-87"/>
     </g>
    </g>
   </g>
   <g id="line2d_13">
    <path clip-path="url(#p4e8d165079)" d="M 230.727273 233.989409 
L 232.652406 259.643817 
L 234.57754 255.935578 
L 236.502674 260.456389 
L 238.427807 247.922359 
L 240.352941 246.082608 
L 242.278075 285.998908 
L 244.203209 361.420752 
L 246.128342 369.078739 
L 248.053476 331.007693 
L 249.97861 405.11377 
L 251.903743 394.613921 
L 253.828877 374.162052 
L 255.754011 290.269649 
L 257.679144 242.61221 
L 259.604278 217.809504 
L 261.529412 354.113718 
L 263.454545 365.033435 
L 265.379679 303.091656 
L 267.304813 276.961566 
L 269.229947 278.386777 
L 271.15508 231.337337 
L 273.080214 161.929741 
L 275.005348 192.543957 
L 276.930481 190.820375 
L 278.855615 181.914488 
L 280.780749 181.0689 
L 282.705882 193.042872 
L 284.631016 183.451588 
L 286.55615 221.010268 
L 288.481283 254.333668 
L 290.406417 311.892991 
L 294.256684 336.311116 
L 296.181818 321.799155 
L 300.032086 304.016729 
L 301.957219 304.142681 
L 303.882353 298.890005 
L 305.807487 273.825613 
L 307.73262 268.240327 
L 309.657754 244.552845 
L 311.582888 279.936106 
L 313.508021 280.778684 
L 315.433155 286.753395 
L 317.358289 237.075226 
L 319.283422 171.239163 
L 321.208556 181.550695 
L 323.13369 234.096407 
L 325.058824 205.222893 
L 328.909091 236.389217 
L 330.834225 246.784513 
L 332.759358 237.825433 
L 334.684492 297.408544 
L 336.609626 368.401901 
L 338.534759 347.260355 
L 340.459893 315.773038 
L 342.385027 360.643904 
L 344.31016 352.601075 
L 346.235294 353.275467 
L 348.160428 295.604255 
L 350.085561 261.918285 
L 352.010695 254.642433 
L 353.935829 379.535788 
L 355.860963 378.078784 
L 357.786096 291.844657 
L 359.71123 277.404232 
L 361.636364 261.281801 
L 363.561497 209.094379 
L 365.486631 140.164551 
L 367.411765 157.05003 
L 369.336898 143.612938 
L 371.262032 150.100063 
L 373.187166 151.149253 
L 375.112299 153.207891 
L 377.037433 151.738046 
L 378.962567 163.425877 
L 380.887701 199.109343 
L 382.812834 237.530119 
L 384.737968 240.088284 
L 386.663102 260.718686 
L 388.588235 277.158442 
L 390.513369 285.342858 
L 392.438503 292.528832 
L 394.363636 273.738792 
L 396.28877 258.14707 
L 398.213904 267.469975 
L 400.139037 309.468115 
L 402.064171 236.002802 
L 403.989305 307.491407 
L 405.914439 290.370227 
L 407.839572 315.920913 
L 409.764706 267.907105 
L 411.68984 211.716597 
L 413.614973 215.906778 
L 415.540107 247.861217 
L 417.465241 265.402134 
L 419.390374 268.786933 
L 421.315508 296.94937 
L 423.240642 322.826945 
L 425.165775 343.033636 
L 427.090909 454.098593 
L 429.016043 530.646055 
L 430.941176 508.137382 
L 432.86631 474.751618 
L 434.791444 494.879436 
L 436.716578 408.603121 
L 438.641711 407.277571 
L 440.566845 335.480201 
L 442.491979 272.927443 
L 444.417112 252.350846 
L 446.342246 390.665396 
L 448.26738 401.861036 
L 450.192513 321.047724 
L 452.117647 299.334504 
L 454.042781 295.270422 
L 455.967914 238.821867 
L 457.893048 214.978648 
L 459.818182 198.003903 
L 461.743316 225.961515 
L 463.668449 219.539201 
L 465.593583 240.970558 
L 467.518717 216.625191 
L 469.44385 219.29708 
L 471.368984 247.21495 
L 473.294118 346.807296 
L 475.219251 315.430645 
L 477.144385 329.072561 
L 479.069519 327.579483 
L 480.994652 320.888145 
L 482.919786 318.181406 
L 484.84492 319.023326 
L 486.770053 336.521443 
L 488.695187 378.479261 
L 490.620321 401.895957 
L 492.545455 399.670216 
L 494.470588 267.68027 
L 496.395722 284.28013 
L 500.245989 341.986891 
L 502.171123 328.374935 
L 504.096257 279.908592 
L 506.02139 387.912189 
L 507.946524 414.11626 
L 509.871658 435.661952 
L 511.796791 413.610008 
L 513.721925 450.110326 
L 515.647059 324.928382 
L 517.572193 305.791058 
L 519.497326 408.515689 
L 521.42246 544.761818 
L 523.347594 461.627571 
L 525.272727 455.916333 
L 527.197861 499.248004 
L 529.122995 495.108862 
L 531.048128 461.457597 
L 532.973262 367.378391 
L 534.898396 359.768095 
L 536.823529 312.615685 
L 538.748663 426.234527 
L 540.673797 430.273542 
L 542.59893 371.353207 
L 544.524064 345.574681 
L 546.449198 290.581471 
L 548.374332 248.892676 
L 550.299465 224.447649 
L 552.224599 224.928222 
L 554.149733 168.275018 
L 556.074866 159.296984 
L 558 184.116197 
L 559.925134 215.124776 
L 561.850267 229.633069 
L 563.775401 236.333578 
L 565.700535 267.957242 
L 567.625668 307.117831 
L 569.550802 290.349745 
L 571.475936 298.005897 
L 573.40107 281.775245 
L 575.326203 259.62364 
L 577.251337 290.398047 
L 579.176471 307.806897 
L 581.101604 291.01252 
L 583.026738 303.722638 
L 584.951872 303.708575 
L 586.877005 304.341391 
L 588.802139 249.518155 
L 590.727273 248.039382 
L 592.652406 287.51094 
L 594.57754 232.777582 
L 596.502674 251.578627 
L 598.427807 305.827132 
L 602.278075 370.049056 
L 604.203209 376.267769 
L 606.128342 376.486045 
L 608.053476 388.820142 
L 609.97861 399.595128 
L 611.903743 427.175497 
L 613.828877 433.684632 
L 615.754011 396.87616 
L 617.679144 293.763892 
L 619.604278 383.355305 
L 621.529412 367.090414 
L 623.454545 409.76848 
L 625.379679 333.587869 
L 627.304813 298.387421 
L 629.229947 274.506731 
L 631.15508 422.026762 
L 633.080214 425.832216 
L 635.005348 379.222132 
L 636.930481 389.138078 
L 638.855615 390.801741 
L 640.780749 357.076029 
L 642.705882 317.494785 
L 644.631016 328.457476 
L 646.55615 356.928678 
L 648.481283 334.276323 
L 650.406417 315.280848 
L 652.331551 329.044435 
L 654.256685 354.975815 
L 656.181818 353.633145 
L 658.106952 388.41355 
L 660.032086 472.61105 
L 661.957219 499.383127 
L 663.882353 521.228412 
L 665.807487 504.541644 
L 667.73262 493.980654 
L 669.657754 494.826242 
L 671.582888 502.582114 
L 673.508021 473.665131 
L 675.433155 397.967305 
L 677.358289 408.52914 
L 679.283422 380.651623 
L 681.208556 339.003792 
L 683.13369 310.117431 
L 685.058824 317.391456 
L 686.983957 261.397358 
L 688.909091 209.321273 
L 690.834225 223.178349 
L 692.759358 269.857523 
L 694.684492 283.992852 
L 696.609626 315.732073 
L 698.534759 329.110468 
L 700.459893 334.208456 
L 702.385027 338.852161 
L 704.31016 374.328358 
L 706.235294 438.851099 
L 708.160428 405.853583 
L 710.085562 375.589709 
L 712.010695 425.171886 
L 713.935829 418.783811 
L 715.860963 403.355948 
L 717.786096 343.712308 
L 719.71123 333.8734 
L 721.636364 334.044596 
L 723.561497 453.688944 
L 725.486631 503.698501 
L 727.411765 458.32837 
L 729.336898 339.160315 
L 731.262032 330.37182 
L 735.112299 239.830267 
L 737.037433 282.048548 
L 738.962567 287.073777 
L 740.887701 301.402925 
L 742.812834 328.6623 
L 744.737968 353.449109 
L 746.663102 356.668215 
L 748.588235 387.743817 
L 750.513369 444.746984 
L 752.438503 505.348422 
L 754.363636 537.408928 
L 756.28877 509.71667 
L 758.213904 383.572969 
L 760.139037 348.511924 
L 762.064171 357.328544 
L 763.989305 356.3943 
L 765.914439 400.965311 
L 767.839572 451.288554 
L 769.764706 321.269057 
L 771.68984 297.686738 
L 773.614973 301.337504 
L 775.540107 247.280754 
L 777.465241 246.494091 
L 779.390374 224.832841 
L 781.315508 163.696938 
L 783.240642 197.059876 
L 785.165775 227.25466 
L 787.090909 229.524848 
L 789.016043 270.036056 
L 790.941176 269.103035 
L 792.86631 269.098144 
L 794.791444 285.503049 
L 796.716578 350.527763 
L 798.641711 421.226418 
L 800.566845 401.851253 
L 802.491979 397.953476 
L 804.417112 425.539959 
L 806.342246 418.622464 
L 808.26738 392.032522 
L 810.192513 309.109825 
L 812.117647 277.837726 
L 814.042781 277.588879 
L 815.967914 428.176385 
L 817.893048 422.79042 
L 819.818182 379.285108 
L 821.743316 250.678623 
L 823.668449 214.26696 
L 825.593583 210.149684 
L 827.518717 156.888004 
L 829.44385 335.12558 
L 831.368984 339.595032 
L 833.294118 308.94352 
L 835.219251 255.375521 
L 837.144385 257.138845 
L 839.069519 262.358504 
L 840.994652 273.90632 
L 842.919786 282.769408 
L 844.84492 217.750197 
L 846.770053 224.038612 
L 848.695187 229.661806 
L 850.620321 238.140924 
L 852.545455 299.250129 
L 854.470588 366.801214 
L 856.395722 322.901975 
L 858.320856 269.389178 
L 860.245989 241.171585 
L 862.171123 241.477684 
L 864.096257 229.224643 
L 866.02139 232.289061 
L 867.946524 268.851481 
L 869.871658 308.160907 
L 871.796791 279.483658 
L 873.721925 247.117444 
L 875.647059 284.098656 
L 877.572193 296.79835 
L 879.497326 303.632148 
L 881.42246 259.820516 
L 883.347594 235.559525 
L 885.272727 229.906372 
L 887.197861 222.445261 
L 889.122995 272.99531 
L 891.048128 344.277868 
L 892.973262 305.281749 
L 894.898396 288.924534 
L 896.823529 310.03612 
L 898.748663 324.77055 
L 900.673797 362.026054 
L 902.59893 282.417844 
L 904.524064 258.410591 
L 906.449198 270.045839 
L 908.374332 391.062816 
L 910.299465 434.955284 
L 912.224599 383.023553 
L 914.149733 388.405602 
L 916.074866 381.112019 
L 918 255.530209 
L 919.925134 222.694108 
L 921.850267 314.269565 
L 923.775401 337.082723 
L 925.700535 268.830955 
L 927.625668 273.062566 
L 929.550802 291.234464 
L 931.475936 292.47625 
L 933.40107 247.133632 
L 935.326203 240.230133 
L 937.251337 294.047589 
L 939.176471 297.038637 
L 941.101604 279.80832 
L 943.026738 208.585332 
L 944.951872 194.728547 
L 946.877005 193.526503 
L 948.802139 191.499047 
L 950.727273 202.176818 
L 952.652406 190.416491 
L 954.57754 195.691964 
L 956.502674 183.486439 
L 958.427807 162.062419 
L 960.352941 183.65479 
L 962.278075 202.544279 
L 964.203209 144.024421 
L 966.128342 114.654059 
L 968.053476 124.312366 
L 969.97861 121.748087 
L 971.903743 134.420908 
L 973.828877 214.776881 
L 975.754011 312.386404 
L 977.679144 332.991126 
L 979.604278 398.207825 
L 981.529412 396.063588 
L 983.454545 375.379382 
L 985.379679 374.725167 
L 987.304813 350.977765 
L 989.229947 396.242122 
L 991.15508 377.22647 
L 993.080214 370.002589 
L 995.005348 294.503094 
L 996.930481 301.286756 
L 998.855615 290.730657 
L 1000.780749 426.210682 
L 1002.705882 446.647265 
L 1004.631016 317.809053 
L 1006.55615 244.283822 
L 1008.481283 219.756253 
L 1010.406417 219.595451 
L 1012.331551 221.523857 
L 1014.256684 212.266406 
L 1016.181818 205.167254 
L 1018.106952 204.989943 
L 1020.032086 205.247961 
L 1021.957219 206.88839 
L 1023.882353 217.33688 
L 1025.807487 210.593572 
L 1027.73262 216.886266 
L 1029.657754 208.652326 
L 1031.582888 213.375515 
L 1033.508021 200.433059 
L 1037.358289 220.982754 
L 1039.283422 233.780304 
L 1041.208556 227.551197 
L 1043.13369 176.068739 
L 1045.058824 182.608797 
L 1046.983957 197.254307 
L 1048.909091 223.23032 
L 1050.834225 170.640587 
L 1052.759358 159.876606 
L 1054.684492 213.554107 
L 1056.609626 246.150475 
L 1058.534759 253.814576 
L 1060.459893 287.128805 
L 1062.385027 314.692054 
L 1064.31016 315.235603 
L 1066.235294 339.793131 
L 1068.160428 353.993881 
L 1070.085562 377.153711 
L 1072.010695 386.968163 
L 1073.935829 401.304036 
L 1075.860963 400.443773 
L 1077.786096 335.335296 
L 1079.71123 314.248777 
L 1081.636364 361.1609 
L 1083.561497 359.899549 
L 1085.486631 349.872936 
L 1087.411765 271.874584 
L 1091.262032 315.35972 
L 1093.187166 436.248912 
L 1095.112299 404.114104 
L 1097.037433 312.830292 
L 1098.962567 235.427459 
L 1100.887701 232.926768 
L 1102.812834 186.240577 
L 1104.737968 158.966208 
L 1106.663102 186.824159 
L 1108.588235 169.739971 
L 1110.513369 175.571657 
L 1112.438503 166.525145 
L 1114.363636 155.880391 
L 1116.28877 210.86504 
L 1118.213904 262.453274 
L 1120.139037 286.655569 
L 1122.064171 333.858726 
L 1123.989305 345.417547 
L 1125.914439 358.73847 
L 1127.839572 350.705685 
L 1129.764706 339.192108 
L 1131.68984 330.76496 
L 1133.614973 325.18212 
L 1135.540107 341.696469 
L 1137.465241 392.406058 
L 1139.390374 383.954289 
L 1141.315508 344.435118 
L 1143.240642 327.595525 
L 1145.165775 353.780976 
L 1149.016043 419.340199 
L 1150.941176 466.604233 
L 1152.86631 493.196819 
L 1154.791444 465.870799 
L 1156.716578 471.449971 
L 1158.641711 440.510482 
L 1160.566845 456.860971 
L 1162.491979 351.169138 
L 1164.417112 329.681531 
L 1166.342246 326.060114 
L 1168.26738 452.912446 
L 1170.192513 395.76216 
L 1172.117647 366.209363 
L 1174.042781 394.407996 
L 1175.967914 366.214254 
L 1177.893048 324.324303 
L 1179.818182 251.310827 
L 1181.743316 194.724267 
L 1183.668449 143.228969 
L 1185.593583 283.546518 
L 1187.518717 307.495075 
L 1189.44385 250.709805 
L 1191.368984 224.426249 
L 1193.294118 245.048703 
L 1195.219251 196.513882 
L 1197.144385 99.998182 
L 1199.069519 115.879715 
L 1200.994652 155.55206 
L 1202.919786 133.865742 
L 1204.84492 141.604436 
L 1206.770053 132.377556 
L 1208.695187 144.800308 
L 1210.620321 150.72921 
L 1212.545455 181.542136 
L 1214.470588 232.402172 
L 1216.395722 274.786759 
L 1218.320856 312.17302 
L 1220.245989 339.97839 
L 1222.171123 372.820605 
L 1224.096257 396.182203 
L 1226.02139 390.390258 
L 1227.946524 402.432099 
L 1229.871658 413.166265 
L 1231.796791 420.588711 
L 1233.721925 399.367681 
L 1235.647059 365.116151 
L 1237.572193 390.478961 
L 1239.497326 421.834777 
L 1245.272727 421.834777 
L 1245.272727 421.834777 
" style="fill:none;stroke:#1f77b4;stroke-linecap:round;stroke-width:1.5;"/>
   </g>
   <g id="patch_3">
    <path d="M 180 567 
L 180 77.76 
" style="fill:none;stroke:#cccccc;stroke-linecap:square;stroke-linejoin:miter;stroke-width:0.8;"/>
   </g>
   <g id="patch_4">
    <path d="M 1296 567 
L 1296 77.76 
" style="fill:none;stroke:#cccccc;stroke-linecap:square;stroke-linejoin:miter;stroke-width:0.8;"/>
   </g>
   <g id="patch_5">
    <path d="M 180 567 
L 1296 567 
" style="fill:none;stroke:#cccccc;stroke-linecap:square;stroke-linejoin:miter;stroke-width:0.8;"/>
   </g>
   <g id="patch_6">
    <path d="M 180 77.76 
L 1296 77.76 
" style="fill:none;stroke:#cccccc;stroke-linecap:square;stroke-linejoin:miter;stroke-width:0.8;"/>
   </g>
   <g id="text_15">
    <!-- Electric cluster power consumption in kW during the year employed for forecasting the chillers electrical consumption -->
    <defs>
     <path d="M 45.609375 46.6875 
L 45.609375 75.984375 
L 63.1875 75.984375 
L 63.1875 0 
L 45.609375 0 
L 45.609375 7.90625 
Q 42 3.078125 37.640625 0.828125 
Q 33.296875 -1.421875 27.59375 -1.421875 
Q 17.484375 -1.421875 10.984375 6.609375 
Q 4.5 14.65625 4.5 27.296875 
Q 4.5 39.9375 10.984375 47.96875 
Q 17.484375 56 27.59375 56 
Q 33.25 56 37.625 53.734375 
Q 42 51.46875 45.609375 46.6875 
z
M 34.078125 11.28125 
Q 39.703125 11.28125 42.65625 15.375 
Q 45.609375 19.484375 45.609375 27.296875 
Q 45.609375 35.109375 42.65625 39.203125 
Q 39.703125 43.3125 34.078125 43.3125 
Q 28.515625 43.3125 25.5625 39.203125 
Q 22.609375 35.109375 22.609375 27.296875 
Q 22.609375 19.484375 25.5625 15.375 
Q 28.515625 11.28125 34.078125 11.28125 
z
" id="DejaVuSans-Bold-100"/>
     <path d="M 45.609375 9.28125 
Q 42 4.5 37.640625 2.25 
Q 33.296875 0 27.59375 0 
Q 17.578125 0 11.03125 7.875 
Q 4.5 15.765625 4.5 27.984375 
Q 4.5 40.234375 11.03125 48.0625 
Q 17.578125 55.90625 27.59375 55.90625 
Q 33.296875 55.90625 37.640625 53.65625 
Q 42 51.421875 45.609375 46.578125 
L 45.609375 54.6875 
L 63.1875 54.6875 
L 63.1875 5.515625 
Q 63.1875 -7.671875 54.859375 -14.625 
Q 46.53125 -21.578125 30.71875 -21.578125 
Q 25.59375 -21.578125 20.796875 -20.796875 
Q 16.015625 -20.015625 11.1875 -18.40625 
L 11.1875 -4.78125 
Q 15.765625 -7.421875 20.15625 -8.71875 
Q 24.5625 -10.015625 29 -10.015625 
Q 37.59375 -10.015625 41.59375 -6.25 
Q 45.609375 -2.484375 45.609375 5.515625 
z
M 34.078125 43.3125 
Q 28.65625 43.3125 25.625 39.296875 
Q 22.609375 35.296875 22.609375 27.984375 
Q 22.609375 20.453125 25.53125 16.578125 
Q 28.46875 12.703125 34.078125 12.703125 
Q 39.546875 12.703125 42.578125 16.703125 
Q 45.609375 20.703125 45.609375 27.984375 
Q 45.609375 35.296875 42.578125 39.296875 
Q 39.546875 43.3125 34.078125 43.3125 
z
" id="DejaVuSans-Bold-103"/>
     <path d="M 63.375 33.296875 
L 63.375 0 
L 45.796875 0 
L 45.796875 5.421875 
L 45.796875 25.390625 
Q 45.796875 32.5625 45.484375 35.25 
Q 45.171875 37.9375 44.390625 39.203125 
Q 43.359375 40.921875 41.59375 41.875 
Q 39.84375 42.828125 37.59375 42.828125 
Q 32.125 42.828125 29 38.59375 
Q 25.875 34.375 25.875 26.90625 
L 25.875 0 
L 8.40625 0 
L 8.40625 75.984375 
L 25.875 75.984375 
L 25.875 46.6875 
Q 29.828125 51.46875 34.265625 53.734375 
Q 38.71875 56 44.09375 56 
Q 53.5625 56 58.46875 50.1875 
Q 63.375 44.390625 63.375 33.296875 
z
" id="DejaVuSans-Bold-104"/>
     <path d="M 1.21875 54.6875 
L 18.703125 54.6875 
L 33.40625 17.578125 
L 45.90625 54.6875 
L 63.375 54.6875 
L 40.375 -5.171875 
Q 36.921875 -14.3125 32.296875 -17.9375 
Q 27.6875 -21.578125 20.125 -21.578125 
L 10.015625 -21.578125 
L 10.015625 -10.109375 
L 15.484375 -10.109375 
Q 19.921875 -10.109375 21.9375 -8.6875 
Q 23.96875 -7.28125 25.09375 -3.609375 
L 25.59375 -2.09375 
z
" id="DejaVuSans-Bold-121"/>
     <path d="M 32.90625 24.609375 
Q 27.4375 24.609375 24.671875 22.75 
Q 21.921875 20.90625 21.921875 17.28125 
Q 21.921875 13.96875 24.140625 12.078125 
Q 26.375 10.203125 30.328125 10.203125 
Q 35.25 10.203125 38.625 13.734375 
Q 42 17.28125 42 22.609375 
L 42 24.609375 
z
M 59.625 31.203125 
L 59.625 0 
L 42 0 
L 42 8.109375 
Q 38.484375 3.125 34.078125 0.84375 
Q 29.6875 -1.421875 23.390625 -1.421875 
Q 14.890625 -1.421875 9.59375 3.53125 
Q 4.296875 8.5 4.296875 16.40625 
Q 4.296875 26.03125 10.90625 30.515625 
Q 17.53125 35.015625 31.6875 35.015625 
L 42 35.015625 
L 42 36.375 
Q 42 40.53125 38.71875 42.453125 
Q 35.453125 44.390625 28.515625 44.390625 
Q 22.90625 44.390625 18.0625 43.265625 
Q 13.234375 42.140625 9.078125 39.890625 
L 9.078125 53.21875 
Q 14.703125 54.59375 20.359375 55.296875 
Q 26.03125 56 31.6875 56 
Q 46.484375 56 53.046875 50.171875 
Q 59.625 44.34375 59.625 31.203125 
z
" id="DejaVuSans-Bold-97"/>
     <path d="M 44.390625 75.984375 
L 44.390625 64.5 
L 34.71875 64.5 
Q 31 64.5 29.53125 63.15625 
Q 28.078125 61.8125 28.078125 58.5 
L 28.078125 54.6875 
L 43.015625 54.6875 
L 43.015625 42.1875 
L 28.078125 42.1875 
L 28.078125 0 
L 10.59375 0 
L 10.59375 42.1875 
L 1.90625 42.1875 
L 1.90625 54.6875 
L 10.59375 54.6875 
L 10.59375 58.5 
Q 10.59375 67.4375 15.578125 71.703125 
Q 20.5625 75.984375 31 75.984375 
z
" id="DejaVuSans-Bold-102"/>
    </defs>
    <g style="fill:#262626;" transform="translate(68.354687 71.76)scale(0.2 -0.2)">
     <use xlink:href="#DejaVuSans-Bold-69"/>
     <use x="68.310547" xlink:href="#DejaVuSans-Bold-108"/>
     <use x="102.587891" xlink:href="#DejaVuSans-Bold-101"/>
     <use x="170.410156" xlink:href="#DejaVuSans-Bold-99"/>
     <use x="229.6875" xlink:href="#DejaVuSans-Bold-116"/>
     <use x="277.490234" xlink:href="#DejaVuSans-Bold-114"/>
     <use x="326.806641" xlink:href="#DejaVuSans-Bold-105"/>
     <use x="361.083984" xlink:href="#DejaVuSans-Bold-99"/>
     <use x="420.361328" xlink:href="#DejaVuSans-Bold-32"/>
     <use x="455.175781" xlink:href="#DejaVuSans-Bold-99"/>
     <use x="514.453125" xlink:href="#DejaVuSans-Bold-108"/>
     <use x="548.730469" xlink:href="#DejaVuSans-Bold-117"/>
     <use x="619.921875" xlink:href="#DejaVuSans-Bold-115"/>
     <use x="679.443359" xlink:href="#DejaVuSans-Bold-116"/>
     <use x="727.246094" xlink:href="#DejaVuSans-Bold-101"/>
     <use x="795.068359" xlink:href="#DejaVuSans-Bold-114"/>
     <use x="844.384766" xlink:href="#DejaVuSans-Bold-32"/>
     <use x="879.199219" xlink:href="#DejaVuSans-Bold-112"/>
     <use x="950.78125" xlink:href="#DejaVuSans-Bold-111"/>
     <use x="1019.482422" xlink:href="#DejaVuSans-Bold-119"/>
     <use x="1111.865234" xlink:href="#DejaVuSans-Bold-101"/>
     <use x="1179.6875" xlink:href="#DejaVuSans-Bold-114"/>
     <use x="1229.003906" xlink:href="#DejaVuSans-Bold-32"/>
     <use x="1263.818359" xlink:href="#DejaVuSans-Bold-99"/>
     <use x="1323.095703" xlink:href="#DejaVuSans-Bold-111"/>
     <use x="1391.796875" xlink:href="#DejaVuSans-Bold-110"/>
     <use x="1462.988281" xlink:href="#DejaVuSans-Bold-115"/>
     <use x="1522.509766" xlink:href="#DejaVuSans-Bold-117"/>
     <use x="1593.701172" xlink:href="#DejaVuSans-Bold-109"/>
     <use x="1697.900391" xlink:href="#DejaVuSans-Bold-112"/>
     <use x="1769.482422" xlink:href="#DejaVuSans-Bold-116"/>
     <use x="1817.285156" xlink:href="#DejaVuSans-Bold-105"/>
     <use x="1851.5625" xlink:href="#DejaVuSans-Bold-111"/>
     <use x="1920.263672" xlink:href="#DejaVuSans-Bold-110"/>
     <use x="1991.455078" xlink:href="#DejaVuSans-Bold-32"/>
     <use x="2026.269531" xlink:href="#DejaVuSans-Bold-105"/>
     <use x="2060.546875" xlink:href="#DejaVuSans-Bold-110"/>
     <use x="2131.738281" xlink:href="#DejaVuSans-Bold-32"/>
     <use x="2166.552734" xlink:href="#DejaVuSans-Bold-107"/>
     <use x="2233.056641" xlink:href="#DejaVuSans-Bold-87"/>
     <use x="2343.359375" xlink:href="#DejaVuSans-Bold-32"/>
     <use x="2378.173828" xlink:href="#DejaVuSans-Bold-100"/>
     <use x="2449.755859" xlink:href="#DejaVuSans-Bold-117"/>
     <use x="2520.947266" xlink:href="#DejaVuSans-Bold-114"/>
     <use x="2570.263672" xlink:href="#DejaVuSans-Bold-105"/>
     <use x="2604.541016" xlink:href="#DejaVuSans-Bold-110"/>
     <use x="2675.732422" xlink:href="#DejaVuSans-Bold-103"/>
     <use x="2747.314453" xlink:href="#DejaVuSans-Bold-32"/>
     <use x="2782.128906" xlink:href="#DejaVuSans-Bold-116"/>
     <use x="2829.931641" xlink:href="#DejaVuSans-Bold-104"/>
     <use x="2901.123047" xlink:href="#DejaVuSans-Bold-101"/>
     <use x="2968.945312" xlink:href="#DejaVuSans-Bold-32"/>
     <use x="3003.759766" xlink:href="#DejaVuSans-Bold-121"/>
     <use x="3068.945312" xlink:href="#DejaVuSans-Bold-101"/>
     <use x="3136.767578" xlink:href="#DejaVuSans-Bold-97"/>
     <use x="3204.248047" xlink:href="#DejaVuSans-Bold-114"/>
     <use x="3253.564453" xlink:href="#DejaVuSans-Bold-32"/>
     <use x="3288.378906" xlink:href="#DejaVuSans-Bold-101"/>
     <use x="3356.201172" xlink:href="#DejaVuSans-Bold-109"/>
     <use x="3460.400391" xlink:href="#DejaVuSans-Bold-112"/>
     <use x="3531.982422" xlink:href="#DejaVuSans-Bold-108"/>
     <use x="3566.259766" xlink:href="#DejaVuSans-Bold-111"/>
     <use x="3634.960938" xlink:href="#DejaVuSans-Bold-121"/>
     <use x="3700.146484" xlink:href="#DejaVuSans-Bold-101"/>
     <use x="3767.96875" xlink:href="#DejaVuSans-Bold-100"/>
     <use x="3839.550781" xlink:href="#DejaVuSans-Bold-32"/>
     <use x="3874.365234" xlink:href="#DejaVuSans-Bold-102"/>
     <use x="3917.871094" xlink:href="#DejaVuSans-Bold-111"/>
     <use x="3986.572266" xlink:href="#DejaVuSans-Bold-114"/>
     <use x="4035.888672" xlink:href="#DejaVuSans-Bold-32"/>
     <use x="4070.703125" xlink:href="#DejaVuSans-Bold-102"/>
     <use x="4114.208984" xlink:href="#DejaVuSans-Bold-111"/>
     <use x="4182.910156" xlink:href="#DejaVuSans-Bold-114"/>
     <use x="4232.226562" xlink:href="#DejaVuSans-Bold-101"/>
     <use x="4300.048828" xlink:href="#DejaVuSans-Bold-99"/>
     <use x="4359.326172" xlink:href="#DejaVuSans-Bold-97"/>
     <use x="4426.806641" xlink:href="#DejaVuSans-Bold-115"/>
     <use x="4486.328125" xlink:href="#DejaVuSans-Bold-116"/>
     <use x="4534.130859" xlink:href="#DejaVuSans-Bold-105"/>
     <use x="4568.408203" xlink:href="#DejaVuSans-Bold-110"/>
     <use x="4639.599609" xlink:href="#DejaVuSans-Bold-103"/>
     <use x="4711.181641" xlink:href="#DejaVuSans-Bold-32"/>
     <use x="4745.996094" xlink:href="#DejaVuSans-Bold-116"/>
     <use x="4793.798828" xlink:href="#DejaVuSans-Bold-104"/>
     <use x="4864.990234" xlink:href="#DejaVuSans-Bold-101"/>
     <use x="4932.8125" xlink:href="#DejaVuSans-Bold-32"/>
     <use x="4967.626953" xlink:href="#DejaVuSans-Bold-99"/>
     <use x="5026.904297" xlink:href="#DejaVuSans-Bold-104"/>
     <use x="5098.095703" xlink:href="#DejaVuSans-Bold-105"/>
     <use x="5132.373047" xlink:href="#DejaVuSans-Bold-108"/>
     <use x="5166.650391" xlink:href="#DejaVuSans-Bold-108"/>
     <use x="5200.927734" xlink:href="#DejaVuSans-Bold-101"/>
     <use x="5268.75" xlink:href="#DejaVuSans-Bold-114"/>
     <use x="5318.066406" xlink:href="#DejaVuSans-Bold-115"/>
     <use x="5377.587891" xlink:href="#DejaVuSans-Bold-32"/>
     <use x="5412.402344" xlink:href="#DejaVuSans-Bold-101"/>
     <use x="5480.224609" xlink:href="#DejaVuSans-Bold-108"/>
     <use x="5514.501953" xlink:href="#DejaVuSans-Bold-101"/>
     <use x="5582.324219" xlink:href="#DejaVuSans-Bold-99"/>
     <use x="5641.601562" xlink:href="#DejaVuSans-Bold-116"/>
     <use x="5689.404297" xlink:href="#DejaVuSans-Bold-114"/>
     <use x="5738.720703" xlink:href="#DejaVuSans-Bold-105"/>
     <use x="5772.998047" xlink:href="#DejaVuSans-Bold-99"/>
     <use x="5832.275391" xlink:href="#DejaVuSans-Bold-97"/>
     <use x="5899.755859" xlink:href="#DejaVuSans-Bold-108"/>
     <use x="5934.033203" xlink:href="#DejaVuSans-Bold-32"/>
     <use x="5968.847656" xlink:href="#DejaVuSans-Bold-99"/>
     <use x="6028.125" xlink:href="#DejaVuSans-Bold-111"/>
     <use x="6096.826172" xlink:href="#DejaVuSans-Bold-110"/>
     <use x="6168.017578" xlink:href="#DejaVuSans-Bold-115"/>
     <use x="6227.539062" xlink:href="#DejaVuSans-Bold-117"/>
     <use x="6298.730469" xlink:href="#DejaVuSans-Bold-109"/>
     <use x="6402.929688" xlink:href="#DejaVuSans-Bold-112"/>
     <use x="6474.511719" xlink:href="#DejaVuSans-Bold-116"/>
     <use x="6522.314453" xlink:href="#DejaVuSans-Bold-105"/>
     <use x="6556.591797" xlink:href="#DejaVuSans-Bold-111"/>
     <use x="6625.292969" xlink:href="#DejaVuSans-Bold-110"/>
    </g>
   </g>
  </g>
 </g>
 <defs>
  <clipPath id="p4e8d165079">
   <rect height="489.24" width="1116" x="180" y="77.76"/>
  </clipPath>
 </defs>
</svg>
