<?xml version="1.0" encoding="utf-8" standalone="no"?>
<!DOCTYPE svg PUBLIC "-//W3C//DTD SVG 1.1//EN"
  "http://www.w3.org/Graphics/SVG/1.1/DTD/svg11.dtd">
<!-- Created with matplotlib (https://matplotlib.org/) -->
<svg height="432pt" version="1.1" viewBox="0 0 1080 432" width="1080pt" xmlns="http://www.w3.org/2000/svg" xmlns:xlink="http://www.w3.org/1999/xlink">
 <defs>
  <style type="text/css">
*{stroke-linecap:butt;stroke-linejoin:round;}
  </style>
 </defs>
 <g id="figure_1">
  <g id="patch_1">
   <path d="M 0 432 
L 1080 432 
L 1080 0 
L 0 0 
z
" style="fill:#ffffff;"/>
  </g>
  <g id="axes_1">
   <g id="patch_2">
    <path d="M 135 378 
L 972 378 
L 972 51.84 
L 135 51.84 
z
" style="fill:#ffffff;"/>
   </g>
   <g id="matplotlib.axis_1">
    <g id="xtick_1">
     <g id="line2d_1">
      <path clip-path="url(#p8901289866)" d="M 173.045455 378 
L 173.045455 51.84 
" style="fill:none;stroke:#cccccc;stroke-linecap:round;stroke-width:0.8;"/>
     </g>
     <g id="text_1">
      <!-- 2020-08-01 -->
      <defs>
       <path d="M 19.1875 8.296875 
L 53.609375 8.296875 
L 53.609375 0 
L 7.328125 0 
L 7.328125 8.296875 
Q 12.9375 14.109375 22.625 23.890625 
Q 32.328125 33.6875 34.8125 36.53125 
Q 39.546875 41.84375 41.421875 45.53125 
Q 43.3125 49.21875 43.3125 52.78125 
Q 43.3125 58.59375 39.234375 62.25 
Q 35.15625 65.921875 28.609375 65.921875 
Q 23.96875 65.921875 18.8125 64.3125 
Q 13.671875 62.703125 7.8125 59.421875 
L 7.8125 69.390625 
Q 13.765625 71.78125 18.9375 73 
Q 24.125 74.21875 28.421875 74.21875 
Q 39.75 74.21875 46.484375 68.546875 
Q 53.21875 62.890625 53.21875 53.421875 
Q 53.21875 48.921875 51.53125 44.890625 
Q 49.859375 40.875 45.40625 35.40625 
Q 44.1875 33.984375 37.640625 27.21875 
Q 31.109375 20.453125 19.1875 8.296875 
z
" id="DejaVuSans-50"/>
       <path d="M 31.78125 66.40625 
Q 24.171875 66.40625 20.328125 58.90625 
Q 16.5 51.421875 16.5 36.375 
Q 16.5 21.390625 20.328125 13.890625 
Q 24.171875 6.390625 31.78125 6.390625 
Q 39.453125 6.390625 43.28125 13.890625 
Q 47.125 21.390625 47.125 36.375 
Q 47.125 51.421875 43.28125 58.90625 
Q 39.453125 66.40625 31.78125 66.40625 
z
M 31.78125 74.21875 
Q 44.046875 74.21875 50.515625 64.515625 
Q 56.984375 54.828125 56.984375 36.375 
Q 56.984375 17.96875 50.515625 8.265625 
Q 44.046875 -1.421875 31.78125 -1.421875 
Q 19.53125 -1.421875 13.0625 8.265625 
Q 6.59375 17.96875 6.59375 36.375 
Q 6.59375 54.828125 13.0625 64.515625 
Q 19.53125 74.21875 31.78125 74.21875 
z
" id="DejaVuSans-48"/>
       <path d="M 4.890625 31.390625 
L 31.203125 31.390625 
L 31.203125 23.390625 
L 4.890625 23.390625 
z
" id="DejaVuSans-45"/>
       <path d="M 31.78125 34.625 
Q 24.75 34.625 20.71875 30.859375 
Q 16.703125 27.09375 16.703125 20.515625 
Q 16.703125 13.921875 20.71875 10.15625 
Q 24.75 6.390625 31.78125 6.390625 
Q 38.8125 6.390625 42.859375 10.171875 
Q 46.921875 13.96875 46.921875 20.515625 
Q 46.921875 27.09375 42.890625 30.859375 
Q 38.875 34.625 31.78125 34.625 
z
M 21.921875 38.8125 
Q 15.578125 40.375 12.03125 44.71875 
Q 8.5 49.078125 8.5 55.328125 
Q 8.5 64.0625 14.71875 69.140625 
Q 20.953125 74.21875 31.78125 74.21875 
Q 42.671875 74.21875 48.875 69.140625 
Q 55.078125 64.0625 55.078125 55.328125 
Q 55.078125 49.078125 51.53125 44.71875 
Q 48 40.375 41.703125 38.8125 
Q 48.828125 37.15625 52.796875 32.3125 
Q 56.78125 27.484375 56.78125 20.515625 
Q 56.78125 9.90625 50.3125 4.234375 
Q 43.84375 -1.421875 31.78125 -1.421875 
Q 19.734375 -1.421875 13.25 4.234375 
Q 6.78125 9.90625 6.78125 20.515625 
Q 6.78125 27.484375 10.78125 32.3125 
Q 14.796875 37.15625 21.921875 38.8125 
z
M 18.3125 54.390625 
Q 18.3125 48.734375 21.84375 45.5625 
Q 25.390625 42.390625 31.78125 42.390625 
Q 38.140625 42.390625 41.71875 45.5625 
Q 45.3125 48.734375 45.3125 54.390625 
Q 45.3125 60.0625 41.71875 63.234375 
Q 38.140625 66.40625 31.78125 66.40625 
Q 25.390625 66.40625 21.84375 63.234375 
Q 18.3125 60.0625 18.3125 54.390625 
z
" id="DejaVuSans-56"/>
       <path d="M 12.40625 8.296875 
L 28.515625 8.296875 
L 28.515625 63.921875 
L 10.984375 60.40625 
L 10.984375 69.390625 
L 28.421875 72.90625 
L 38.28125 72.90625 
L 38.28125 8.296875 
L 54.390625 8.296875 
L 54.390625 0 
L 12.40625 0 
z
" id="DejaVuSans-49"/>
      </defs>
      <g style="fill:#262626;" transform="translate(126.552955 397.1575)scale(0.16 -0.16)">
       <use xlink:href="#DejaVuSans-50"/>
       <use x="63.623047" xlink:href="#DejaVuSans-48"/>
       <use x="127.246094" xlink:href="#DejaVuSans-50"/>
       <use x="190.869141" xlink:href="#DejaVuSans-48"/>
       <use x="254.492188" xlink:href="#DejaVuSans-45"/>
       <use x="290.576172" xlink:href="#DejaVuSans-48"/>
       <use x="354.199219" xlink:href="#DejaVuSans-56"/>
       <use x="417.822266" xlink:href="#DejaVuSans-45"/>
       <use x="453.90625" xlink:href="#DejaVuSans-48"/>
       <use x="517.529297" xlink:href="#DejaVuSans-49"/>
      </g>
     </g>
    </g>
    <g id="xtick_2">
     <g id="line2d_2">
      <path clip-path="url(#p8901289866)" d="M 273.582401 378 
L 273.582401 51.84 
" style="fill:none;stroke:#cccccc;stroke-linecap:round;stroke-width:0.8;"/>
     </g>
     <g id="text_2">
      <!-- 2020-08-08 -->
      <g style="fill:#262626;" transform="translate(227.089901 397.1575)scale(0.16 -0.16)">
       <use xlink:href="#DejaVuSans-50"/>
       <use x="63.623047" xlink:href="#DejaVuSans-48"/>
       <use x="127.246094" xlink:href="#DejaVuSans-50"/>
       <use x="190.869141" xlink:href="#DejaVuSans-48"/>
       <use x="254.492188" xlink:href="#DejaVuSans-45"/>
       <use x="290.576172" xlink:href="#DejaVuSans-48"/>
       <use x="354.199219" xlink:href="#DejaVuSans-56"/>
       <use x="417.822266" xlink:href="#DejaVuSans-45"/>
       <use x="453.90625" xlink:href="#DejaVuSans-48"/>
       <use x="517.529297" xlink:href="#DejaVuSans-56"/>
      </g>
     </g>
    </g>
    <g id="xtick_3">
     <g id="line2d_3">
      <path clip-path="url(#p8901289866)" d="M 374.119347 378 
L 374.119347 51.84 
" style="fill:none;stroke:#cccccc;stroke-linecap:round;stroke-width:0.8;"/>
     </g>
     <g id="text_3">
      <!-- 2020-08-15 -->
      <defs>
       <path d="M 10.796875 72.90625 
L 49.515625 72.90625 
L 49.515625 64.59375 
L 19.828125 64.59375 
L 19.828125 46.734375 
Q 21.96875 47.46875 24.109375 47.828125 
Q 26.265625 48.1875 28.421875 48.1875 
Q 40.625 48.1875 47.75 41.5 
Q 54.890625 34.8125 54.890625 23.390625 
Q 54.890625 11.625 47.5625 5.09375 
Q 40.234375 -1.421875 26.90625 -1.421875 
Q 22.3125 -1.421875 17.546875 -0.640625 
Q 12.796875 0.140625 7.71875 1.703125 
L 7.71875 11.625 
Q 12.109375 9.234375 16.796875 8.0625 
Q 21.484375 6.890625 26.703125 6.890625 
Q 35.15625 6.890625 40.078125 11.328125 
Q 45.015625 15.765625 45.015625 23.390625 
Q 45.015625 31 40.078125 35.4375 
Q 35.15625 39.890625 26.703125 39.890625 
Q 22.75 39.890625 18.8125 39.015625 
Q 14.890625 38.140625 10.796875 36.28125 
z
" id="DejaVuSans-53"/>
      </defs>
      <g style="fill:#262626;" transform="translate(327.626847 397.1575)scale(0.16 -0.16)">
       <use xlink:href="#DejaVuSans-50"/>
       <use x="63.623047" xlink:href="#DejaVuSans-48"/>
       <use x="127.246094" xlink:href="#DejaVuSans-50"/>
       <use x="190.869141" xlink:href="#DejaVuSans-48"/>
       <use x="254.492188" xlink:href="#DejaVuSans-45"/>
       <use x="290.576172" xlink:href="#DejaVuSans-48"/>
       <use x="354.199219" xlink:href="#DejaVuSans-56"/>
       <use x="417.822266" xlink:href="#DejaVuSans-45"/>
       <use x="453.90625" xlink:href="#DejaVuSans-49"/>
       <use x="517.529297" xlink:href="#DejaVuSans-53"/>
      </g>
     </g>
    </g>
    <g id="xtick_4">
     <g id="line2d_4">
      <path clip-path="url(#p8901289866)" d="M 474.656294 378 
L 474.656294 51.84 
" style="fill:none;stroke:#cccccc;stroke-linecap:round;stroke-width:0.8;"/>
     </g>
     <g id="text_4">
      <!-- 2020-08-22 -->
      <g style="fill:#262626;" transform="translate(428.163794 397.1575)scale(0.16 -0.16)">
       <use xlink:href="#DejaVuSans-50"/>
       <use x="63.623047" xlink:href="#DejaVuSans-48"/>
       <use x="127.246094" xlink:href="#DejaVuSans-50"/>
       <use x="190.869141" xlink:href="#DejaVuSans-48"/>
       <use x="254.492188" xlink:href="#DejaVuSans-45"/>
       <use x="290.576172" xlink:href="#DejaVuSans-48"/>
       <use x="354.199219" xlink:href="#DejaVuSans-56"/>
       <use x="417.822266" xlink:href="#DejaVuSans-45"/>
       <use x="453.90625" xlink:href="#DejaVuSans-50"/>
       <use x="517.529297" xlink:href="#DejaVuSans-50"/>
      </g>
     </g>
    </g>
    <g id="xtick_5">
     <g id="line2d_5">
      <path clip-path="url(#p8901289866)" d="M 618.280503 378 
L 618.280503 51.84 
" style="fill:none;stroke:#cccccc;stroke-linecap:round;stroke-width:0.8;"/>
     </g>
     <g id="text_5">
      <!-- 2020-09-01 -->
      <defs>
       <path d="M 10.984375 1.515625 
L 10.984375 10.5 
Q 14.703125 8.734375 18.5 7.8125 
Q 22.3125 6.890625 25.984375 6.890625 
Q 35.75 6.890625 40.890625 13.453125 
Q 46.046875 20.015625 46.78125 33.40625 
Q 43.953125 29.203125 39.59375 26.953125 
Q 35.25 24.703125 29.984375 24.703125 
Q 19.046875 24.703125 12.671875 31.3125 
Q 6.296875 37.9375 6.296875 49.421875 
Q 6.296875 60.640625 12.9375 67.421875 
Q 19.578125 74.21875 30.609375 74.21875 
Q 43.265625 74.21875 49.921875 64.515625 
Q 56.59375 54.828125 56.59375 36.375 
Q 56.59375 19.140625 48.40625 8.859375 
Q 40.234375 -1.421875 26.421875 -1.421875 
Q 22.703125 -1.421875 18.890625 -0.6875 
Q 15.09375 0.046875 10.984375 1.515625 
z
M 30.609375 32.421875 
Q 37.25 32.421875 41.125 36.953125 
Q 45.015625 41.5 45.015625 49.421875 
Q 45.015625 57.28125 41.125 61.84375 
Q 37.25 66.40625 30.609375 66.40625 
Q 23.96875 66.40625 20.09375 61.84375 
Q 16.21875 57.28125 16.21875 49.421875 
Q 16.21875 41.5 20.09375 36.953125 
Q 23.96875 32.421875 30.609375 32.421875 
z
" id="DejaVuSans-57"/>
      </defs>
      <g style="fill:#262626;" transform="translate(571.788003 397.1575)scale(0.16 -0.16)">
       <use xlink:href="#DejaVuSans-50"/>
       <use x="63.623047" xlink:href="#DejaVuSans-48"/>
       <use x="127.246094" xlink:href="#DejaVuSans-50"/>
       <use x="190.869141" xlink:href="#DejaVuSans-48"/>
       <use x="254.492188" xlink:href="#DejaVuSans-45"/>
       <use x="290.576172" xlink:href="#DejaVuSans-48"/>
       <use x="354.199219" xlink:href="#DejaVuSans-57"/>
       <use x="417.822266" xlink:href="#DejaVuSans-45"/>
       <use x="453.90625" xlink:href="#DejaVuSans-48"/>
       <use x="517.529297" xlink:href="#DejaVuSans-49"/>
      </g>
     </g>
    </g>
    <g id="xtick_6">
     <g id="line2d_6">
      <path clip-path="url(#p8901289866)" d="M 718.817449 378 
L 718.817449 51.84 
" style="fill:none;stroke:#cccccc;stroke-linecap:round;stroke-width:0.8;"/>
     </g>
     <g id="text_6">
      <!-- 2020-09-08 -->
      <g style="fill:#262626;" transform="translate(672.324949 397.1575)scale(0.16 -0.16)">
       <use xlink:href="#DejaVuSans-50"/>
       <use x="63.623047" xlink:href="#DejaVuSans-48"/>
       <use x="127.246094" xlink:href="#DejaVuSans-50"/>
       <use x="190.869141" xlink:href="#DejaVuSans-48"/>
       <use x="254.492188" xlink:href="#DejaVuSans-45"/>
       <use x="290.576172" xlink:href="#DejaVuSans-48"/>
       <use x="354.199219" xlink:href="#DejaVuSans-57"/>
       <use x="417.822266" xlink:href="#DejaVuSans-45"/>
       <use x="453.90625" xlink:href="#DejaVuSans-48"/>
       <use x="517.529297" xlink:href="#DejaVuSans-56"/>
      </g>
     </g>
    </g>
    <g id="xtick_7">
     <g id="line2d_7">
      <path clip-path="url(#p8901289866)" d="M 819.354395 378 
L 819.354395 51.84 
" style="fill:none;stroke:#cccccc;stroke-linecap:round;stroke-width:0.8;"/>
     </g>
     <g id="text_7">
      <!-- 2020-09-15 -->
      <g style="fill:#262626;" transform="translate(772.861895 397.1575)scale(0.16 -0.16)">
       <use xlink:href="#DejaVuSans-50"/>
       <use x="63.623047" xlink:href="#DejaVuSans-48"/>
       <use x="127.246094" xlink:href="#DejaVuSans-50"/>
       <use x="190.869141" xlink:href="#DejaVuSans-48"/>
       <use x="254.492188" xlink:href="#DejaVuSans-45"/>
       <use x="290.576172" xlink:href="#DejaVuSans-48"/>
       <use x="354.199219" xlink:href="#DejaVuSans-57"/>
       <use x="417.822266" xlink:href="#DejaVuSans-45"/>
       <use x="453.90625" xlink:href="#DejaVuSans-49"/>
       <use x="517.529297" xlink:href="#DejaVuSans-53"/>
      </g>
     </g>
    </g>
    <g id="xtick_8">
     <g id="line2d_8">
      <path clip-path="url(#p8901289866)" d="M 919.891342 378 
L 919.891342 51.84 
" style="fill:none;stroke:#cccccc;stroke-linecap:round;stroke-width:0.8;"/>
     </g>
     <g id="text_8">
      <!-- 2020-09-22 -->
      <g style="fill:#262626;" transform="translate(873.398842 397.1575)scale(0.16 -0.16)">
       <use xlink:href="#DejaVuSans-50"/>
       <use x="63.623047" xlink:href="#DejaVuSans-48"/>
       <use x="127.246094" xlink:href="#DejaVuSans-50"/>
       <use x="190.869141" xlink:href="#DejaVuSans-48"/>
       <use x="254.492188" xlink:href="#DejaVuSans-45"/>
       <use x="290.576172" xlink:href="#DejaVuSans-48"/>
       <use x="354.199219" xlink:href="#DejaVuSans-57"/>
       <use x="417.822266" xlink:href="#DejaVuSans-45"/>
       <use x="453.90625" xlink:href="#DejaVuSans-50"/>
       <use x="517.529297" xlink:href="#DejaVuSans-50"/>
      </g>
     </g>
    </g>
    <g id="text_9">
     <!-- Time -->
     <defs>
      <path d="M 0.484375 72.90625 
L 67.671875 72.90625 
L 67.671875 58.6875 
L 43.5 58.6875 
L 43.5 0 
L 24.703125 0 
L 24.703125 58.6875 
L 0.484375 58.6875 
z
" id="DejaVuSans-Bold-84"/>
      <path d="M 8.40625 54.6875 
L 25.875 54.6875 
L 25.875 0 
L 8.40625 0 
z
M 8.40625 75.984375 
L 25.875 75.984375 
L 25.875 61.71875 
L 8.40625 61.71875 
z
" id="DejaVuSans-Bold-105"/>
      <path d="M 59.078125 45.609375 
Q 62.40625 50.6875 66.96875 53.34375 
Q 71.53125 56 77 56 
Q 86.421875 56 91.359375 50.1875 
Q 96.296875 44.390625 96.296875 33.296875 
L 96.296875 0 
L 78.71875 0 
L 78.71875 28.515625 
Q 78.765625 29.15625 78.78125 29.828125 
Q 78.8125 30.515625 78.8125 31.78125 
Q 78.8125 37.59375 77.09375 40.203125 
Q 75.390625 42.828125 71.578125 42.828125 
Q 66.609375 42.828125 63.890625 38.71875 
Q 61.1875 34.625 61.078125 26.859375 
L 61.078125 0 
L 43.5 0 
L 43.5 28.515625 
Q 43.5 37.59375 41.9375 40.203125 
Q 40.375 42.828125 36.375 42.828125 
Q 31.34375 42.828125 28.609375 38.703125 
Q 25.875 34.578125 25.875 26.90625 
L 25.875 0 
L 8.296875 0 
L 8.296875 54.6875 
L 25.875 54.6875 
L 25.875 46.6875 
Q 29.109375 51.3125 33.28125 53.65625 
Q 37.453125 56 42.484375 56 
Q 48.140625 56 52.484375 53.265625 
Q 56.84375 50.53125 59.078125 45.609375 
z
" id="DejaVuSans-Bold-109"/>
      <path d="M 62.984375 27.484375 
L 62.984375 22.515625 
L 22.125 22.515625 
Q 22.75 16.359375 26.5625 13.28125 
Q 30.375 10.203125 37.203125 10.203125 
Q 42.71875 10.203125 48.5 11.84375 
Q 54.296875 13.484375 60.40625 16.796875 
L 60.40625 3.328125 
Q 54.203125 0.984375 48 -0.21875 
Q 41.796875 -1.421875 35.59375 -1.421875 
Q 20.75 -1.421875 12.515625 6.125 
Q 4.296875 13.671875 4.296875 27.296875 
Q 4.296875 40.671875 12.375 48.328125 
Q 20.453125 56 34.625 56 
Q 47.515625 56 55.25 48.234375 
Q 62.984375 40.484375 62.984375 27.484375 
z
M 45.015625 33.296875 
Q 45.015625 38.28125 42.109375 41.328125 
Q 39.203125 44.390625 34.515625 44.390625 
Q 29.4375 44.390625 26.265625 41.53125 
Q 23.09375 38.671875 22.3125 33.296875 
z
" id="DejaVuSans-Bold-101"/>
     </defs>
     <g style="fill:#262626;" transform="translate(531.5375 416.6425)scale(0.16 -0.16)">
      <use xlink:href="#DejaVuSans-Bold-84"/>
      <use x="68.212891" xlink:href="#DejaVuSans-Bold-105"/>
      <use x="102.490234" xlink:href="#DejaVuSans-Bold-109"/>
      <use x="206.689453" xlink:href="#DejaVuSans-Bold-101"/>
     </g>
    </g>
   </g>
   <g id="matplotlib.axis_2">
    <g id="ytick_1">
     <g id="line2d_9">
      <path clip-path="url(#p8901289866)" d="M 135 371.646226 
L 972 371.646226 
" style="fill:none;stroke:#cccccc;stroke-linecap:round;stroke-width:0.8;"/>
     </g>
     <g id="text_10">
      <!-- 8 -->
      <g style="fill:#262626;" transform="translate(117.82 377.724976)scale(0.16 -0.16)">
       <use xlink:href="#DejaVuSans-56"/>
      </g>
     </g>
    </g>
    <g id="ytick_2">
     <g id="line2d_10">
      <path clip-path="url(#p8901289866)" d="M 135 329.287784 
L 972 329.287784 
" style="fill:none;stroke:#cccccc;stroke-linecap:round;stroke-width:0.8;"/>
     </g>
     <g id="text_11">
      <!-- 10 -->
      <g style="fill:#262626;" transform="translate(107.64 335.366534)scale(0.16 -0.16)">
       <use xlink:href="#DejaVuSans-49"/>
       <use x="63.623047" xlink:href="#DejaVuSans-48"/>
      </g>
     </g>
    </g>
    <g id="ytick_3">
     <g id="line2d_11">
      <path clip-path="url(#p8901289866)" d="M 135 286.929343 
L 972 286.929343 
" style="fill:none;stroke:#cccccc;stroke-linecap:round;stroke-width:0.8;"/>
     </g>
     <g id="text_12">
      <!-- 12 -->
      <g style="fill:#262626;" transform="translate(107.64 293.008093)scale(0.16 -0.16)">
       <use xlink:href="#DejaVuSans-49"/>
       <use x="63.623047" xlink:href="#DejaVuSans-50"/>
      </g>
     </g>
    </g>
    <g id="ytick_4">
     <g id="line2d_12">
      <path clip-path="url(#p8901289866)" d="M 135 244.570901 
L 972 244.570901 
" style="fill:none;stroke:#cccccc;stroke-linecap:round;stroke-width:0.8;"/>
     </g>
     <g id="text_13">
      <!-- 14 -->
      <defs>
       <path d="M 37.796875 64.3125 
L 12.890625 25.390625 
L 37.796875 25.390625 
z
M 35.203125 72.90625 
L 47.609375 72.90625 
L 47.609375 25.390625 
L 58.015625 25.390625 
L 58.015625 17.1875 
L 47.609375 17.1875 
L 47.609375 0 
L 37.796875 0 
L 37.796875 17.1875 
L 4.890625 17.1875 
L 4.890625 26.703125 
z
" id="DejaVuSans-52"/>
      </defs>
      <g style="fill:#262626;" transform="translate(107.64 250.649651)scale(0.16 -0.16)">
       <use xlink:href="#DejaVuSans-49"/>
       <use x="63.623047" xlink:href="#DejaVuSans-52"/>
      </g>
     </g>
    </g>
    <g id="ytick_5">
     <g id="line2d_13">
      <path clip-path="url(#p8901289866)" d="M 135 202.212459 
L 972 202.212459 
" style="fill:none;stroke:#cccccc;stroke-linecap:round;stroke-width:0.8;"/>
     </g>
     <g id="text_14">
      <!-- 16 -->
      <defs>
       <path d="M 33.015625 40.375 
Q 26.375 40.375 22.484375 35.828125 
Q 18.609375 31.296875 18.609375 23.390625 
Q 18.609375 15.53125 22.484375 10.953125 
Q 26.375 6.390625 33.015625 6.390625 
Q 39.65625 6.390625 43.53125 10.953125 
Q 47.40625 15.53125 47.40625 23.390625 
Q 47.40625 31.296875 43.53125 35.828125 
Q 39.65625 40.375 33.015625 40.375 
z
M 52.59375 71.296875 
L 52.59375 62.3125 
Q 48.875 64.0625 45.09375 64.984375 
Q 41.3125 65.921875 37.59375 65.921875 
Q 27.828125 65.921875 22.671875 59.328125 
Q 17.53125 52.734375 16.796875 39.40625 
Q 19.671875 43.65625 24.015625 45.921875 
Q 28.375 48.1875 33.59375 48.1875 
Q 44.578125 48.1875 50.953125 41.515625 
Q 57.328125 34.859375 57.328125 23.390625 
Q 57.328125 12.15625 50.6875 5.359375 
Q 44.046875 -1.421875 33.015625 -1.421875 
Q 20.359375 -1.421875 13.671875 8.265625 
Q 6.984375 17.96875 6.984375 36.375 
Q 6.984375 53.65625 15.1875 63.9375 
Q 23.390625 74.21875 37.203125 74.21875 
Q 40.921875 74.21875 44.703125 73.484375 
Q 48.484375 72.75 52.59375 71.296875 
z
" id="DejaVuSans-54"/>
      </defs>
      <g style="fill:#262626;" transform="translate(107.64 208.291209)scale(0.16 -0.16)">
       <use xlink:href="#DejaVuSans-49"/>
       <use x="63.623047" xlink:href="#DejaVuSans-54"/>
      </g>
     </g>
    </g>
    <g id="ytick_6">
     <g id="line2d_14">
      <path clip-path="url(#p8901289866)" d="M 135 159.854018 
L 972 159.854018 
" style="fill:none;stroke:#cccccc;stroke-linecap:round;stroke-width:0.8;"/>
     </g>
     <g id="text_15">
      <!-- 18 -->
      <g style="fill:#262626;" transform="translate(107.64 165.932768)scale(0.16 -0.16)">
       <use xlink:href="#DejaVuSans-49"/>
       <use x="63.623047" xlink:href="#DejaVuSans-56"/>
      </g>
     </g>
    </g>
    <g id="ytick_7">
     <g id="line2d_15">
      <path clip-path="url(#p8901289866)" d="M 135 117.495576 
L 972 117.495576 
" style="fill:none;stroke:#cccccc;stroke-linecap:round;stroke-width:0.8;"/>
     </g>
     <g id="text_16">
      <!-- 20 -->
      <g style="fill:#262626;" transform="translate(107.64 123.574326)scale(0.16 -0.16)">
       <use xlink:href="#DejaVuSans-50"/>
       <use x="63.623047" xlink:href="#DejaVuSans-48"/>
      </g>
     </g>
    </g>
    <g id="ytick_8">
     <g id="line2d_16">
      <path clip-path="url(#p8901289866)" d="M 135 75.137135 
L 972 75.137135 
" style="fill:none;stroke:#cccccc;stroke-linecap:round;stroke-width:0.8;"/>
     </g>
     <g id="text_17">
      <!-- 22 -->
      <g style="fill:#262626;" transform="translate(107.64 81.215885)scale(0.16 -0.16)">
       <use xlink:href="#DejaVuSans-50"/>
       <use x="63.623047" xlink:href="#DejaVuSans-50"/>
      </g>
     </g>
    </g>
    <g id="text_18">
     <!-- Max Pressure/ bar -->
     <defs>
      <path d="M 9.1875 72.90625 
L 33.109375 72.90625 
L 49.703125 33.890625 
L 66.40625 72.90625 
L 90.28125 72.90625 
L 90.28125 0 
L 72.515625 0 
L 72.515625 53.328125 
L 55.71875 14.015625 
L 43.796875 14.015625 
L 27 53.328125 
L 27 0 
L 9.1875 0 
z
" id="DejaVuSans-Bold-77"/>
      <path d="M 32.90625 24.609375 
Q 27.4375 24.609375 24.671875 22.75 
Q 21.921875 20.90625 21.921875 17.28125 
Q 21.921875 13.96875 24.140625 12.078125 
Q 26.375 10.203125 30.328125 10.203125 
Q 35.25 10.203125 38.625 13.734375 
Q 42 17.28125 42 22.609375 
L 42 24.609375 
z
M 59.625 31.203125 
L 59.625 0 
L 42 0 
L 42 8.109375 
Q 38.484375 3.125 34.078125 0.84375 
Q 29.6875 -1.421875 23.390625 -1.421875 
Q 14.890625 -1.421875 9.59375 3.53125 
Q 4.296875 8.5 4.296875 16.40625 
Q 4.296875 26.03125 10.90625 30.515625 
Q 17.53125 35.015625 31.6875 35.015625 
L 42 35.015625 
L 42 36.375 
Q 42 40.53125 38.71875 42.453125 
Q 35.453125 44.390625 28.515625 44.390625 
Q 22.90625 44.390625 18.0625 43.265625 
Q 13.234375 42.140625 9.078125 39.890625 
L 9.078125 53.21875 
Q 14.703125 54.59375 20.359375 55.296875 
Q 26.03125 56 31.6875 56 
Q 46.484375 56 53.046875 50.171875 
Q 59.625 44.34375 59.625 31.203125 
z
" id="DejaVuSans-Bold-97"/>
      <path d="M 22.21875 27.984375 
L 2.484375 54.6875 
L 21 54.6875 
L 32.171875 38.484375 
L 43.5 54.6875 
L 62.015625 54.6875 
L 42.28125 28.078125 
L 62.984375 0 
L 44.484375 0 
L 32.171875 17.28125 
L 20.015625 0 
L 1.515625 0 
z
" id="DejaVuSans-Bold-120"/>
      <path id="DejaVuSans-Bold-32"/>
      <path d="M 9.1875 72.90625 
L 40.375 72.90625 
Q 54.296875 72.90625 61.734375 66.71875 
Q 69.1875 60.546875 69.1875 49.125 
Q 69.1875 37.640625 61.734375 31.46875 
Q 54.296875 25.296875 40.375 25.296875 
L 27.984375 25.296875 
L 27.984375 0 
L 9.1875 0 
z
M 27.984375 59.28125 
L 27.984375 38.921875 
L 38.375 38.921875 
Q 43.84375 38.921875 46.828125 41.578125 
Q 49.8125 44.234375 49.8125 49.125 
Q 49.8125 54 46.828125 56.640625 
Q 43.84375 59.28125 38.375 59.28125 
z
" id="DejaVuSans-Bold-80"/>
      <path d="M 49.03125 39.796875 
Q 46.734375 40.875 44.453125 41.375 
Q 42.1875 41.890625 39.890625 41.890625 
Q 33.15625 41.890625 29.515625 37.5625 
Q 25.875 33.25 25.875 25.203125 
L 25.875 0 
L 8.40625 0 
L 8.40625 54.6875 
L 25.875 54.6875 
L 25.875 45.703125 
Q 29.25 51.078125 33.609375 53.53125 
Q 37.984375 56 44.09375 56 
Q 44.96875 56 45.984375 55.921875 
Q 47.015625 55.859375 48.96875 55.609375 
z
" id="DejaVuSans-Bold-114"/>
      <path d="M 51.125 52.984375 
L 51.125 39.703125 
Q 45.515625 42.046875 40.28125 43.21875 
Q 35.0625 44.390625 30.421875 44.390625 
Q 25.4375 44.390625 23.015625 43.140625 
Q 20.609375 41.890625 20.609375 39.3125 
Q 20.609375 37.203125 22.4375 36.078125 
Q 24.265625 34.96875 29 34.421875 
L 32.078125 33.984375 
Q 45.515625 32.28125 50.140625 28.375 
Q 54.78125 24.46875 54.78125 16.109375 
Q 54.78125 7.375 48.328125 2.96875 
Q 41.890625 -1.421875 29.109375 -1.421875 
Q 23.6875 -1.421875 17.890625 -0.5625 
Q 12.109375 0.296875 6 2 
L 6 15.28125 
Q 11.234375 12.75 16.71875 11.46875 
Q 22.21875 10.203125 27.875 10.203125 
Q 33.015625 10.203125 35.59375 11.609375 
Q 38.1875 13.03125 38.1875 15.828125 
Q 38.1875 18.171875 36.40625 19.3125 
Q 34.625 20.453125 29.296875 21.09375 
L 26.21875 21.484375 
Q 14.546875 22.953125 9.859375 26.90625 
Q 5.171875 30.859375 5.171875 38.921875 
Q 5.171875 47.609375 11.125 51.796875 
Q 17.09375 56 29.390625 56 
Q 34.234375 56 39.546875 55.265625 
Q 44.875 54.546875 51.125 52.984375 
z
" id="DejaVuSans-Bold-115"/>
      <path d="M 7.8125 21.296875 
L 7.8125 54.6875 
L 25.390625 54.6875 
L 25.390625 49.21875 
Q 25.390625 44.78125 25.34375 38.0625 
Q 25.296875 31.34375 25.296875 29.109375 
Q 25.296875 22.515625 25.640625 19.609375 
Q 25.984375 16.703125 26.8125 15.375 
Q 27.875 13.671875 29.609375 12.734375 
Q 31.34375 11.8125 33.59375 11.8125 
Q 39.0625 11.8125 42.1875 16.015625 
Q 45.3125 20.21875 45.3125 27.6875 
L 45.3125 54.6875 
L 62.796875 54.6875 
L 62.796875 0 
L 45.3125 0 
L 45.3125 7.90625 
Q 41.359375 3.125 36.9375 0.84375 
Q 32.515625 -1.421875 27.203125 -1.421875 
Q 17.71875 -1.421875 12.765625 4.390625 
Q 7.8125 10.203125 7.8125 21.296875 
z
" id="DejaVuSans-Bold-117"/>
      <path d="M 25.6875 72.90625 
L 36.53125 72.90625 
L 10.796875 -9.28125 
L 0 -9.28125 
z
" id="DejaVuSans-Bold-47"/>
      <path d="M 37.5 11.28125 
Q 43.109375 11.28125 46.0625 15.375 
Q 49.03125 19.484375 49.03125 27.296875 
Q 49.03125 35.109375 46.0625 39.203125 
Q 43.109375 43.3125 37.5 43.3125 
Q 31.890625 43.3125 28.875 39.1875 
Q 25.875 35.0625 25.875 27.296875 
Q 25.875 19.53125 28.875 15.40625 
Q 31.890625 11.28125 37.5 11.28125 
z
M 25.875 46.6875 
Q 29.5 51.46875 33.890625 53.734375 
Q 38.28125 56 44 56 
Q 54.109375 56 60.59375 47.96875 
Q 67.09375 39.9375 67.09375 27.296875 
Q 67.09375 14.65625 60.59375 6.609375 
Q 54.109375 -1.421875 44 -1.421875 
Q 38.28125 -1.421875 33.890625 0.84375 
Q 29.5 3.125 25.875 7.90625 
L 25.875 0 
L 8.40625 0 
L 8.40625 75.984375 
L 25.875 75.984375 
z
" id="DejaVuSans-Bold-98"/>
     </defs>
     <g style="fill:#262626;" transform="translate(100.3125 296.82625)rotate(-90)scale(0.16 -0.16)">
      <use xlink:href="#DejaVuSans-Bold-77"/>
      <use x="99.511719" xlink:href="#DejaVuSans-Bold-97"/>
      <use x="166.992188" xlink:href="#DejaVuSans-Bold-120"/>
      <use x="231.494141" xlink:href="#DejaVuSans-Bold-32"/>
      <use x="266.308594" xlink:href="#DejaVuSans-Bold-80"/>
      <use x="339.599609" xlink:href="#DejaVuSans-Bold-114"/>
      <use x="388.916016" xlink:href="#DejaVuSans-Bold-101"/>
      <use x="456.738281" xlink:href="#DejaVuSans-Bold-115"/>
      <use x="516.259766" xlink:href="#DejaVuSans-Bold-115"/>
      <use x="575.78125" xlink:href="#DejaVuSans-Bold-117"/>
      <use x="646.972656" xlink:href="#DejaVuSans-Bold-114"/>
      <use x="696.289062" xlink:href="#DejaVuSans-Bold-101"/>
      <use x="764.111328" xlink:href="#DejaVuSans-Bold-47"/>
      <use x="800.634766" xlink:href="#DejaVuSans-Bold-32"/>
      <use x="835.449219" xlink:href="#DejaVuSans-Bold-98"/>
      <use x="907.03125" xlink:href="#DejaVuSans-Bold-97"/>
      <use x="974.511719" xlink:href="#DejaVuSans-Bold-114"/>
     </g>
    </g>
   </g>
   <g id="line2d_17">
    <path clip-path="url(#p8901289866)" d="M 173.045455 189.504919 
L 173.344672 189.504919 
L 173.643889 195.858709 
L 173.943106 189.504919 
L 174.54154 189.504919 
L 174.840757 181.033239 
L 175.139974 181.033239 
L 175.439191 189.504919 
L 175.738408 189.504919 
L 176.037626 181.033239 
L 176.336843 189.504919 
L 176.63606 181.033239 
L 177.234494 195.858709 
L 177.533711 166.207768 
L 177.832928 195.858709 
L 178.132145 195.858709 
L 178.431362 189.504919 
L 178.730579 166.207768 
L 179.029797 172.561558 
L 179.329014 157.736088 
L 179.628231 157.736088 
L 179.927448 142.910657 
L 180.226665 157.736088 
L 180.525882 142.910657 
L 180.825099 157.736088 
L 181.124316 166.207768 
L 181.423533 157.736088 
L 181.722751 157.736088 
L 182.021968 181.033239 
L 182.321185 189.504919 
L 182.620402 172.561558 
L 183.218836 189.504919 
L 183.81727 189.504919 
L 184.116487 181.033239 
L 184.415704 189.504919 
L 185.313356 189.504919 
L 185.612573 195.858709 
L 185.91179 189.504919 
L 186.211007 204.33039 
L 186.510224 181.033239 
L 187.108658 195.858709 
L 187.407875 189.504919 
L 187.707093 189.504919 
L 188.00631 195.858709 
L 188.604744 181.033239 
L 188.903961 195.858709 
L 190.100829 195.858709 
L 190.400046 181.033239 
L 190.699264 189.504919 
L 190.998481 189.504919 
L 191.297698 195.858709 
L 191.596915 195.858709 
L 191.896132 181.033239 
L 192.195349 189.504919 
L 192.793783 189.504919 
L 193.093 195.858709 
L 193.392217 189.504919 
L 193.691435 189.504919 
L 194.289869 172.561558 
L 194.589086 181.033239 
L 194.888303 181.033239 
L 195.18752 172.561558 
L 195.785954 172.561558 
L 196.085171 181.033239 
L 196.384389 195.858709 
L 196.683606 189.504919 
L 196.982823 195.858709 
L 197.880474 195.858709 
L 198.179691 189.504919 
L 199.077342 189.504919 
L 199.37656 195.858709 
L 199.675777 189.504919 
L 200.274211 189.504919 
L 200.872645 204.33039 
L 201.171862 189.504919 
L 201.471079 189.504919 
L 201.770296 195.858709 
L 202.368731 195.858709 
L 202.667948 189.504919 
L 203.864816 189.504919 
L 204.164033 195.858709 
L 204.46325 189.504919 
L 205.061684 189.504919 
L 205.360902 195.858709 
L 206.258553 195.858709 
L 206.55777 189.504919 
L 206.856987 189.504919 
L 207.156204 195.858709 
L 207.455421 195.858709 
L 207.754638 181.033239 
L 208.053856 195.858709 
L 208.353073 181.033239 
L 208.951507 181.033239 
L 209.250724 189.504919 
L 209.549941 181.033239 
L 209.849158 189.504919 
L 210.447592 172.561558 
L 210.746809 181.033239 
L 211.046027 195.858709 
L 211.644461 195.858709 
L 211.943678 189.504919 
L 212.242895 195.858709 
L 212.841329 195.858709 
L 213.140546 189.504919 
L 213.73898 189.504919 
L 214.038198 181.033239 
L 214.636632 195.858709 
L 214.935849 189.504919 
L 215.235066 195.858709 
L 215.534283 195.858709 
L 215.8335 189.504919 
L 216.132717 195.858709 
L 216.431934 181.033239 
L 216.731151 189.504919 
L 217.030369 204.33039 
L 217.329586 189.504919 
L 217.628803 189.504919 
L 217.92802 195.858709 
L 218.227237 189.504919 
L 218.825671 189.504919 
L 219.124888 195.858709 
L 219.723322 195.858709 
L 220.02254 189.504919 
L 220.321757 195.858709 
L 220.620974 189.504919 
L 220.920191 195.858709 
L 221.219408 189.504919 
L 221.518625 172.561558 
L 222.715494 172.561558 
L 223.014711 151.382338 
L 223.313928 119.613506 
L 223.613145 142.910657 
L 223.912362 134.438937 
L 224.510796 134.438937 
L 224.810013 166.207768 
L 225.10923 172.561558 
L 225.408447 189.504919 
L 225.707665 172.561558 
L 226.006882 195.858709 
L 226.306099 189.504919 
L 226.904533 189.504919 
L 227.20375 195.858709 
L 227.502967 195.858709 
L 227.802184 204.33039 
L 228.101401 189.504919 
L 228.400618 195.858709 
L 228.699836 195.858709 
L 228.999053 189.504919 
L 229.29827 189.504919 
L 229.597487 195.858709 
L 229.896704 195.858709 
L 230.195921 189.504919 
L 230.794355 189.504919 
L 231.093572 181.033239 
L 231.392789 189.504919 
L 231.692007 181.033239 
L 231.991224 195.858709 
L 232.290441 195.858709 
L 232.589658 189.504919 
L 232.888875 189.504919 
L 233.188092 181.033239 
L 233.487309 189.504919 
L 234.085743 189.504919 
L 234.38496 181.033239 
L 234.684178 195.858709 
L 234.983395 189.504919 
L 235.282612 195.858709 
L 235.581829 189.504919 
L 235.881046 172.561558 
L 236.180263 166.207768 
L 236.47948 151.382338 
L 236.778697 119.613506 
L 237.077914 134.438937 
L 237.377132 134.438937 
L 237.676349 113.259716 
L 237.975566 113.259716 
L 238.274783 104.788036 
L 238.574 113.259716 
L 238.873217 104.788036 
L 239.172434 142.910657 
L 239.770868 172.561558 
L 240.070085 142.910657 
L 240.369303 181.033239 
L 240.66852 172.561558 
L 240.967737 195.858709 
L 241.266954 189.504919 
L 241.865388 204.33039 
L 242.164605 195.858709 
L 242.463822 181.033239 
L 242.763039 189.504919 
L 243.361474 189.504919 
L 243.660691 204.33039 
L 243.959908 181.033239 
L 244.558342 195.858709 
L 244.857559 189.504919 
L 245.156776 189.504919 
L 245.455993 181.033239 
L 245.75521 189.504919 
L 246.054427 189.504919 
L 246.353645 195.858709 
L 246.652862 195.858709 
L 246.952079 189.504919 
L 248.148947 189.504919 
L 248.448164 195.858709 
L 248.747381 189.504919 
L 249.645033 189.504919 
L 249.94425 172.561558 
L 250.243467 128.085187 
L 250.542684 142.910657 
L 250.841901 113.259716 
L 251.141118 96.316356 
L 251.739552 81.490885 
L 252.03877 89.962605 
L 252.337987 66.665455 
L 252.637204 66.665455 
L 252.936421 119.613506 
L 253.534855 134.438937 
L 253.834072 157.736088 
L 254.133289 166.207768 
L 254.432506 181.033239 
L 254.731723 181.033239 
L 255.030941 119.613506 
L 255.330158 189.504919 
L 255.629375 189.504919 
L 255.928592 181.033239 
L 256.227809 189.504919 
L 258.621546 189.504919 
L 258.920763 195.858709 
L 259.21998 189.504919 
L 259.519197 204.33039 
L 259.818414 195.858709 
L 261.613717 195.858709 
L 261.912934 204.33039 
L 262.212151 189.504919 
L 262.511368 195.858709 
L 262.810585 195.858709 
L 263.409019 181.033239 
L 264.007454 195.858709 
L 264.306671 189.504919 
L 264.605888 172.561558 
L 264.905105 172.561558 
L 265.204322 166.207768 
L 265.503539 172.561558 
L 265.802756 151.382338 
L 266.101973 113.259716 
L 266.40119 151.382338 
L 266.999625 119.613506 
L 267.298842 113.259716 
L 267.598059 134.438937 
L 267.897276 142.910657 
L 268.196493 128.085187 
L 268.49571 157.736088 
L 268.794927 172.561558 
L 269.393361 189.504919 
L 269.692579 189.504919 
L 269.991796 195.858709 
L 270.291013 181.033239 
L 270.59023 195.858709 
L 270.889447 181.033239 
L 271.487881 195.858709 
L 271.787098 189.504919 
L 272.086315 195.858709 
L 272.385532 189.504919 
L 273.283184 189.504919 
L 273.582401 195.858709 
L 274.180835 181.033239 
L 274.480052 195.858709 
L 274.779269 181.033239 
L 275.078486 195.858709 
L 275.676921 195.858709 
L 275.976138 189.504919 
L 276.275355 204.33039 
L 276.574572 189.504919 
L 276.873789 189.504919 
L 277.173006 195.858709 
L 277.472223 181.033239 
L 277.77144 189.504919 
L 278.070657 189.504919 
L 278.369875 195.858709 
L 278.669092 189.504919 
L 278.968309 157.736088 
L 279.267526 166.207768 
L 279.566743 128.085187 
L 279.86596 119.613506 
L 280.165177 134.438937 
L 280.464394 113.259716 
L 280.763611 113.259716 
L 281.062828 104.788036 
L 281.362046 119.613506 
L 281.661263 96.316356 
L 281.96048 119.613506 
L 282.259697 113.259716 
L 282.558914 128.085187 
L 282.858131 128.085187 
L 283.157348 151.382338 
L 283.755782 166.207768 
L 284.354217 195.858709 
L 284.653434 189.504919 
L 284.952651 195.858709 
L 285.251868 195.858709 
L 285.551085 189.504919 
L 285.850302 195.858709 
L 286.149519 195.858709 
L 286.448736 181.033239 
L 286.747953 189.504919 
L 287.04717 189.504919 
L 287.346388 181.033239 
L 287.645605 195.858709 
L 287.944822 189.504919 
L 288.244039 195.858709 
L 288.543256 189.504919 
L 288.842473 189.504919 
L 289.14169 181.033239 
L 289.440907 195.858709 
L 289.740124 189.504919 
L 290.338559 189.504919 
L 290.637776 195.858709 
L 291.535427 195.858709 
L 291.834644 189.504919 
L 292.133861 189.504919 
L 292.433078 195.858709 
L 293.33073 195.858709 
L 293.629947 172.561558 
L 293.929164 172.561558 
L 294.228381 142.910657 
L 294.527598 128.085187 
L 294.826815 142.910657 
L 295.126032 134.438937 
L 295.425249 113.259716 
L 296.023684 128.085187 
L 296.322901 128.085187 
L 296.622118 166.207768 
L 297.220552 151.382338 
L 297.519769 172.561558 
L 298.118203 189.504919 
L 298.41742 189.504919 
L 298.716637 195.858709 
L 299.015855 195.858709 
L 299.315072 189.504919 
L 302.307243 189.504919 
L 302.60646 181.033239 
L 302.905677 195.858709 
L 303.204894 189.504919 
L 304.70098 189.504919 
L 305.000197 195.858709 
L 305.299414 189.504919 
L 305.598631 195.858709 
L 306.197065 195.858709 
L 306.496282 204.33039 
L 306.795499 189.504919 
L 307.094716 189.504919 
L 307.393933 195.858709 
L 307.693151 172.561558 
L 307.992368 195.858709 
L 308.291585 172.561558 
L 308.590802 195.858709 
L 309.189236 195.858709 
L 309.488453 172.561558 
L 309.78767 195.858709 
L 310.086887 189.504919 
L 310.386104 189.504919 
L 310.685322 181.033239 
L 310.984539 195.858709 
L 311.582973 181.033239 
L 311.88219 189.504919 
L 312.480624 189.504919 
L 312.779841 195.858709 
L 313.079058 189.504919 
L 313.677493 204.33039 
L 314.275927 189.504919 
L 314.575144 195.858709 
L 316.071229 195.858709 
L 316.370447 189.504919 
L 316.968881 189.504919 
L 317.268098 195.858709 
L 317.567315 189.504919 
L 317.866532 189.504919 
L 318.165749 195.858709 
L 318.464966 189.504919 
L 318.764183 195.858709 
L 319.0634 195.858709 
L 319.362618 189.504919 
L 319.661835 195.858709 
L 319.961052 195.858709 
L 320.260269 189.504919 
L 320.858703 189.504919 
L 321.15792 195.858709 
L 321.756354 181.033239 
L 322.055571 189.504919 
L 322.354789 166.207768 
L 322.654006 181.033239 
L 322.953223 157.736088 
L 323.25244 157.736088 
L 323.551657 142.910657 
L 323.850874 151.382338 
L 324.150091 142.910657 
L 324.449308 151.382338 
L 324.748525 142.910657 
L 325.34696 181.033239 
L 325.646177 189.504919 
L 326.244611 189.504919 
L 326.543828 195.858709 
L 326.843045 189.504919 
L 327.142262 195.858709 
L 327.441479 189.504919 
L 327.740696 195.858709 
L 328.039913 172.561558 
L 328.339131 189.504919 
L 329.535999 189.504919 
L 329.835216 195.858709 
L 330.43365 195.858709 
L 330.732867 189.504919 
L 331.032085 189.504919 
L 331.331302 195.858709 
L 331.929736 181.033239 
L 332.52817 195.858709 
L 332.827387 189.504919 
L 333.126604 189.504919 
L 333.425821 181.033239 
L 333.725038 181.033239 
L 334.323473 195.858709 
L 334.62269 189.504919 
L 335.221124 189.504919 
L 335.520341 195.858709 
L 335.819558 189.504919 
L 336.118775 189.504919 
L 336.417992 195.858709 
L 336.717209 181.033239 
L 337.016427 189.504919 
L 337.315644 181.033239 
L 337.614861 189.504919 
L 338.213295 189.504919 
L 338.512512 195.858709 
L 338.811729 181.033239 
L 339.110946 189.504919 
L 339.70938 189.504919 
L 340.008598 172.561558 
L 340.307815 189.504919 
L 340.607032 195.858709 
L 340.906249 189.504919 
L 341.205466 189.504919 
L 341.504683 181.033239 
L 341.8039 181.033239 
L 342.103117 189.504919 
L 342.402334 210.68414 
L 342.701551 210.68414 
L 343.000769 189.504919 
L 343.599203 189.504919 
L 343.89842 195.858709 
L 344.197637 189.504919 
L 344.496854 189.504919 
L 344.796071 181.033239 
L 345.394505 195.858709 
L 345.693723 189.504919 
L 346.292157 204.33039 
L 346.591374 189.504919 
L 347.489025 189.504919 
L 347.788242 181.033239 
L 348.087459 189.504919 
L 348.386676 189.504919 
L 348.685894 181.033239 
L 348.985111 195.858709 
L 349.284328 189.504919 
L 349.583545 195.858709 
L 349.882762 195.858709 
L 350.181979 189.504919 
L 350.481196 195.858709 
L 350.780413 189.504919 
L 351.378847 189.504919 
L 351.678065 181.033239 
L 351.977282 195.858709 
L 352.575716 181.033239 
L 352.874933 189.504919 
L 353.17415 189.504919 
L 353.473367 172.561558 
L 353.772584 189.504919 
L 354.071801 189.504919 
L 354.371018 172.561558 
L 354.670236 181.033239 
L 354.969453 181.033239 
L 355.26867 189.504919 
L 355.567887 172.561558 
L 356.166321 189.504919 
L 356.764755 189.504919 
L 357.063972 181.033239 
L 357.662407 195.858709 
L 357.961624 189.504919 
L 358.560058 189.504919 
L 358.859275 181.033239 
L 359.158492 189.504919 
L 359.756926 189.504919 
L 360.056143 181.033239 
L 360.355361 181.033239 
L 360.654578 189.504919 
L 361.552229 189.504919 
L 362.150663 172.561558 
L 362.44988 181.033239 
L 362.749097 181.033239 
L 363.048314 189.504919 
L 363.347532 189.504919 
L 363.646749 181.033239 
L 364.245183 195.858709 
L 364.843617 181.033239 
L 365.142834 195.858709 
L 366.040485 195.858709 
L 366.339703 181.033239 
L 366.63892 181.033239 
L 366.938137 195.858709 
L 367.237354 189.504919 
L 368.135005 189.504919 
L 368.434222 195.858709 
L 368.733439 189.504919 
L 369.032656 189.504919 
L 369.331874 181.033239 
L 369.631091 181.033239 
L 369.930308 172.561558 
L 370.229525 189.504919 
L 370.528742 181.033239 
L 370.827959 204.33039 
L 371.72561 181.033239 
L 372.324045 181.033239 
L 372.623262 189.504919 
L 373.520913 189.504919 
L 373.82013 172.561558 
L 374.119347 189.504919 
L 374.717781 189.504919 
L 375.016999 172.561558 
L 375.316216 189.504919 
L 376.213867 189.504919 
L 376.513084 181.033239 
L 376.812301 181.033239 
L 377.111518 189.504919 
L 377.410735 189.504919 
L 377.709952 195.858709 
L 378.308387 181.033239 
L 378.607604 189.504919 
L 378.906821 204.33039 
L 379.206038 189.504919 
L 379.505255 189.504919 
L 379.804472 181.033239 
L 380.103689 189.504919 
L 380.402906 189.504919 
L 380.702123 195.858709 
L 381.001341 181.033239 
L 381.300558 195.858709 
L 381.599775 189.504919 
L 381.898992 189.504919 
L 382.198209 204.33039 
L 382.497426 195.858709 
L 383.09586 195.858709 
L 383.395077 189.504919 
L 383.694294 195.858709 
L 383.993512 189.504919 
L 384.292729 189.504919 
L 384.591946 195.858709 
L 384.891163 189.504919 
L 385.19038 195.858709 
L 385.489597 181.033239 
L 385.788814 195.858709 
L 386.088031 181.033239 
L 386.387248 189.504919 
L 386.985683 189.504919 
L 387.2849 181.033239 
L 387.584117 189.504919 
L 388.481768 189.504919 
L 388.780985 195.858709 
L 389.080202 189.504919 
L 390.277071 189.504919 
L 390.875505 204.33039 
L 391.174722 189.504919 
L 391.473939 189.504919 
L 391.773156 195.858709 
L 392.072373 189.504919 
L 392.37159 195.858709 
L 392.670808 195.858709 
L 392.970025 204.33039 
L 393.269242 189.504919 
L 393.568459 181.033239 
L 393.867676 189.504919 
L 394.46611 189.504919 
L 394.765327 195.858709 
L 395.064544 189.504919 
L 395.363761 189.504919 
L 395.662979 195.858709 
L 395.962196 181.033239 
L 396.261413 181.033239 
L 396.859847 195.858709 
L 397.159064 195.858709 
L 397.458281 189.504919 
L 397.757498 195.858709 
L 398.056715 189.504919 
L 398.355933 189.504919 
L 398.65515 195.858709 
L 399.253584 195.858709 
L 399.552801 181.033239 
L 399.852018 189.504919 
L 400.749669 189.504919 
L 401.048886 195.858709 
L 401.348104 189.504919 
L 402.844189 189.504919 
L 403.143406 195.858709 
L 403.442623 189.504919 
L 404.639492 189.504919 
L 404.938709 195.858709 
L 405.237926 189.504919 
L 405.537143 195.858709 
L 405.83636 195.858709 
L 406.135577 189.504919 
L 406.434794 195.858709 
L 407.033228 195.858709 
L 407.631663 181.033239 
L 407.93088 189.504919 
L 408.529314 189.504919 
L 408.828531 195.858709 
L 409.127748 189.504919 
L 409.726182 189.504919 
L 410.025399 181.033239 
L 410.324617 189.504919 
L 410.923051 189.504919 
L 411.222268 195.858709 
L 411.521485 181.033239 
L 411.820702 189.504919 
L 413.616005 189.504919 
L 414.214439 204.33039 
L 414.513656 189.504919 
L 414.812873 181.033239 
L 415.11209 189.504919 
L 415.411307 189.504919 
L 416.009742 204.33039 
L 416.308959 189.504919 
L 416.608176 181.033239 
L 417.20661 195.858709 
L 417.505827 195.858709 
L 417.805044 189.504919 
L 418.104261 189.504919 
L 418.403478 181.033239 
L 418.702695 189.504919 
L 419.001913 181.033239 
L 419.30113 189.504919 
L 419.600347 204.33039 
L 419.899564 195.858709 
L 420.198781 181.033239 
L 420.497998 195.858709 
L 420.797215 189.504919 
L 421.096432 189.504919 
L 421.395649 195.858709 
L 421.694866 189.504919 
L 421.994084 189.504919 
L 422.293301 195.858709 
L 422.592518 189.504919 
L 425.584689 189.504919 
L 425.883906 195.858709 
L 426.183123 189.504919 
L 426.48234 172.561558 
L 426.781557 189.504919 
L 427.978426 189.504919 
L 428.277643 204.33039 
L 428.57686 189.504919 
L 428.876077 195.858709 
L 429.175294 189.504919 
L 430.072945 189.504919 
L 430.372162 172.561558 
L 430.67138 189.504919 
L 431.569031 189.504919 
L 431.868248 181.033239 
L 432.167465 181.033239 
L 432.466682 189.504919 
L 432.765899 181.033239 
L 433.065116 195.858709 
L 433.364333 195.858709 
L 433.663551 181.033239 
L 434.261985 195.858709 
L 434.561202 172.561558 
L 434.860419 189.504919 
L 435.159636 189.504919 
L 435.458853 181.033239 
L 435.75807 189.504919 
L 436.356504 189.504919 
L 436.655722 195.858709 
L 436.954939 189.504919 
L 437.553373 189.504919 
L 437.85259 181.033239 
L 438.151807 189.504919 
L 441.143978 189.504919 
L 441.443195 181.033239 
L 441.742412 195.858709 
L 442.041629 195.858709 
L 442.340847 189.504919 
L 442.640064 189.504919 
L 443.238498 172.561558 
L 443.836932 189.504919 
L 444.136149 189.504919 
L 444.435366 195.858709 
L 444.734583 181.033239 
L 445.0338 189.504919 
L 446.230669 189.504919 
L 446.529886 195.858709 
L 446.829103 189.504919 
L 448.325189 189.504919 
L 448.624406 181.033239 
L 449.22284 195.858709 
L 449.522057 195.858709 
L 449.821274 189.504919 
L 450.120491 195.858709 
L 450.419708 189.504919 
L 450.718925 189.504919 
L 451.018142 195.858709 
L 451.31736 189.504919 
L 451.616577 195.858709 
L 451.915794 189.504919 
L 452.215011 189.504919 
L 452.514228 195.858709 
L 452.813445 195.858709 
L 453.112662 189.504919 
L 453.711096 189.504919 
L 454.010314 195.858709 
L 454.309531 189.504919 
L 454.608748 195.858709 
L 454.907965 189.504919 
L 456.40405 189.504919 
L 456.703267 195.858709 
L 457.002485 189.504919 
L 457.301702 195.858709 
L 457.600919 189.504919 
L 457.900136 195.858709 
L 458.199353 181.033239 
L 458.49857 189.504919 
L 458.797787 181.033239 
L 459.097004 189.504919 
L 459.994656 189.504919 
L 460.293873 195.858709 
L 460.59309 189.504919 
L 461.490741 189.504919 
L 461.789958 195.858709 
L 462.089175 189.504919 
L 462.388392 195.858709 
L 462.687609 189.504919 
L 462.986827 189.504919 
L 463.286044 195.858709 
L 463.585261 189.504919 
L 464.183695 189.504919 
L 464.482912 172.561558 
L 464.782129 195.858709 
L 465.679781 195.858709 
L 465.978998 189.504919 
L 466.278215 189.504919 
L 466.577432 181.033239 
L 466.876649 181.033239 
L 467.175866 189.504919 
L 467.7743 189.504919 
L 468.073517 195.858709 
L 468.671952 195.858709 
L 468.971169 189.504919 
L 469.569603 189.504919 
L 469.86882 195.858709 
L 471.065688 195.858709 
L 471.364905 189.504919 
L 471.664123 189.504919 
L 471.96334 195.858709 
L 472.262557 181.033239 
L 472.561774 181.033239 
L 473.160208 195.858709 
L 473.459425 181.033239 
L 473.758642 189.504919 
L 474.357076 189.504919 
L 474.656294 181.033239 
L 474.955511 189.504919 
L 475.254728 189.504919 
L 475.553945 195.858709 
L 475.853162 181.033239 
L 476.750813 181.033239 
L 477.05003 189.504919 
L 477.349247 189.504919 
L 477.648465 181.033239 
L 477.947682 189.504919 
L 478.546116 189.504919 
L 478.845333 195.858709 
L 479.14455 189.504919 
L 480.042201 189.504919 
L 480.341419 195.858709 
L 480.640636 189.504919 
L 480.939853 195.858709 
L 481.23907 189.504919 
L 481.538287 195.858709 
L 481.837504 181.033239 
L 482.136721 172.561558 
L 482.735155 172.561558 
L 483.034372 181.033239 
L 483.33359 181.033239 
L 483.632807 172.561558 
L 483.932024 181.033239 
L 484.231241 181.033239 
L 484.530458 195.858709 
L 484.829675 195.858709 
L 485.128892 189.504919 
L 485.428109 189.504919 
L 485.727326 181.033239 
L 486.026543 189.504919 
L 486.325761 181.033239 
L 486.624978 181.033239 
L 486.924195 189.504919 
L 487.223412 181.033239 
L 487.522629 195.858709 
L 488.121063 195.858709 
L 488.42028 189.504919 
L 488.719497 195.858709 
L 489.018714 181.033239 
L 489.317932 189.504919 
L 489.617149 181.033239 
L 490.215583 195.858709 
L 490.5148 181.033239 
L 491.412451 181.033239 
L 491.711668 189.504919 
L 492.310103 189.504919 
L 492.60932 195.858709 
L 492.908537 189.504919 
L 493.207754 195.858709 
L 493.506971 181.033239 
L 493.806188 195.858709 
L 494.105405 195.858709 
L 494.404622 181.033239 
L 494.703839 189.504919 
L 495.302274 172.561558 
L 496.199925 172.561558 
L 496.499142 142.910657 
L 496.798359 142.910657 
L 497.097576 166.207768 
L 497.396793 166.207768 
L 497.69601 172.561558 
L 497.995228 166.207768 
L 498.294445 181.033239 
L 498.593662 189.504919 
L 498.892879 166.207768 
L 499.192096 189.504919 
L 500.688181 189.504919 
L 500.987399 195.858709 
L 501.286616 181.033239 
L 501.585833 195.858709 
L 501.88505 204.33039 
L 502.184267 181.033239 
L 502.483484 204.33039 
L 502.782701 189.504919 
L 503.081918 181.033239 
L 503.381135 189.504919 
L 505.176438 189.504919 
L 505.475655 195.858709 
L 505.774872 195.858709 
L 506.074089 189.504919 
L 506.971741 189.504919 
L 507.270958 181.033239 
L 507.570175 189.504919 
L 508.168609 189.504919 
L 508.467826 195.858709 
L 509.06626 181.033239 
L 509.365477 172.561558 
L 509.664695 134.438937 
L 509.963912 157.736088 
L 510.263129 119.613506 
L 510.562346 113.259716 
L 510.861563 119.613506 
L 511.16078 119.613506 
L 511.459997 96.316356 
L 511.759214 113.259716 
L 512.058431 96.316356 
L 512.357648 119.613506 
L 512.656866 113.259716 
L 513.554517 157.736088 
L 513.853734 157.736088 
L 514.152951 181.033239 
L 514.452168 189.504919 
L 515.349819 189.504919 
L 515.649037 195.858709 
L 515.948254 195.858709 
L 516.247471 189.504919 
L 516.546688 195.858709 
L 516.845905 181.033239 
L 517.145122 189.504919 
L 517.444339 181.033239 
L 518.042773 195.858709 
L 518.34199 189.504919 
L 518.641208 195.858709 
L 518.940425 181.033239 
L 519.239642 181.033239 
L 519.838076 195.858709 
L 520.137293 189.504919 
L 520.43651 189.504919 
L 520.735727 181.033239 
L 521.034944 189.504919 
L 522.53103 189.504919 
L 522.830247 181.033239 
L 523.129464 189.504919 
L 523.428681 189.504919 
L 523.727898 166.207768 
L 524.027115 189.504919 
L 524.326333 181.033239 
L 524.62555 181.033239 
L 524.924767 189.504919 
L 525.523201 172.561558 
L 525.822418 189.504919 
L 526.420852 172.561558 
L 526.720069 172.561558 
L 527.019286 189.504919 
L 527.617721 172.561558 
L 527.916938 195.858709 
L 528.216155 189.504919 
L 528.515372 189.504919 
L 528.814589 195.858709 
L 529.413023 181.033239 
L 529.71224 172.561558 
L 530.310675 189.504919 
L 530.609892 204.33039 
L 530.909109 189.504919 
L 531.208326 189.504919 
L 531.507543 195.858709 
L 531.80676 195.858709 
L 532.105977 181.033239 
L 532.405194 189.504919 
L 532.704411 189.504919 
L 533.003628 195.858709 
L 533.302846 189.504919 
L 533.602063 189.504919 
L 533.90128 181.033239 
L 534.200497 195.858709 
L 534.499714 195.858709 
L 534.798931 204.33039 
L 535.098148 189.504919 
L 535.696582 189.504919 
L 535.9958 195.858709 
L 536.594234 181.033239 
L 536.893451 189.504919 
L 537.192668 189.504919 
L 537.491885 142.910657 
L 537.791102 151.382338 
L 538.090319 134.438937 
L 538.389536 142.910657 
L 538.688753 157.736088 
L 538.987971 119.613506 
L 539.287188 151.382338 
L 539.586405 119.613506 
L 539.885622 134.438937 
L 540.184839 113.259716 
L 540.484056 119.613506 
L 540.783273 142.910657 
L 541.08249 151.382338 
L 541.381707 134.438937 
L 541.680924 166.207768 
L 541.980142 172.561558 
L 542.279359 172.561558 
L 542.578576 166.207768 
L 543.17701 181.033239 
L 543.476227 195.858709 
L 543.775444 189.504919 
L 544.373878 189.504919 
L 544.673095 195.858709 
L 544.972313 189.504919 
L 545.27153 189.504919 
L 545.570747 195.858709 
L 545.869964 189.504919 
L 546.169181 195.858709 
L 546.468398 195.858709 
L 547.066832 181.033239 
L 547.366049 189.504919 
L 547.665267 181.033239 
L 548.263701 195.858709 
L 548.562918 189.504919 
L 548.862135 189.504919 
L 549.161352 195.858709 
L 549.460569 189.504919 
L 549.759786 195.858709 
L 550.059003 195.858709 
L 550.35822 166.207768 
L 550.956655 195.858709 
L 551.255872 195.858709 
L 551.555089 172.561558 
L 551.854306 172.561558 
L 552.153523 181.033239 
L 552.45274 195.858709 
L 552.751957 189.504919 
L 553.051174 195.858709 
L 553.350391 189.504919 
L 553.649609 195.858709 
L 553.948826 189.504919 
L 554.248043 195.858709 
L 554.54726 195.858709 
L 554.846477 189.504919 
L 555.444911 189.504919 
L 555.744128 195.858709 
L 556.043345 195.858709 
L 556.342562 172.561558 
L 556.64178 189.504919 
L 556.940997 195.858709 
L 557.240214 195.858709 
L 557.539431 189.504919 
L 558.437082 189.504919 
L 558.736299 195.858709 
L 559.035516 189.504919 
L 559.334733 189.504919 
L 559.633951 195.858709 
L 560.232385 195.858709 
L 560.531602 189.504919 
L 560.830819 195.858709 
L 561.130036 195.858709 
L 561.429253 181.033239 
L 561.72847 195.858709 
L 562.027687 189.504919 
L 562.326905 189.504919 
L 562.626122 195.858709 
L 562.925339 189.504919 
L 564.421424 189.504919 
L 564.720641 195.858709 
L 565.019858 189.504919 
L 565.319076 195.858709 
L 566.216727 195.858709 
L 566.515944 189.504919 
L 566.815161 195.858709 
L 567.114378 189.504919 
L 567.712812 189.504919 
L 568.012029 195.858709 
L 568.311247 189.504919 
L 568.610464 189.504919 
L 568.909681 195.858709 
L 569.508115 195.858709 
L 569.807332 189.504919 
L 570.106549 189.504919 
L 570.405766 195.858709 
L 570.704983 181.033239 
L 571.0042 189.504919 
L 571.303418 189.504919 
L 571.602635 195.858709 
L 571.901852 189.504919 
L 572.201069 195.858709 
L 572.500286 189.504919 
L 572.799503 189.504919 
L 573.09872 181.033239 
L 573.397937 181.033239 
L 573.697154 195.858709 
L 573.996372 195.858709 
L 574.295589 189.504919 
L 574.594806 195.858709 
L 574.894023 189.504919 
L 576.090891 189.504919 
L 576.390108 195.858709 
L 576.689325 189.504919 
L 576.988543 204.33039 
L 577.28776 189.504919 
L 577.586977 181.033239 
L 577.886194 189.504919 
L 578.783845 189.504919 
L 579.083062 195.858709 
L 579.382279 189.504919 
L 579.980714 189.504919 
L 580.279931 195.858709 
L 580.878365 195.858709 
L 581.177582 189.504919 
L 581.476799 189.504919 
L 581.776016 195.858709 
L 582.37445 195.858709 
L 582.673667 189.504919 
L 582.972885 195.858709 
L 584.46897 195.858709 
L 584.768187 189.504919 
L 585.067404 195.858709 
L 585.366621 195.858709 
L 585.665838 189.504919 
L 590.154095 189.504919 
L 590.453312 210.68414 
L 590.752529 172.561558 
L 591.051746 227.62752 
L 591.350963 204.33039 
L 591.650181 363.174545 
L 591.949398 233.981291 
L 592.248615 363.174545 
L 592.547832 204.33039 
L 592.847049 227.62752 
L 593.445483 195.858709 
L 593.7447 189.504919 
L 594.043917 204.33039 
L 594.343134 189.504919 
L 594.642352 195.858709 
L 594.941569 195.858709 
L 595.540003 181.033239 
L 595.83922 195.858709 
L 597.036088 195.858709 
L 597.335305 189.504919 
L 597.634523 204.33039 
L 597.93374 172.561558 
L 598.232957 195.858709 
L 598.532174 195.858709 
L 598.831391 189.504919 
L 599.130608 195.858709 
L 599.429825 189.504919 
L 599.729042 195.858709 
L 600.028259 189.504919 
L 601.823562 189.504919 
L 602.122779 181.033239 
L 602.421996 181.033239 
L 602.721213 195.858709 
L 603.319648 181.033239 
L 603.618865 195.858709 
L 604.217299 210.68414 
L 604.516516 210.68414 
L 604.815733 227.62752 
L 605.11495 219.15584 
L 605.414167 227.62752 
L 605.713384 204.33039 
L 606.012601 233.981291 
L 606.311819 233.981291 
L 606.611036 242.452971 
L 606.910253 204.33039 
L 607.508687 204.33039 
L 607.807904 181.033239 
L 608.107121 189.504919 
L 608.406338 181.033239 
L 608.705555 195.858709 
L 609.004772 195.858709 
L 609.30399 204.33039 
L 609.603207 195.858709 
L 609.902424 181.033239 
L 610.500858 181.033239 
L 610.800075 195.858709 
L 611.099292 189.504919 
L 611.697726 189.504919 
L 611.996943 204.33039 
L 612.296161 195.858709 
L 613.493029 195.858709 
L 613.792246 181.033239 
L 614.091463 189.504919 
L 614.989115 189.504919 
L 615.288332 195.858709 
L 615.587549 189.504919 
L 616.4852 189.504919 
L 616.784417 195.858709 
L 617.083634 195.858709 
L 617.382851 189.504919 
L 617.682068 204.33039 
L 617.981286 189.504919 
L 618.280503 181.033239 
L 618.57972 189.504919 
L 621.272674 189.504919 
L 621.571891 204.33039 
L 621.871108 189.504919 
L 623.067976 189.504919 
L 623.367193 195.858709 
L 623.66641 189.504919 
L 624.264845 189.504919 
L 624.564062 195.858709 
L 624.863279 181.033239 
L 625.162496 195.858709 
L 625.461713 195.858709 
L 625.76093 189.504919 
L 626.060147 189.504919 
L 626.658581 172.561558 
L 626.957799 172.561558 
L 627.257016 204.33039 
L 627.556233 189.504919 
L 627.85545 195.858709 
L 628.154667 189.504919 
L 628.453884 189.504919 
L 628.753101 195.858709 
L 629.052318 189.504919 
L 629.351535 189.504919 
L 629.650753 195.858709 
L 629.94997 189.504919 
L 630.249187 195.858709 
L 630.548404 189.504919 
L 630.847621 195.858709 
L 631.146838 195.858709 
L 631.446055 181.033239 
L 632.044489 195.858709 
L 632.343706 195.858709 
L 632.642924 181.033239 
L 633.241358 195.858709 
L 633.540575 195.858709 
L 633.839792 181.033239 
L 634.139009 189.504919 
L 634.737443 189.504919 
L 635.03666 181.033239 
L 635.335877 189.504919 
L 635.934312 189.504919 
L 636.233529 181.033239 
L 636.532746 189.504919 
L 637.13118 189.504919 
L 637.430397 195.858709 
L 637.729614 189.504919 
L 638.028831 189.504919 
L 638.328048 181.033239 
L 638.627266 195.858709 
L 639.2257 181.033239 
L 639.524917 172.561558 
L 640.422568 172.561558 
L 640.721785 151.382338 
L 641.021002 181.033239 
L 641.320219 166.207768 
L 641.918654 195.858709 
L 642.217871 189.504919 
L 642.517088 195.858709 
L 643.414739 195.858709 
L 643.713956 189.504919 
L 644.013173 195.858709 
L 644.312391 189.504919 
L 644.611608 189.504919 
L 644.910825 181.033239 
L 645.210042 189.504919 
L 645.509259 181.033239 
L 645.808476 189.504919 
L 646.107693 204.33039 
L 646.40691 189.504919 
L 647.304562 189.504919 
L 647.603779 181.033239 
L 647.902996 189.504919 
L 648.202213 181.033239 
L 648.800647 195.858709 
L 649.099864 181.033239 
L 649.399081 181.033239 
L 649.698298 204.33039 
L 649.997515 195.858709 
L 650.296733 204.33039 
L 650.59595 181.033239 
L 650.895167 195.858709 
L 651.493601 181.033239 
L 652.092035 195.858709 
L 652.391252 181.033239 
L 652.690469 142.910657 
L 652.989686 134.438937 
L 653.288904 151.382338 
L 653.588121 119.613506 
L 653.887338 113.259716 
L 654.186555 128.085187 
L 654.485772 134.438937 
L 654.784989 96.316356 
L 655.383423 113.259716 
L 655.68264 96.316356 
L 655.981858 134.438937 
L 656.281075 119.613506 
L 656.580292 142.910657 
L 656.879509 151.382338 
L 657.178726 166.207768 
L 657.77716 181.033239 
L 658.076377 195.858709 
L 658.375594 172.561558 
L 658.674811 189.504919 
L 658.974029 195.858709 
L 659.273246 189.504919 
L 659.572463 195.858709 
L 661.068548 195.858709 
L 661.367765 189.504919 
L 661.666982 195.858709 
L 661.9662 189.504919 
L 662.265417 195.858709 
L 662.564634 189.504919 
L 663.163068 189.504919 
L 663.462285 181.033239 
L 663.761502 181.033239 
L 664.060719 189.504919 
L 664.359936 189.504919 
L 664.659153 181.033239 
L 665.257588 195.858709 
L 665.556805 189.504919 
L 665.856022 189.504919 
L 666.155239 181.033239 
L 666.454456 189.504919 
L 666.753673 172.561558 
L 667.05289 172.561558 
L 667.352107 166.207768 
L 667.950542 119.613506 
L 668.249759 128.085187 
L 668.548976 128.085187 
L 668.848193 113.259716 
L 669.745844 113.259716 
L 670.344278 142.910657 
L 670.942713 157.736088 
L 671.24193 172.561558 
L 671.541147 172.561558 
L 671.840364 189.504919 
L 672.438798 189.504919 
L 672.738015 195.858709 
L 673.037232 189.504919 
L 673.336449 195.858709 
L 673.635667 189.504919 
L 674.234101 189.504919 
L 674.533318 181.033239 
L 674.832535 195.858709 
L 675.131752 189.504919 
L 675.430969 195.858709 
L 676.029403 195.858709 
L 676.32862 181.033239 
L 676.627838 181.033239 
L 677.226272 195.858709 
L 677.525489 195.858709 
L 677.824706 204.33039 
L 678.123923 181.033239 
L 678.42314 189.504919 
L 679.620009 189.504919 
L 679.919226 172.561558 
L 680.218443 189.504919 
L 680.51766 195.858709 
L 681.415311 195.858709 
L 681.714528 189.504919 
L 682.312963 189.504919 
L 682.61218 181.033239 
L 682.911397 181.033239 
L 683.210614 189.504919 
L 683.509831 172.561558 
L 684.108265 189.504919 
L 684.407482 189.504919 
L 684.706699 181.033239 
L 685.005916 204.33039 
L 685.604351 189.504919 
L 685.903568 189.504919 
L 686.502002 204.33039 
L 686.801219 189.504919 
L 687.100436 195.858709 
L 687.399653 189.504919 
L 687.998087 204.33039 
L 688.297305 189.504919 
L 688.596522 189.504919 
L 688.895739 195.858709 
L 689.194956 181.033239 
L 689.494173 195.858709 
L 689.79339 181.033239 
L 690.391824 195.858709 
L 690.691041 195.858709 
L 690.990258 189.504919 
L 691.289476 195.858709 
L 691.588693 189.504919 
L 691.88791 195.858709 
L 692.187127 195.858709 
L 692.486344 189.504919 
L 693.084778 189.504919 
L 693.383995 195.858709 
L 693.683212 195.858709 
L 693.982429 181.033239 
L 694.281647 189.504919 
L 694.580864 189.504919 
L 694.880081 195.858709 
L 695.179298 195.858709 
L 695.478515 181.033239 
L 695.777732 204.33039 
L 696.076949 189.504919 
L 696.376166 204.33039 
L 696.675383 181.033239 
L 696.974601 189.504919 
L 697.273818 189.504919 
L 697.573035 195.858709 
L 698.171469 181.033239 
L 698.470686 195.858709 
L 699.06912 195.858709 
L 699.368337 181.033239 
L 699.966772 195.858709 
L 700.864423 195.858709 
L 701.16364 189.504919 
L 701.462857 195.858709 
L 701.762074 181.033239 
L 702.061291 189.504919 
L 702.360508 181.033239 
L 702.659725 189.504919 
L 704.155811 189.504919 
L 704.455028 195.858709 
L 705.053462 195.858709 
L 705.651896 181.033239 
L 705.951114 204.33039 
L 706.250331 189.504919 
L 706.848765 189.504919 
L 707.147982 195.858709 
L 707.447199 181.033239 
L 707.746416 195.858709 
L 708.045633 181.033239 
L 708.34485 181.033239 
L 708.644067 189.504919 
L 708.943285 189.504919 
L 709.242502 195.858709 
L 709.541719 181.033239 
L 709.840936 189.504919 
L 710.140153 181.033239 
L 710.738587 181.033239 
L 711.037804 172.561558 
L 711.337021 172.561558 
L 711.636239 142.910657 
L 711.935456 151.382338 
L 712.234673 172.561558 
L 712.53389 142.910657 
L 712.833107 151.382338 
L 713.132324 151.382338 
L 713.431541 166.207768 
L 713.730758 166.207768 
L 714.029975 189.504919 
L 714.329192 189.504919 
L 714.62841 195.858709 
L 714.927627 189.504919 
L 715.526061 189.504919 
L 715.825278 181.033239 
L 716.124495 189.504919 
L 717.022146 189.504919 
L 717.321363 195.858709 
L 717.620581 189.504919 
L 717.919798 189.504919 
L 718.219015 181.033239 
L 718.518232 181.033239 
L 718.817449 189.504919 
L 719.415883 189.504919 
L 719.7151 181.033239 
L 720.014317 189.504919 
L 720.313534 181.033239 
L 720.612752 181.033239 
L 720.911969 195.858709 
L 721.211186 189.504919 
L 721.510403 189.504919 
L 721.80962 181.033239 
L 722.408054 181.033239 
L 722.707271 195.858709 
L 723.006488 189.504919 
L 723.90414 189.504919 
L 724.203357 172.561558 
L 724.801791 157.736088 
L 725.101008 157.736088 
L 725.400225 172.561558 
L 725.699442 142.910657 
L 726.297877 142.910657 
L 726.597094 113.259716 
L 726.896311 128.085187 
L 727.195528 119.613506 
L 727.494745 151.382338 
L 728.093179 151.382338 
L 728.392396 166.207768 
L 728.691613 151.382338 
L 728.99083 181.033239 
L 729.290048 189.504919 
L 729.888482 189.504919 
L 730.187699 195.858709 
L 730.486916 189.504919 
L 730.786133 195.858709 
L 731.08535 189.504919 
L 731.683784 189.504919 
L 731.983001 204.33039 
L 732.282219 189.504919 
L 732.880653 189.504919 
L 733.17987 181.033239 
L 733.479087 195.858709 
L 733.778304 181.033239 
L 734.077521 189.504919 
L 734.975172 189.504919 
L 735.27439 181.033239 
L 735.573607 189.504919 
L 736.172041 189.504919 
L 736.471258 181.033239 
L 737.069692 195.858709 
L 737.368909 181.033239 
L 737.668126 189.504919 
L 737.967344 181.033239 
L 738.266561 195.858709 
L 739.164212 128.085187 
L 739.463429 128.085187 
L 739.762646 134.438937 
L 740.061863 104.788036 
L 740.36108 113.259716 
L 740.660297 96.316356 
L 740.959515 104.788036 
L 741.258732 96.316356 
L 741.557949 96.316356 
L 741.857166 134.438937 
L 742.4556 119.613506 
L 742.754817 166.207768 
L 743.054034 172.561558 
L 743.353251 151.382338 
L 743.652468 181.033239 
L 743.951686 181.033239 
L 744.55012 195.858709 
L 745.746988 195.858709 
L 746.046205 189.504919 
L 746.943857 189.504919 
L 747.243074 181.033239 
L 747.542291 189.504919 
L 747.841508 181.033239 
L 748.140725 189.504919 
L 748.439942 181.033239 
L 748.739159 181.033239 
L 749.038376 189.504919 
L 750.235245 189.504919 
L 750.534462 195.858709 
L 750.833679 189.504919 
L 751.132896 195.858709 
L 751.432113 189.504919 
L 751.73133 195.858709 
L 752.329764 195.858709 
L 752.628982 189.504919 
L 752.928199 172.561558 
L 753.227416 172.561558 
L 753.526633 157.736088 
L 753.82585 119.613506 
L 754.125067 128.085187 
L 754.424284 119.613506 
L 754.723501 142.910657 
L 755.022718 142.910657 
L 755.321935 128.085187 
L 755.621153 104.788036 
L 755.92037 113.259716 
L 756.219587 142.910657 
L 756.518804 142.910657 
L 756.818021 157.736088 
L 757.117238 151.382338 
L 757.416455 151.382338 
L 757.715672 172.561558 
L 758.014889 172.561558 
L 758.314106 189.504919 
L 758.912541 189.504919 
L 759.211758 195.858709 
L 759.810192 195.858709 
L 760.109409 204.33039 
L 760.408626 189.504919 
L 760.707843 195.858709 
L 761.00706 189.504919 
L 761.605495 204.33039 
L 761.904712 195.858709 
L 762.203929 181.033239 
L 762.503146 189.504919 
L 763.400797 189.504919 
L 763.700014 181.033239 
L 763.999231 181.033239 
L 764.597666 195.858709 
L 764.896883 195.858709 
L 765.1961 189.504919 
L 765.495317 189.504919 
L 765.794534 195.858709 
L 766.093751 181.033239 
L 766.392968 189.504919 
L 766.692185 172.561558 
L 766.991402 189.504919 
L 767.29062 157.736088 
L 767.589837 166.207768 
L 768.188271 113.259716 
L 768.487488 119.613506 
L 768.786705 113.259716 
L 769.085922 128.085187 
L 769.385139 104.788036 
L 769.684356 119.613506 
L 770.282791 89.962605 
L 770.881225 128.085187 
L 771.180442 128.085187 
L 771.479659 113.259716 
L 771.778876 142.910657 
L 772.078093 151.382338 
L 772.37731 172.561558 
L 772.975744 172.561558 
L 773.274962 189.504919 
L 773.574179 195.858709 
L 773.873396 189.504919 
L 774.172613 195.858709 
L 774.47183 189.504919 
L 774.771047 195.858709 
L 776.56635 195.858709 
L 776.865567 181.033239 
L 777.464001 195.858709 
L 777.763218 195.858709 
L 778.062435 189.504919 
L 778.361652 195.858709 
L 780.156955 195.858709 
L 780.456172 189.504919 
L 780.755389 189.504919 
L 781.054606 195.858709 
L 781.353823 195.858709 
L 781.952258 157.736088 
L 782.251475 142.910657 
L 782.550692 142.910657 
L 783.149126 128.085187 
L 783.448343 113.259716 
L 783.74756 128.085187 
L 784.046777 104.788036 
L 784.345994 119.613506 
L 784.645211 113.259716 
L 784.944429 119.613506 
L 785.243646 119.613506 
L 785.542863 128.085187 
L 785.84208 142.910657 
L 786.141297 166.207768 
L 786.440514 172.561558 
L 786.739731 172.561558 
L 787.038948 189.504919 
L 787.637382 204.33039 
L 788.235817 204.33039 
L 788.535034 195.858709 
L 788.834251 172.561558 
L 789.133468 204.33039 
L 789.432685 142.910657 
L 789.731902 204.33039 
L 790.031119 172.561558 
L 790.330336 195.858709 
L 790.629553 157.736088 
L 790.928771 204.33039 
L 791.227988 157.736088 
L 791.527205 195.858709 
L 791.826422 166.207768 
L 792.125639 172.561558 
L 792.424856 172.561558 
L 792.724073 195.858709 
L 793.02329 172.561558 
L 793.322507 195.858709 
L 793.621725 172.561558 
L 793.920942 195.858709 
L 794.220159 157.736088 
L 794.519376 195.858709 
L 794.818593 204.33039 
L 795.11781 204.33039 
L 795.417027 128.085187 
L 795.716244 189.504919 
L 796.015461 157.736088 
L 796.613896 142.910657 
L 796.913113 134.438937 
L 797.21233 134.438937 
L 797.511547 119.613506 
L 797.810764 119.613506 
L 798.109981 128.085187 
L 798.409198 128.085187 
L 798.708415 142.910657 
L 799.306849 157.736088 
L 799.606067 172.561558 
L 799.905284 172.561558 
L 800.204501 181.033239 
L 800.503718 172.561558 
L 801.102152 204.33039 
L 803.495889 204.33039 
L 803.795106 157.736088 
L 804.094323 195.858709 
L 804.39354 157.736088 
L 804.692757 195.858709 
L 804.991974 204.33039 
L 805.291192 204.33039 
L 805.590409 181.033239 
L 806.188843 195.858709 
L 806.787277 195.858709 
L 807.086494 204.33039 
L 807.385711 195.858709 
L 807.984145 195.858709 
L 808.283363 204.33039 
L 808.58258 189.504919 
L 808.881797 181.033239 
L 809.181014 195.858709 
L 809.480231 195.858709 
L 809.779448 189.504919 
L 810.078665 195.858709 
L 810.377882 195.858709 
L 810.677099 181.033239 
L 810.976316 189.504919 
L 811.275534 172.561558 
L 811.574751 181.033239 
L 811.873968 181.033239 
L 812.173185 172.561558 
L 813.070836 172.561558 
L 813.370053 189.504919 
L 814.566922 189.504919 
L 814.866139 195.858709 
L 815.165356 181.033239 
L 815.464573 195.858709 
L 816.661441 195.858709 
L 816.960658 181.033239 
L 817.259876 195.858709 
L 817.559093 189.504919 
L 817.85831 195.858709 
L 818.157527 189.504919 
L 818.456744 195.858709 
L 819.055178 195.858709 
L 819.354395 189.504919 
L 819.653612 195.858709 
L 822.346566 195.858709 
L 822.645783 189.504919 
L 822.945001 195.858709 
L 823.543435 195.858709 
L 823.842652 189.504919 
L 824.141869 189.504919 
L 824.441086 195.858709 
L 824.740303 189.504919 
L 825.03952 189.504919 
L 825.338737 195.858709 
L 825.937172 181.033239 
L 826.236389 189.504919 
L 826.834823 189.504919 
L 827.13404 181.033239 
L 827.433257 189.504919 
L 828.630125 189.504919 
L 828.929343 195.858709 
L 829.22856 195.858709 
L 829.527777 189.504919 
L 829.826994 195.858709 
L 830.126211 189.504919 
L 831.323079 189.504919 
L 831.622296 181.033239 
L 831.921514 189.504919 
L 832.220731 181.033239 
L 832.519948 189.504919 
L 832.819165 181.033239 
L 833.118382 189.504919 
L 833.417599 189.504919 
L 833.716816 181.033239 
L 834.31525 195.858709 
L 834.614468 189.504919 
L 835.212902 189.504919 
L 835.512119 195.858709 
L 835.811336 189.504919 
L 836.110553 189.504919 
L 836.40977 195.858709 
L 836.708987 195.858709 
L 837.008204 189.504919 
L 838.205073 189.504919 
L 838.50429 195.858709 
L 838.803507 189.504919 
L 840.299592 189.504919 
L 840.59881 172.561558 
L 841.197244 172.561558 
L 841.496461 142.910657 
L 841.795678 172.561558 
L 842.394112 172.561558 
L 842.693329 181.033239 
L 842.992546 181.033239 
L 843.291763 195.858709 
L 843.890198 181.033239 
L 844.189415 189.504919 
L 844.488632 181.033239 
L 844.787849 195.858709 
L 845.087066 195.858709 
L 845.386283 181.033239 
L 845.6855 195.858709 
L 845.984717 189.504919 
L 846.283935 189.504919 
L 846.583152 195.858709 
L 846.882369 189.504919 
L 847.78002 189.504919 
L 848.079237 195.858709 
L 848.378454 189.504919 
L 848.677671 189.504919 
L 849.276106 204.33039 
L 849.575323 189.504919 
L 850.173757 189.504919 
L 850.472974 204.33039 
L 850.772191 195.858709 
L 851.071408 195.858709 
L 851.370625 189.504919 
L 851.669842 189.504919 
L 851.969059 181.033239 
L 852.567494 195.858709 
L 852.866711 166.207768 
L 853.165928 189.504919 
L 853.465145 189.504919 
L 853.764362 181.033239 
L 854.96123 181.033239 
L 855.260448 166.207768 
L 855.559665 166.207768 
L 855.858882 172.561558 
L 856.158099 172.561558 
L 856.457316 189.504919 
L 857.354967 189.504919 
L 857.654184 195.858709 
L 857.953401 181.033239 
L 858.252619 189.504919 
L 858.851053 189.504919 
L 859.15027 195.858709 
L 859.748704 195.858709 
L 860.047921 189.504919 
L 860.646355 189.504919 
L 860.945573 195.858709 
L 861.24479 181.033239 
L 861.544007 204.33039 
L 861.843224 189.504919 
L 862.441658 189.504919 
L 862.740875 195.858709 
L 863.040092 189.504919 
L 864.236961 189.504919 
L 864.536178 195.858709 
L 864.835395 181.033239 
L 865.134612 189.504919 
L 865.433829 181.033239 
L 865.733046 195.858709 
L 866.032263 189.504919 
L 866.33148 195.858709 
L 866.630697 189.504919 
L 866.929915 204.33039 
L 867.229132 189.504919 
L 867.528349 195.858709 
L 867.827566 181.033239 
L 868.126783 195.858709 
L 868.426 195.858709 
L 868.725217 189.504919 
L 869.024434 195.858709 
L 869.323651 181.033239 
L 869.622868 189.504919 
L 869.922086 189.504919 
L 870.221303 195.858709 
L 870.52052 189.504919 
L 870.819737 189.504919 
L 871.118954 195.858709 
L 871.418171 189.504919 
L 871.717388 195.858709 
L 872.016605 189.504919 
L 872.61504 189.504919 
L 872.914257 195.858709 
L 873.213474 189.504919 
L 875.307993 189.504919 
L 875.607211 195.858709 
L 875.906428 189.504919 
L 876.205645 195.858709 
L 876.504862 189.504919 
L 876.804079 189.504919 
L 877.103296 181.033239 
L 877.402513 189.504919 
L 877.70173 189.504919 
L 878.000947 181.033239 
L 878.300164 195.858709 
L 878.898599 195.858709 
L 879.197816 189.504919 
L 879.497033 189.504919 
L 879.79625 195.858709 
L 880.095467 195.858709 
L 880.394684 189.504919 
L 880.693901 204.33039 
L 880.993118 189.504919 
L 881.292335 189.504919 
L 881.591553 195.858709 
L 881.89077 195.858709 
L 882.189987 189.504919 
L 882.489204 195.858709 
L 882.788421 195.858709 
L 883.087638 189.504919 
L 883.386855 195.858709 
L 883.686072 189.504919 
L 884.284506 204.33039 
L 884.583724 195.858709 
L 885.182158 195.858709 
L 885.481375 181.033239 
L 886.079809 195.858709 
L 886.379026 195.858709 
L 886.678243 189.504919 
L 886.97746 189.504919 
L 887.276678 195.858709 
L 887.575895 195.858709 
L 887.875112 204.33039 
L 888.473546 189.504919 
L 888.772763 189.504919 
L 889.07198 195.858709 
L 889.371197 189.504919 
L 889.969631 189.504919 
L 890.268849 195.858709 
L 890.568066 189.504919 
L 891.465717 189.504919 
L 891.764934 195.858709 
L 892.064151 189.504919 
L 892.662585 189.504919 
L 892.961802 181.033239 
L 893.26102 195.858709 
L 893.560237 195.858709 
L 893.859454 189.504919 
L 894.457888 189.504919 
L 894.757105 181.033239 
L 895.056322 189.504919 
L 895.355539 189.504919 
L 895.654756 195.858709 
L 897.150842 195.858709 
L 897.450059 189.504919 
L 897.749276 195.858709 
L 898.048493 189.504919 
L 898.34771 189.504919 
L 898.646927 195.858709 
L 899.245362 195.858709 
L 899.544579 189.504919 
L 900.143013 189.504919 
L 900.44223 195.858709 
L 901.040664 195.858709 
L 901.339881 189.504919 
L 901.938316 189.504919 
L 902.237533 195.858709 
L 902.53675 189.504919 
L 903.135184 189.504919 
L 903.434401 195.858709 
L 903.733618 189.504919 
L 904.032835 195.858709 
L 904.332052 195.858709 
L 904.631269 181.033239 
L 904.930487 189.504919 
L 905.528921 189.504919 
L 905.828138 195.858709 
L 906.426572 181.033239 
L 906.725789 189.504919 
L 907.025006 189.504919 
L 907.324223 204.33039 
L 907.922658 189.504919 
L 908.221875 195.858709 
L 908.521092 189.504919 
L 908.820309 189.504919 
L 909.119526 172.561558 
L 909.71796 204.33039 
L 910.017177 181.033239 
L 910.316394 195.858709 
L 910.615611 195.858709 
L 910.914829 189.504919 
L 911.214046 195.858709 
L 912.410914 195.858709 
L 912.710131 189.504919 
L 913.009348 195.858709 
L 913.308565 189.504919 
L 913.607783 195.858709 
L 913.907 189.504919 
L 914.206217 195.858709 
L 915.403085 195.858709 
L 915.702302 189.504919 
L 916.001519 195.858709 
L 916.300736 189.504919 
L 916.899171 189.504919 
L 917.198388 181.033239 
L 917.796822 195.858709 
L 918.096039 189.504919 
L 918.694473 189.504919 
L 918.99369 195.858709 
L 919.292907 195.858709 
L 919.592125 204.33039 
L 919.891342 195.858709 
L 920.190559 195.858709 
L 920.489776 181.033239 
L 920.788993 189.504919 
L 921.08821 189.504919 
L 921.387427 195.858709 
L 921.686644 189.504919 
L 921.985861 189.504919 
L 922.285078 195.858709 
L 922.584296 189.504919 
L 922.883513 189.504919 
L 923.18273 204.33039 
L 923.481947 189.504919 
L 923.781164 181.033239 
L 924.080381 189.504919 
L 924.978032 189.504919 
L 925.277249 195.858709 
L 925.576467 195.858709 
L 925.875684 189.504919 
L 926.474118 189.504919 
L 926.773335 195.858709 
L 927.072552 189.504919 
L 927.371769 195.858709 
L 928.568638 195.858709 
L 928.867855 204.33039 
L 929.167072 204.33039 
L 929.765506 189.504919 
L 930.064723 189.504919 
L 930.36394 195.858709 
L 930.663157 195.858709 
L 930.962374 189.504919 
L 931.261592 204.33039 
L 931.560809 189.504919 
L 932.757677 189.504919 
L 933.056894 181.033239 
L 933.356111 195.858709 
L 933.655328 204.33039 
L 933.954545 189.504919 
L 933.954545 189.504919 
" style="fill:none;stroke:#1f77b4;stroke-linecap:round;stroke-width:1.5;"/>
   </g>
   <g id="patch_3">
    <path d="M 135 378 
L 135 51.84 
" style="fill:none;stroke:#cccccc;stroke-linecap:square;stroke-linejoin:miter;stroke-width:0.8;"/>
   </g>
   <g id="patch_4">
    <path d="M 972 378 
L 972 51.84 
" style="fill:none;stroke:#cccccc;stroke-linecap:square;stroke-linejoin:miter;stroke-width:0.8;"/>
   </g>
   <g id="patch_5">
    <path d="M 135 378 
L 972 378 
" style="fill:none;stroke:#cccccc;stroke-linecap:square;stroke-linejoin:miter;stroke-width:0.8;"/>
   </g>
   <g id="patch_6">
    <path d="M 135 51.84 
L 972 51.84 
" style="fill:none;stroke:#cccccc;stroke-linecap:square;stroke-linejoin:miter;stroke-width:0.8;"/>
   </g>
   <g id="text_19">
    <!-- Max pressure in bar registered for any of the four compressors belonging to the 2 chillers during  the validation month -->
    <defs>
     <path d="M 25.875 7.90625 
L 25.875 -20.796875 
L 8.40625 -20.796875 
L 8.40625 54.6875 
L 25.875 54.6875 
L 25.875 46.6875 
Q 29.5 51.46875 33.890625 53.734375 
Q 38.28125 56 44 56 
Q 54.109375 56 60.59375 47.96875 
Q 67.09375 39.9375 67.09375 27.296875 
Q 67.09375 14.65625 60.59375 6.609375 
Q 54.109375 -1.421875 44 -1.421875 
Q 38.28125 -1.421875 33.890625 0.84375 
Q 29.5 3.125 25.875 7.90625 
z
M 37.5 43.3125 
Q 31.890625 43.3125 28.875 39.1875 
Q 25.875 35.0625 25.875 27.296875 
Q 25.875 19.53125 28.875 15.40625 
Q 31.890625 11.28125 37.5 11.28125 
Q 43.109375 11.28125 46.0625 15.375 
Q 49.03125 19.484375 49.03125 27.296875 
Q 49.03125 35.109375 46.0625 39.203125 
Q 43.109375 43.3125 37.5 43.3125 
z
" id="DejaVuSans-Bold-112"/>
     <path d="M 63.375 33.296875 
L 63.375 0 
L 45.796875 0 
L 45.796875 5.421875 
L 45.796875 25.484375 
Q 45.796875 32.5625 45.484375 35.25 
Q 45.171875 37.9375 44.390625 39.203125 
Q 43.359375 40.921875 41.59375 41.875 
Q 39.84375 42.828125 37.59375 42.828125 
Q 32.125 42.828125 29 38.59375 
Q 25.875 34.375 25.875 26.90625 
L 25.875 0 
L 8.40625 0 
L 8.40625 54.6875 
L 25.875 54.6875 
L 25.875 46.6875 
Q 29.828125 51.46875 34.265625 53.734375 
Q 38.71875 56 44.09375 56 
Q 53.5625 56 58.46875 50.1875 
Q 63.375 44.390625 63.375 33.296875 
z
" id="DejaVuSans-Bold-110"/>
     <path d="M 45.609375 9.28125 
Q 42 4.5 37.640625 2.25 
Q 33.296875 0 27.59375 0 
Q 17.578125 0 11.03125 7.875 
Q 4.5 15.765625 4.5 27.984375 
Q 4.5 40.234375 11.03125 48.0625 
Q 17.578125 55.90625 27.59375 55.90625 
Q 33.296875 55.90625 37.640625 53.65625 
Q 42 51.421875 45.609375 46.578125 
L 45.609375 54.6875 
L 63.1875 54.6875 
L 63.1875 5.515625 
Q 63.1875 -7.671875 54.859375 -14.625 
Q 46.53125 -21.578125 30.71875 -21.578125 
Q 25.59375 -21.578125 20.796875 -20.796875 
Q 16.015625 -20.015625 11.1875 -18.40625 
L 11.1875 -4.78125 
Q 15.765625 -7.421875 20.15625 -8.71875 
Q 24.5625 -10.015625 29 -10.015625 
Q 37.59375 -10.015625 41.59375 -6.25 
Q 45.609375 -2.484375 45.609375 5.515625 
z
M 34.078125 43.3125 
Q 28.65625 43.3125 25.625 39.296875 
Q 22.609375 35.296875 22.609375 27.984375 
Q 22.609375 20.453125 25.53125 16.578125 
Q 28.46875 12.703125 34.078125 12.703125 
Q 39.546875 12.703125 42.578125 16.703125 
Q 45.609375 20.703125 45.609375 27.984375 
Q 45.609375 35.296875 42.578125 39.296875 
Q 39.546875 43.3125 34.078125 43.3125 
z
" id="DejaVuSans-Bold-103"/>
     <path d="M 27.484375 70.21875 
L 27.484375 54.6875 
L 45.515625 54.6875 
L 45.515625 42.1875 
L 27.484375 42.1875 
L 27.484375 19 
Q 27.484375 15.1875 29 13.84375 
Q 30.515625 12.5 35.015625 12.5 
L 44 12.5 
L 44 0 
L 29 0 
Q 18.65625 0 14.328125 4.3125 
Q 10.015625 8.640625 10.015625 19 
L 10.015625 42.1875 
L 1.3125 42.1875 
L 1.3125 54.6875 
L 10.015625 54.6875 
L 10.015625 70.21875 
z
" id="DejaVuSans-Bold-116"/>
     <path d="M 45.609375 46.6875 
L 45.609375 75.984375 
L 63.1875 75.984375 
L 63.1875 0 
L 45.609375 0 
L 45.609375 7.90625 
Q 42 3.078125 37.640625 0.828125 
Q 33.296875 -1.421875 27.59375 -1.421875 
Q 17.484375 -1.421875 10.984375 6.609375 
Q 4.5 14.65625 4.5 27.296875 
Q 4.5 39.9375 10.984375 47.96875 
Q 17.484375 56 27.59375 56 
Q 33.25 56 37.625 53.734375 
Q 42 51.46875 45.609375 46.6875 
z
M 34.078125 11.28125 
Q 39.703125 11.28125 42.65625 15.375 
Q 45.609375 19.484375 45.609375 27.296875 
Q 45.609375 35.109375 42.65625 39.203125 
Q 39.703125 43.3125 34.078125 43.3125 
Q 28.515625 43.3125 25.5625 39.203125 
Q 22.609375 35.109375 22.609375 27.296875 
Q 22.609375 19.484375 25.5625 15.375 
Q 28.515625 11.28125 34.078125 11.28125 
z
" id="DejaVuSans-Bold-100"/>
     <path d="M 44.390625 75.984375 
L 44.390625 64.5 
L 34.71875 64.5 
Q 31 64.5 29.53125 63.15625 
Q 28.078125 61.8125 28.078125 58.5 
L 28.078125 54.6875 
L 43.015625 54.6875 
L 43.015625 42.1875 
L 28.078125 42.1875 
L 28.078125 0 
L 10.59375 0 
L 10.59375 42.1875 
L 1.90625 42.1875 
L 1.90625 54.6875 
L 10.59375 54.6875 
L 10.59375 58.5 
Q 10.59375 67.4375 15.578125 71.703125 
Q 20.5625 75.984375 31 75.984375 
z
" id="DejaVuSans-Bold-102"/>
     <path d="M 34.421875 43.5 
Q 28.609375 43.5 25.5625 39.328125 
Q 22.515625 35.15625 22.515625 27.296875 
Q 22.515625 19.4375 25.5625 15.25 
Q 28.609375 11.078125 34.421875 11.078125 
Q 40.140625 11.078125 43.15625 15.25 
Q 46.1875 19.4375 46.1875 27.296875 
Q 46.1875 35.15625 43.15625 39.328125 
Q 40.140625 43.5 34.421875 43.5 
z
M 34.421875 56 
Q 48.53125 56 56.46875 48.375 
Q 64.40625 40.765625 64.40625 27.296875 
Q 64.40625 13.8125 56.46875 6.1875 
Q 48.53125 -1.421875 34.421875 -1.421875 
Q 20.265625 -1.421875 12.28125 6.1875 
Q 4.296875 13.8125 4.296875 27.296875 
Q 4.296875 40.765625 12.28125 48.375 
Q 20.265625 56 34.421875 56 
z
" id="DejaVuSans-Bold-111"/>
     <path d="M 1.21875 54.6875 
L 18.703125 54.6875 
L 33.40625 17.578125 
L 45.90625 54.6875 
L 63.375 54.6875 
L 40.375 -5.171875 
Q 36.921875 -14.3125 32.296875 -17.9375 
Q 27.6875 -21.578125 20.125 -21.578125 
L 10.015625 -21.578125 
L 10.015625 -10.109375 
L 15.484375 -10.109375 
Q 19.921875 -10.109375 21.9375 -8.6875 
Q 23.96875 -7.28125 25.09375 -3.609375 
L 25.59375 -2.09375 
z
" id="DejaVuSans-Bold-121"/>
     <path d="M 63.375 33.296875 
L 63.375 0 
L 45.796875 0 
L 45.796875 5.421875 
L 45.796875 25.390625 
Q 45.796875 32.5625 45.484375 35.25 
Q 45.171875 37.9375 44.390625 39.203125 
Q 43.359375 40.921875 41.59375 41.875 
Q 39.84375 42.828125 37.59375 42.828125 
Q 32.125 42.828125 29 38.59375 
Q 25.875 34.375 25.875 26.90625 
L 25.875 0 
L 8.40625 0 
L 8.40625 75.984375 
L 25.875 75.984375 
L 25.875 46.6875 
Q 29.828125 51.46875 34.265625 53.734375 
Q 38.71875 56 44.09375 56 
Q 53.5625 56 58.46875 50.1875 
Q 63.375 44.390625 63.375 33.296875 
z
" id="DejaVuSans-Bold-104"/>
     <path d="M 52.59375 52.984375 
L 52.59375 38.71875 
Q 49.03125 41.15625 45.4375 42.328125 
Q 41.84375 43.5 37.984375 43.5 
Q 30.671875 43.5 26.59375 39.234375 
Q 22.515625 34.96875 22.515625 27.296875 
Q 22.515625 19.625 26.59375 15.34375 
Q 30.671875 11.078125 37.984375 11.078125 
Q 42.09375 11.078125 45.78125 12.296875 
Q 49.46875 13.53125 52.59375 15.921875 
L 52.59375 1.609375 
Q 48.484375 0.09375 44.265625 -0.65625 
Q 40.046875 -1.421875 35.796875 -1.421875 
Q 21 -1.421875 12.640625 6.171875 
Q 4.296875 13.765625 4.296875 27.296875 
Q 4.296875 40.828125 12.640625 48.40625 
Q 21 56 35.796875 56 
Q 40.09375 56 44.265625 55.25 
Q 48.4375 54.5 52.59375 52.984375 
z
" id="DejaVuSans-Bold-99"/>
     <path d="M 8.40625 75.984375 
L 25.875 75.984375 
L 25.875 0 
L 8.40625 0 
z
" id="DejaVuSans-Bold-108"/>
     <path d="M 28.8125 13.8125 
L 60.890625 13.8125 
L 60.890625 0 
L 7.90625 0 
L 7.90625 13.8125 
L 34.515625 37.3125 
Q 38.09375 40.53125 39.796875 43.609375 
Q 41.5 46.6875 41.5 50 
Q 41.5 55.125 38.0625 58.25 
Q 34.625 61.375 28.90625 61.375 
Q 24.515625 61.375 19.28125 59.5 
Q 14.0625 57.625 8.109375 53.90625 
L 8.109375 69.921875 
Q 14.453125 72.015625 20.65625 73.109375 
Q 26.859375 74.21875 32.8125 74.21875 
Q 45.90625 74.21875 53.15625 68.453125 
Q 60.40625 62.703125 60.40625 52.390625 
Q 60.40625 46.4375 57.328125 41.28125 
Q 54.25 36.140625 44.390625 27.484375 
z
" id="DejaVuSans-Bold-50"/>
     <path d="M 1.515625 54.6875 
L 19 54.6875 
L 32.625 16.890625 
L 46.1875 54.6875 
L 63.71875 54.6875 
L 42.1875 0 
L 23 0 
z
" id="DejaVuSans-Bold-118"/>
    </defs>
    <g style="fill:#262626;" transform="translate(-121.04375 45.84)scale(0.2 -0.2)">
     <use xlink:href="#DejaVuSans-Bold-77"/>
     <use x="99.511719" xlink:href="#DejaVuSans-Bold-97"/>
     <use x="166.992188" xlink:href="#DejaVuSans-Bold-120"/>
     <use x="231.494141" xlink:href="#DejaVuSans-Bold-32"/>
     <use x="266.308594" xlink:href="#DejaVuSans-Bold-112"/>
     <use x="337.890625" xlink:href="#DejaVuSans-Bold-114"/>
     <use x="387.207031" xlink:href="#DejaVuSans-Bold-101"/>
     <use x="455.029297" xlink:href="#DejaVuSans-Bold-115"/>
     <use x="514.550781" xlink:href="#DejaVuSans-Bold-115"/>
     <use x="574.072266" xlink:href="#DejaVuSans-Bold-117"/>
     <use x="645.263672" xlink:href="#DejaVuSans-Bold-114"/>
     <use x="694.580078" xlink:href="#DejaVuSans-Bold-101"/>
     <use x="762.402344" xlink:href="#DejaVuSans-Bold-32"/>
     <use x="797.216797" xlink:href="#DejaVuSans-Bold-105"/>
     <use x="831.494141" xlink:href="#DejaVuSans-Bold-110"/>
     <use x="902.685547" xlink:href="#DejaVuSans-Bold-32"/>
     <use x="937.5" xlink:href="#DejaVuSans-Bold-98"/>
     <use x="1009.082031" xlink:href="#DejaVuSans-Bold-97"/>
     <use x="1076.5625" xlink:href="#DejaVuSans-Bold-114"/>
     <use x="1125.878906" xlink:href="#DejaVuSans-Bold-32"/>
     <use x="1160.693359" xlink:href="#DejaVuSans-Bold-114"/>
     <use x="1210.009766" xlink:href="#DejaVuSans-Bold-101"/>
     <use x="1277.832031" xlink:href="#DejaVuSans-Bold-103"/>
     <use x="1349.414062" xlink:href="#DejaVuSans-Bold-105"/>
     <use x="1383.691406" xlink:href="#DejaVuSans-Bold-115"/>
     <use x="1443.212891" xlink:href="#DejaVuSans-Bold-116"/>
     <use x="1491.015625" xlink:href="#DejaVuSans-Bold-101"/>
     <use x="1558.837891" xlink:href="#DejaVuSans-Bold-114"/>
     <use x="1608.154297" xlink:href="#DejaVuSans-Bold-101"/>
     <use x="1675.976562" xlink:href="#DejaVuSans-Bold-100"/>
     <use x="1747.558594" xlink:href="#DejaVuSans-Bold-32"/>
     <use x="1782.373047" xlink:href="#DejaVuSans-Bold-102"/>
     <use x="1825.878906" xlink:href="#DejaVuSans-Bold-111"/>
     <use x="1894.580078" xlink:href="#DejaVuSans-Bold-114"/>
     <use x="1943.896484" xlink:href="#DejaVuSans-Bold-32"/>
     <use x="1978.710938" xlink:href="#DejaVuSans-Bold-97"/>
     <use x="2046.191406" xlink:href="#DejaVuSans-Bold-110"/>
     <use x="2117.382812" xlink:href="#DejaVuSans-Bold-121"/>
     <use x="2182.568359" xlink:href="#DejaVuSans-Bold-32"/>
     <use x="2217.382812" xlink:href="#DejaVuSans-Bold-111"/>
     <use x="2286.083984" xlink:href="#DejaVuSans-Bold-102"/>
     <use x="2329.589844" xlink:href="#DejaVuSans-Bold-32"/>
     <use x="2364.404297" xlink:href="#DejaVuSans-Bold-116"/>
     <use x="2412.207031" xlink:href="#DejaVuSans-Bold-104"/>
     <use x="2483.398438" xlink:href="#DejaVuSans-Bold-101"/>
     <use x="2551.220703" xlink:href="#DejaVuSans-Bold-32"/>
     <use x="2586.035156" xlink:href="#DejaVuSans-Bold-102"/>
     <use x="2629.541016" xlink:href="#DejaVuSans-Bold-111"/>
     <use x="2698.242188" xlink:href="#DejaVuSans-Bold-117"/>
     <use x="2769.433594" xlink:href="#DejaVuSans-Bold-114"/>
     <use x="2818.75" xlink:href="#DejaVuSans-Bold-32"/>
     <use x="2853.564453" xlink:href="#DejaVuSans-Bold-99"/>
     <use x="2912.841797" xlink:href="#DejaVuSans-Bold-111"/>
     <use x="2981.542969" xlink:href="#DejaVuSans-Bold-109"/>
     <use x="3085.742188" xlink:href="#DejaVuSans-Bold-112"/>
     <use x="3157.324219" xlink:href="#DejaVuSans-Bold-114"/>
     <use x="3206.640625" xlink:href="#DejaVuSans-Bold-101"/>
     <use x="3274.462891" xlink:href="#DejaVuSans-Bold-115"/>
     <use x="3333.984375" xlink:href="#DejaVuSans-Bold-115"/>
     <use x="3393.505859" xlink:href="#DejaVuSans-Bold-111"/>
     <use x="3462.207031" xlink:href="#DejaVuSans-Bold-114"/>
     <use x="3511.523438" xlink:href="#DejaVuSans-Bold-115"/>
     <use x="3571.044922" xlink:href="#DejaVuSans-Bold-32"/>
     <use x="3605.859375" xlink:href="#DejaVuSans-Bold-98"/>
     <use x="3677.441406" xlink:href="#DejaVuSans-Bold-101"/>
     <use x="3745.263672" xlink:href="#DejaVuSans-Bold-108"/>
     <use x="3779.541016" xlink:href="#DejaVuSans-Bold-111"/>
     <use x="3848.242188" xlink:href="#DejaVuSans-Bold-110"/>
     <use x="3919.433594" xlink:href="#DejaVuSans-Bold-103"/>
     <use x="3991.015625" xlink:href="#DejaVuSans-Bold-105"/>
     <use x="4025.292969" xlink:href="#DejaVuSans-Bold-110"/>
     <use x="4096.484375" xlink:href="#DejaVuSans-Bold-103"/>
     <use x="4168.066406" xlink:href="#DejaVuSans-Bold-32"/>
     <use x="4202.880859" xlink:href="#DejaVuSans-Bold-116"/>
     <use x="4250.683594" xlink:href="#DejaVuSans-Bold-111"/>
     <use x="4319.384766" xlink:href="#DejaVuSans-Bold-32"/>
     <use x="4354.199219" xlink:href="#DejaVuSans-Bold-116"/>
     <use x="4402.001953" xlink:href="#DejaVuSans-Bold-104"/>
     <use x="4473.193359" xlink:href="#DejaVuSans-Bold-101"/>
     <use x="4541.015625" xlink:href="#DejaVuSans-Bold-32"/>
     <use x="4575.830078" xlink:href="#DejaVuSans-Bold-50"/>
     <use x="4645.410156" xlink:href="#DejaVuSans-Bold-32"/>
     <use x="4680.224609" xlink:href="#DejaVuSans-Bold-99"/>
     <use x="4739.501953" xlink:href="#DejaVuSans-Bold-104"/>
     <use x="4810.693359" xlink:href="#DejaVuSans-Bold-105"/>
     <use x="4844.970703" xlink:href="#DejaVuSans-Bold-108"/>
     <use x="4879.248047" xlink:href="#DejaVuSans-Bold-108"/>
     <use x="4913.525391" xlink:href="#DejaVuSans-Bold-101"/>
     <use x="4981.347656" xlink:href="#DejaVuSans-Bold-114"/>
     <use x="5030.664062" xlink:href="#DejaVuSans-Bold-115"/>
     <use x="5090.185547" xlink:href="#DejaVuSans-Bold-32"/>
     <use x="5125" xlink:href="#DejaVuSans-Bold-100"/>
     <use x="5196.582031" xlink:href="#DejaVuSans-Bold-117"/>
     <use x="5267.773438" xlink:href="#DejaVuSans-Bold-114"/>
     <use x="5317.089844" xlink:href="#DejaVuSans-Bold-105"/>
     <use x="5351.367188" xlink:href="#DejaVuSans-Bold-110"/>
     <use x="5422.558594" xlink:href="#DejaVuSans-Bold-103"/>
     <use x="5494.140625" xlink:href="#DejaVuSans-Bold-32"/>
     <use x="5528.955078" xlink:href="#DejaVuSans-Bold-32"/>
     <use x="5563.769531" xlink:href="#DejaVuSans-Bold-116"/>
     <use x="5611.572266" xlink:href="#DejaVuSans-Bold-104"/>
     <use x="5682.763672" xlink:href="#DejaVuSans-Bold-101"/>
     <use x="5750.585938" xlink:href="#DejaVuSans-Bold-32"/>
     <use x="5785.400391" xlink:href="#DejaVuSans-Bold-118"/>
     <use x="5850.585938" xlink:href="#DejaVuSans-Bold-97"/>
     <use x="5918.066406" xlink:href="#DejaVuSans-Bold-108"/>
     <use x="5952.34375" xlink:href="#DejaVuSans-Bold-105"/>
     <use x="5986.621094" xlink:href="#DejaVuSans-Bold-100"/>
     <use x="6058.203125" xlink:href="#DejaVuSans-Bold-97"/>
     <use x="6125.683594" xlink:href="#DejaVuSans-Bold-116"/>
     <use x="6173.486328" xlink:href="#DejaVuSans-Bold-105"/>
     <use x="6207.763672" xlink:href="#DejaVuSans-Bold-111"/>
     <use x="6276.464844" xlink:href="#DejaVuSans-Bold-110"/>
     <use x="6347.65625" xlink:href="#DejaVuSans-Bold-32"/>
     <use x="6382.470703" xlink:href="#DejaVuSans-Bold-109"/>
     <use x="6486.669922" xlink:href="#DejaVuSans-Bold-111"/>
     <use x="6555.371094" xlink:href="#DejaVuSans-Bold-110"/>
     <use x="6626.5625" xlink:href="#DejaVuSans-Bold-116"/>
     <use x="6674.365234" xlink:href="#DejaVuSans-Bold-104"/>
    </g>
   </g>
  </g>
 </g>
 <defs>
  <clipPath id="p8901289866">
   <rect height="326.16" width="837" x="135" y="51.84"/>
  </clipPath>
 </defs>
</svg>
